<?xml version="1.0" encoding="UTF-8" standalone="no"?>
<!-- Created with Inkscape (http://www.inkscape.org/) -->

<svg
   width="126.55769mm"
   height="62.156345mm"
   viewBox="0 0 126.55769 62.156345"
   version="1.1"
   id="svg1"
   inkscape:version="1.4.2 (ebf0e940d0, 2025-05-08)"
   sodipodi:docname="wedding-logo-reverse.svg"
   xmlns:inkscape="http://www.inkscape.org/namespaces/inkscape"
   xmlns:sodipodi="http://sodipodi.sourceforge.net/DTD/sodipodi-0.dtd"
   xmlns="http://www.w3.org/2000/svg"
   xmlns:svg="http://www.w3.org/2000/svg">
  <sodipodi:namedview
     id="namedview1"
     pagecolor="#ffffff"
     bordercolor="#000000"
     borderopacity="0.25"
     inkscape:showpageshadow="2"
     inkscape:pageopacity="0.0"
     inkscape:pagecheckerboard="0"
     inkscape:deskcolor="#d1d1d1"
     inkscape:document-units="mm"
     inkscape:zoom="2.2652217"
     inkscape:cx="147.00548"
     inkscape:cy="140.16288"
     inkscape:window-width="1920"
     inkscape:window-height="1016"
     inkscape:window-x="0"
     inkscape:window-y="0"
     inkscape:window-maximized="1"
     inkscape:current-layer="layer1" />
  <defs
     id="defs1">
    <rect
       x="90.87674"
       y="188.15324"
       width="389.26993"
       height="126.3522"
       id="rect1-53-8-9-7-9-9" />
    <rect
       x="90.87674"
       y="188.15324"
       width="389.26993"
       height="126.3522"
       id="rect1-53-8-9-7-9-9-2" />
  </defs>
  <g
     inkscape:label="Layer 1"
     inkscape:groupmode="layer"
     id="layer1"
     transform="translate(-33.602084,-87.577084)">
    <rect
       style="display:none;fill:#121a2e;stroke-width:0.074;stroke-linecap:round"
       id="rect1"
       width="126.86095"
       height="62.439377"
       x="33.436901"
       y="87.411903"
       sodipodi:insensitive="true" />
    <path
       style="display:inline;fill:#f2df93;fill-opacity:1;stroke:none;stroke-width:0.107934"
       d="m 130.65431,109.54246 0.27651,0.44912 -0.51823,0.10347 0.391,0.52715 0.49238,0.0216 1.2235,0.14207 0.0348,-0.0348 c -0.035,-0.15274 -0.0484,-0.48246 -0.1391,-0.60136 -0.13631,-0.17864 -0.56457,-0.12383 -0.75912,-0.12383 0.095,-0.10404 0.2988,-0.22498 0.39653,-0.36854 -0.1063,0.0628 -0.22201,0.10745 -0.34097,0.14292 -0.0429,0.0128 -0.0842,0.0228 -0.12384,0.0301 -0.16085,0.075 -0.33594,0.0936 -0.55344,-0.0153 -0.14233,-0.0714 -0.23925,-0.20251 -0.37999,-0.27269 z"
       id="path29" />
    <path
       style="display:inline;fill:#f2df93;fill-opacity:1;stroke:none;stroke-width:0.107934"
       d="m 134.79987,110.16388 c -0.2243,0.0319 -0.42126,0.17238 -0.65577,0.16846 -0.15517,-0.003 -0.50637,-0.13853 -0.63407,-0.0294 -0.0789,0.0674 -0.007,0.22058 -0.0222,0.31006 -0.0156,0.0962 -0.12188,0.23088 -0.0651,0.32711 0.0484,0.0821 0.19042,0.0725 0.27027,0.0992 0.24791,0.0833 0.58507,0.16748 0.8108,0.29042 0.45831,0.24961 0.90305,0.5439 1.36685,0.78341 0.1696,0.0875 0.37404,0.0521 0.55241,0.12919 0.55679,0.2407 1.00418,0.63231 1.41749,1.06454 0.37145,0.38842 0.7932,0.72667 0.72398,1.31258 -0.3239,-0.24773 -0.54241,-0.88297 -0.93276,-1.00201 0.0884,0.36851 0.47435,0.69352 0.6842,1.00201 0.33392,0.49085 0.56827,1.02684 0.78238,1.57871 0.36202,0.93304 0.54209,1.89637 0.54209,2.89647 0,0.53752 -0.10898,1.06669 -0.10904,1.60352 h 0.0346 c 0.0167,-0.0811 0.0346,-0.16196 0.0569,-0.24185 0.0443,-0.15992 0.19796,-0.41671 0.3669,-0.19895 0.0972,0.12528 0.087,0.32809 0.13177,0.47542 0.0223,0.0733 0.0565,0.14089 0.0935,0.20671 0.038,0.0235 0.0766,0.053 0.11472,0.0894 0.0863,0.0824 0.0772,0.0736 0.12093,0.11524 -0.007,-0.0156 -0.014,-0.0315 -0.0207,-0.0481 -0.0598,-0.15011 -0.11017,-0.30212 -0.14521,-0.45992 -0.094,-0.42291 0.0873,-0.67994 0.30489,-0.7121 0.0391,-0.0492 0.068,-0.1015 0.0734,-0.15813 0.0164,-0.17356 -0.19008,-0.36805 -0.21549,-0.55243 -0.0435,-0.31593 0.10813,-0.64963 0.22427,-0.93275 l 0.0455,0.0279 c 0.002,-0.005 0.005,-0.0104 0.007,-0.0155 0.024,-0.049 0.0526,-0.0949 0.079,-0.14263 0.0183,-0.027 0.0365,-0.0541 0.0548,-0.0811 -0.453,-0.39551 -0.70542,-0.87376 -0.29043,-1.37666 l -0.0346,-0.0346 -0.1385,0.13798 0.10387,-0.3452 h -0.1726 l 0.10336,-0.0692 c -0.0801,-0.15851 -0.22812,-0.31767 -0.41445,-0.31057 -0.081,-0.19295 -0.24758,-0.3709 -0.2558,-0.58756 -0.007,-0.19403 0.15827,-0.5483 0.0765,-0.71572 -0.0547,-0.11204 -0.23405,-0.14152 -0.33539,-0.19482 -0.1972,-0.10369 -0.44558,-0.30674 -0.5457,-0.5085 -0.10798,-0.21764 0.0888,-0.46907 -0.031,-0.65939 -0.1337,-0.21169 -0.5609,-0.21627 -0.76378,-0.3793 -0.4765,-0.38291 -0.50837,-0.71128 -0.70021,-1.23766 -0.46238,0.10577 -0.80292,0.11854 -1.1095,-0.34623 -0.0665,-0.10075 -0.0886,-0.3395 -0.18913,-0.40204 -0.1108,-0.069 -0.3353,0.0197 -0.46251,0.0114 -0.43076,-0.0259 -1.03167,-0.36872 -0.89865,-0.88729 z m -0.10439,0.10386 0.10387,0.55242 -0.55294,-0.24185 z m 1.38131,0.86403 0.0346,0.3452 -0.34572,-0.1726 v -0.0687 z m 1.31362,0.93276 0.10387,0.55242 -0.51831,-0.48317 z m 0.9648,1.27175 c 0.36225,0.018 0.47824,0.2578 0.38189,0.6625 l -0.55242,-0.65629 c 0.0619,-0.007 0.11878,-0.008 0.17053,-0.006 z m 0.62378,1.24954 0.75964,0.13798 -0.17259,0.8294 z m 0.82889,1.51929 c 0.1322,0.0824 0.3375,0.18818 0.4222,0.32194 0.10403,0.16434 -0.0609,0.6264 -0.21497,0.71417 z m 0.48369,1.83038 c 0.0776,0.0886 0.12395,0.13884 0.24185,0.10387 0.0948,0.19687 -0.057,0.51495 -0.24185,0.62167 z m 0.0688,1.45159 h 5.1e-4 l 0.24133,0.3452 -0.31058,0.27647 c -0.0567,-0.20041 -0.0217,-0.43481 0.0687,-0.62167 z"
       id="path97" />
    <path
       style="display:inline;fill:#f2df93;fill-opacity:1;stroke:none;stroke-width:0.107934"
       d="m 130.67867,109.30656 c -0.0878,0.0261 -0.17588,0.0542 -0.26251,0.0842 -0.003,0.001 -0.007,0.002 -0.0103,0.003 -0.13179,0.16272 -0.28038,0.31005 -0.44597,0.43719 0.004,1e-4 0.01,3.5e-4 0.0171,5.1e-4 0.12911,0.004 0.22399,0.0403 0.28526,0.092 0.18394,-0.16575 0.29599,-0.38651 0.4165,-0.61702 z"
       id="path28" />
    <path
       style="display:inline;fill:#f2df93;fill-opacity:1;stroke:none;stroke-width:0.107934"
       d="m 132.49024,109.20828 c -0.0667,0.0935 -0.13669,0.18454 -0.21247,0.27099 -0.009,0.008 -0.0176,0.016 -0.0263,0.0242 0.19587,0.33308 0.44931,0.61365 0.78669,0.76379 v -0.24173 c -0.23284,-0.0683 -0.42704,-0.37122 -0.51824,-0.58694 l 0.13825,0.10348 c -0.0374,-0.11728 -0.099,-0.22688 -0.16793,-0.33376 z"
       id="path27" />
    <path
       style="display:inline;fill:#93a7ac;stroke:none;stroke-width:0.107934"
       d="m 129.27101,110.18919 c -0.14751,0.0157 -0.29235,0.0284 -0.41238,0.0594 -0.91643,0.237 -1.87609,0.60475 -2.66547,1.13636 -0.23427,0.15778 -0.63012,0.28426 -0.71933,0.57619 -0.26613,0.0297 -0.5102,0.25354 -0.55243,0.51832 -0.33962,0.0258 -0.52917,0.38572 -0.73845,0.61133 -0.52455,0.56549 -0.91862,1.21017 -1.30277,1.87534 -0.1432,0.24794 -0.3969,0.60326 -0.34209,0.89762 -0.26114,0.17769 -0.21511,0.56427 -0.28888,0.8232 -0.14924,0.5239 -0.28186,0.96697 -0.30592,1.52549 -0.0199,0.46245 -0.11513,0.91131 -0.0987,1.38183 0.0512,1.4672 0.45455,3.05991 1.2578,4.31757 0.26117,0.40889 0.63418,1.24401 1.1281,1.38131 0.0591,0.38197 0.50308,0.64979 0.78497,0.86041 0.33006,0.24663 0.62431,0.52389 0.97668,0.75654 1.7467,1.15325 3.52137,1.51558 5.5857,1.52549 0.51277,0.003 1.01548,-0.10471 1.5193,-0.20154 0.2163,-0.0415 0.48576,-0.0708 0.632,-0.24649 h 0.0341 c 0.15226,0.10423 0.23282,-0.0382 0.38291,-0.0755 0.37351,-0.0927 0.76771,-0.22906 1.10227,-0.42943 1.16226,-0.69606 2.35433,-1.44112 3.11144,-2.60087 0.15258,-0.23377 0.60247,-0.61559 0.54983,-0.90124 0.21867,-0.11622 0.29424,-0.33822 0.39636,-0.55242 0.21414,-0.44912 0.34838,-1.00292 0.6196,-1.41645 0.0868,-0.13229 0.18436,-0.26262 0.29094,-0.39016 -0.005,-0.005 -0.0104,-0.009 -0.0155,-0.014 -0.15746,-0.15032 -0.13777,-0.12786 -0.20154,-0.19637 -0.18069,0.14018 -0.45009,0.16908 -0.67593,0.15038 l -0.55242,0.72554 c -0.38356,-0.0656 -0.94771,0.4517 -1.3131,0.59221 -0.86463,0.33248 -1.76805,0.50844 -2.69338,0.5674 -0.49215,0.0313 -1.0732,-0.084 -1.55442,-0.18551 -2.18961,-0.46211 -4.06525,-1.87549 -5.10512,-3.87574 -0.29565,-0.56866 -0.44386,-1.18426 -0.62787,-1.79575 -0.0643,-0.21391 -0.0372,-0.51368 -0.17311,-0.6904 v -0.0351 c 0.15321,-0.21992 -4e-4,-0.79865 0,-1.07074 0.002,-0.65027 0.15182,-1.35687 0.36897,-1.96835 0.33897,-0.95446 0.83493,-1.812 1.4888,-2.58744 0.13118,-0.15558 0.28141,-0.33611 0.45681,-0.44235 0.0867,-0.0525 0.24634,-0.0553 0.30903,-0.13436 0.0654,-0.0824 0.10901,-0.2106 0.15916,-0.33021 -0.0377,0.007 -0.0797,0.01 -0.12557,0.008 -0.0465,-0.001 -0.0226,-7e-5 -0.0713,-0.002 -0.10178,-0.004 -0.20371,-0.008 -0.30541,-0.014 -0.15561,-0.009 -0.25932,-0.0634 -0.31368,-0.13384 z m -0.68936,0.8046 h 5.1e-4 c -0.006,0.16517 -0.14927,0.27926 -0.23719,0.41445 -0.21548,0.3313 -0.43299,0.65951 -0.63872,1.002 -0.6538,1.08842 -0.83727,2.38875 -0.90124,3.62614 -0.0179,0.34652 -0.077,1.12854 0.18811,1.38183 -0.17585,0.58022 0.28704,1.51002 0.5705,2.00298 0.22211,0.38626 0.38297,0.80419 0.64544,1.1715 0.70819,0.99104 1.62204,1.73633 2.65255,2.3735 0.37228,0.23017 0.82704,0.41988 1.24333,0.55294 0.17002,0.0543 0.42716,0.0247 0.5178,0.185 l 0.72606,0.13126 1.34668,0.0661 0.69092,-0.0589 h 0.0341 c 0.19459,0.12528 0.34424,0.0229 0.55293,-0.015 0.36108,-0.0656 0.68347,-0.16241 1.03612,-0.26717 0.17483,-0.052 0.3119,-0.0297 0.44907,-0.16691 0.4961,0.051 1.07207,-0.46127 1.48569,-0.69092 -0.35682,0.75532 -0.78731,1.49324 -1.33428,2.12856 -0.3308,0.38421 -0.72919,0.68904 -1.07797,1.05213 -0.25774,0.26833 -0.54236,0.45242 -0.83354,0.67954 -0.26161,0.20406 -0.4794,0.44798 -0.83044,0.49196 l 0.0693,-0.20722 c -0.0677,0.0762 -0.10169,0.18371 -0.18242,0.24805 -0.11096,0.0885 -0.27319,0.10342 -0.40514,0.14366 -0.33908,0.1034 -0.77204,0.34312 -1.10536,0.16071 l 0.0351,0.13849 -1.76165,0.29404 -1.76166,0.0165 v -0.20722 l 1.5198,0.0692 v -0.0352 c -0.41153,0 -1.18562,0.0186 -1.55132,-0.17828 -0.37016,-0.19932 -0.58494,-0.59512 -1.00459,-0.75396 l 0.75965,0.75965 c -0.19453,-0.0546 -0.39627,-0.0408 -0.58705,-0.0941 -0.63036,-0.17567 -1.27037,-0.54965 -1.79627,-0.93121 -0.52453,-0.38055 -0.98611,-0.99429 -1.55391,-1.2888 0.13405,0.25114 0.68757,0.54424 0.24132,0.82888 -0.20204,-0.35633 -0.76532,-0.62275 -1.05006,-0.93947 -0.49161,-0.54685 -0.8453,-1.19585 -1.24075,-1.81901 -0.0875,-0.13797 -0.24535,-0.20835 -0.33434,-0.34985 -0.62931,-1.00062 -0.95472,-2.62843 -0.8568,-3.79925 0.02,-0.23969 0.1298,-0.40109 0.19379,-0.62219 0.0653,-0.22579 0.0405,-0.46265 0.0754,-0.69039 0.0408,-0.26591 0.14987,-0.52226 0.17364,-0.79479 h 0.0346 c 0,2.44311 -0.11243,4.98478 1.76113,6.874 -0.3786,-0.74261 -0.89035,-1.38262 -1.18959,-2.17609 -0.49964,-1.3249 -0.53239,-2.82381 -0.43667,-4.2137 0.0357,-0.51822 -0.003,-1.0779 0.0884,-1.58905 0.0556,-0.30909 0.19771,-0.60099 0.29456,-0.89814 h 0.0346 c 0.009,0.37211 0.28355,0.50712 0.62167,0.41445 l -0.10335,-0.0346 0.58704,-0.65629 c -0.12391,0.11929 -0.25421,0.23202 -0.38137,0.34779 -0.44728,0.40722 -0.62398,0.0949 -0.49971,-0.38189 0.14408,-0.55273 0.43773,-1.01643 0.84698,-1.41542 0.36562,-0.35644 0.66505,-0.18864 0.65525,0.30954 -0.003,0.16447 -0.0553,0.32095 -0.0687,0.48421 h 0.0351 l 0.1478,-0.55242 -0.008,-0.51832 0.86144,-0.69815 1.38183,-0.87436 z m -0.75862,0.48369 c -0.35924,0.0778 -0.65519,0.33992 -0.96841,0.5178 -0.17575,0.0998 -0.35382,0.16288 -0.37879,0.38034 0.39525,-0.0705 1.17462,-0.53112 1.3472,-0.89814 z m -1.72702,1.17409 c -0.26071,0.18728 -0.66838,0.41989 -0.79479,0.72554 0.2226,0.0334 0.82601,-0.49116 0.79479,-0.72554 z m 0.62167,0.62219 0.1726,0.27595 z m -0.31109,0.2067 c -0.28398,0.32838 -0.32539,0.76974 -0.24185,1.17461 h 0.0346 l 0.0207,-0.55294 z m 0.0693,1.03611 0.0341,0.0346 z m 0.0341,0.0692 -0.27647,0.1726 z m -2.07223,0.10387 0.0346,0.0341 z m -0.48369,0.65578 0.0351,0.0346 z m 2.21072,0.13797 c -0.10766,0.31799 -0.11825,0.755 0,1.07074 0.12253,-0.21507 0.11667,-0.82548 0.0688,-1.07074 z m -2.69389,0.27595 c -0.17979,0.2053 -0.33943,0.47954 -0.31109,0.76016 0.16406,-0.1119 0.32746,-0.56363 0.31109,-0.76016 z m 2.86649,1.13999 -0.10387,0.0692 c 0.19074,1.02744 0.30852,2.02308 0.79478,2.97037 0.15267,0.29741 0.32698,0.68267 0.58705,0.89762 l -0.99116,-2.24483 z m -0.44907,1.24385 c 0,1.02228 0.49102,2.10418 1.05885,2.93522 0.24874,0.36402 0.53163,0.7307 0.91002,0.96738 -0.13224,-0.28795 -0.40471,-0.53058 -0.58394,-0.79478 -0.37464,-0.55229 -0.69978,-1.13154 -0.92605,-1.76113 -0.10986,-0.30571 -0.19693,-0.61832 -0.27698,-0.93276 -0.0386,-0.15132 -0.0481,-0.31868 -0.1819,-0.41393 z m 1.72703,2.72903 0.0346,0.0346 z m 1.00149,1.03663 c 0.0737,0.26194 0.38745,0.44504 0.58755,0.61598 0.58369,0.4986 1.46367,1.17794 2.24483,1.28364 v -0.0346 c -0.67716,-0.23133 -1.36919,-0.75167 -1.92857,-1.18907 -0.28031,-0.2192 -0.57206,-0.54596 -0.90381,-0.67593 z m -0.74105,0.3607 c -0.3602,0.0151 -0.4698,0.7371 -0.0868,0.88677 0.53669,0.20973 0.80127,-0.5854 0.27543,-0.7984 0.0544,0.10563 0.14113,0.1962 0.17777,0.31109 0.19488,0.61099 -1.00757,0.38687 -0.50694,-0.20309 0.0697,-0.0819 0.16786,-0.12595 0.25993,-0.17725 -0.0423,-0.015 -0.0821,-0.0207 -0.11938,-0.0191 z m 0.67232,0.50333 -0.0346,0.10387 c 0.51931,0.38353 1.11284,0.93528 1.76113,1.07022 -0.43886,-0.42028 -1.16827,-0.93302 -1.72651,-1.17409 z m -1.10537,0.51831 0.0346,0.0341 z m -0.0693,0.0687 0.0351,0.0346 z m -0.046,0.0806 0.0227,0.0114 z m -0.046,0.0806 0.0114,0.0233 z m 10.76472,0.0806 -0.58704,1.00149 c 0.3337,-0.13002 0.73492,-0.62405 0.65629,-1.00149 z m -10.84533,0.0346 v 0.10387 h 0.0346 z m -0.0687,0.20722 v 0.10336 h 0.0341 z m 9.29091,0 0.0341,0.0346 z m -11.84734,0.0692 0.0346,0.0341 z m 7.97884,0.10335 c 0.14884,0.19309 0.64429,0.0881 0.86351,0.0692 v -0.0692 z m 2.97036,0 0.20722,0.0692 z m 1.55391,0.93276 c -0.36706,0.12487 -1.01231,0.79197 -1.1746,1.13999 0.3536,-0.11358 0.60884,-0.47708 0.85783,-0.73536 0.12393,-0.12863 0.26814,-0.22594 0.31677,-0.40463 z m -10.81587,0.5085 c -0.0336,7.8e-4 -0.0665,0.004 -0.0987,0.01 v 0.0687 l 0.76017,0.17259 c -0.16846,-0.15217 -0.4267,-0.25658 -0.66146,-0.25114 z m -0.20206,0.28629 c 0.40701,0.35934 0.82376,0.70382 1.27744,1.00355 0.31466,0.20789 0.65144,0.39781 1.002,0.53847 0.28154,0.11302 0.56537,0.20291 0.86352,0.26045 0.10874,0.021 0.3068,0.017 0.37827,0.11627 0.0843,0.11706 -0.0291,0.21694 -0.13746,0.2403 -0.21714,0.0468 -0.50735,-0.0262 -0.72451,-0.0625 -0.76893,-0.12876 -1.85411,-0.5594 -2.35179,-1.16427 -0.20391,-0.24783 -0.5171,-0.61452 -0.30747,-0.93224 z m 0,0.58652 0.13746,0.24185 c -0.10159,-0.0563 -0.16505,-0.12256 -0.13746,-0.24185 z m 9.2289,0.10801 c -0.0548,0.005 -0.10096,0.0552 -0.14522,0.13384 l 0.27647,-0.0692 c -0.0448,-0.0439 -0.0846,-0.0637 -0.1204,-0.0646 -0.004,-1e-4 -0.007,-3.2e-4 -0.0108,0 z m -0.94,0.16846 c -0.40936,-0.0111 -0.86344,0.39553 -1.00149,0.75965 l 0.41497,-0.39636 z m -0.41393,0.90951 c 0.005,0 0.009,0.001 0.0113,0.003 l 5.2e-4,5.2e-4 v 5.2e-4 5.1e-4 5.2e-4 5.2e-4 5.1e-4 l -5.2e-4,5.2e-4 -5.1e-4,5.2e-4 v 5.1e-4 l -5.1e-4,5.2e-4 c -0.004,0.004 -0.014,0.007 -0.0222,0.004 z m -0.20774,0.16123 v 0.0346 h -0.27647 z"
       id="path98"
       inkscape:label="Mark - Moon" />
    <g
       id="g97"
       inkscape:label="Accents"
       style="display:inline;fill:#93a7ac"
       transform="matrix(0.82066646,0,0,0.82066646,9.5356153,50.566653)">
      <path
         style="fill:#93a7ac;stroke-width:0.0738758"
         d="m 58.749518,96.046777 c -0.0103,-0.302239 -0.0159,-0.317083 -0.12295,-0.331447 -0.12459,-0.01671 -0.28257,-0.09901 -0.39703,-0.206821 -0.10458,-0.09851 -0.21801,-0.302222 -0.21801,-0.391542 0,-0.05336 -0.009,-0.05743 -0.13593,-0.0612 -0.0748,-0.0022 -0.16252,-0.0062 -0.19503,-0.0089 -0.0325,-0.0027 -0.089,-0.0062 -0.12551,-0.0078 -0.0365,-0.0016 -0.0607,-0.01213 -0.0538,-0.02334 0.007,-0.01121 0.11425,-0.02571 0.23848,-0.0322 0.12423,-0.0065 0.23073,-0.01666 0.23665,-0.02259 0.006,-0.0059 0.016,-0.0526 0.0224,-0.10373 0.0278,-0.221596 0.0585,-0.286211 0.21931,-0.461636 0.089,-0.09706 0.2885,-0.205588 0.416,-0.226278 l 0.0866,-0.01406 v -0.26586 c 0,-0.207494 0.008,-0.272338 0.0355,-0.295305 0.0311,-0.02583 0.0358,0.002 0.0383,0.227598 0.002,0.141365 8.4e-4,0.271852 -0.002,0.289971 -0.006,0.04289 0.0474,0.0757 0.0977,0.06004 0.0553,-0.0172 0.32412,0.112334 0.40955,0.197354 0.12673,0.126115 0.15346,0.169381 0.2117,0.342688 l 0.0574,0.17074 0.16097,0.03873 c 0.1318,0.03171 0.14597,0.03926 0.0782,0.04163 -0.0455,0.0016 -0.12263,0.0095 -0.17139,0.01755 -0.0729,0.01205 -0.0887,0.02445 -0.0887,0.06977 0,0.107126 -0.0991,0.319305 -0.19711,0.422172 -0.10796,0.113275 -0.36393,0.249369 -0.46901,0.249369 h -0.0667 l -2.8e-4,0.171392 c -2.8e-4,0.186048 -0.0209,0.348702 -0.0442,0.348682 -0.008,-7e-6 -0.0177,-0.08777 -0.0213,-0.195032 z m -0.0672,-0.508253 c -0.0186,-0.06176 -0.0332,-0.112291 -0.0326,-0.112291 5.5e-4,0 -0.006,-0.03495 -0.0143,-0.07767 -0.009,-0.04371 -0.0374,-0.08932 -0.0656,-0.104308 -0.0275,-0.01465 -0.09,-0.05861 -0.13873,-0.09769 -0.0675,-0.0541 -0.11968,-0.07362 -0.21867,-0.08183 -0.14887,-0.01234 -0.15455,-0.0022 -0.0846,0.151974 0.0552,0.121556 0.19477,0.278373 0.29359,0.329866 0.0673,0.03508 0.24026,0.09866 0.27921,0.102658 0.008,8.66e-4 2.2e-4,-0.04895 -0.0184,-0.110709 z m 0.3162,0.07064 c 0.0423,-0.0059 0.0768,-0.02028 0.0768,-0.03186 0,-0.01158 0.0137,-0.02105 0.0304,-0.02105 0.0488,0 0.24409,-0.197483 0.28242,-0.285645 0.10978,-0.252498 0.11304,-0.281722 0.0315,-0.281722 -0.0663,0 -0.12043,0.0214 -0.28522,0.112693 -0.0994,0.05505 -0.1302,0.08991 -0.19346,0.218709 -0.0414,0.08427 -0.0828,0.194833 -0.092,0.245689 -0.0153,0.0846 -0.0129,0.09083 0.028,0.07323 0.0246,-0.01058 0.0793,-0.0241 0.12155,-0.03004 z m -0.72694,-0.701688 c 0.0195,-0.01588 0.0747,-0.04682 0.12276,-0.06876 0.14316,-0.06541 0.25897,-0.254857 0.2925,-0.478443 l 0.0164,-0.10934 -0.0799,0.01731 c -0.29895,0.06476 -0.54141,0.343548 -0.541,0.622052 1.5e-4,0.07637 0.003,0.07822 0.077,0.06238 0.0423,-0.009 0.0928,-0.02932 0.11229,-0.0452 z m 1.17845,-0.113623 c -0.0131,-0.04226 -0.0302,-0.09811 -0.0378,-0.124112 -0.0187,-0.06342 -0.0988,-0.176861 -0.17135,-0.242579 -0.0588,-0.05325 -0.28368,-0.181049 -0.28368,-0.161183 0,0.0057 -0.0332,8.65e-4 -0.0739,-0.01079 l -0.0739,-0.02119 0.0142,0.08785 c 0.0256,0.157802 0.15731,0.382907 0.26261,0.448837 0.0525,0.03288 0.099,0.06883 0.10337,0.07989 0.004,0.01106 0.0701,0.02011 0.1461,0.02011 h 0.13822 z"
         id="path51-6" />
      <path
         style="fill:#93a7ac;stroke-width:0.0738758"
         d="m 30.525767,61.175025 c -0.015,-0.03483 -0.0556,-0.135085 -0.0902,-0.222779 -0.0347,-0.08769 -0.072,-0.153878 -0.083,-0.147074 -0.011,0.0068 -0.0576,-0.04644 -0.10363,-0.118328 -0.046,-0.07189 -0.0917,-0.130866 -0.10163,-0.131069 -0.01,-2.22e-4 -0.0659,-0.04259 -0.1244,-0.09419 -0.0585,-0.0516 -0.11361,-0.09399 -0.12243,-0.09419 -0.009,-2.21e-4 -0.0554,-0.03748 -0.10348,-0.08283 -0.0963,-0.09086 -0.20335,-0.129356 -0.3651,-0.131349 l -0.10638,-0.0013 0.10638,-0.04965 c 0.0585,-0.02731 0.14361,-0.06598 0.18912,-0.08593 0.10538,-0.0462 0.37638,-0.253642 0.45787,-0.350485 0.0775,-0.09211 0.2277,-0.392322 0.2277,-0.455132 0,-0.0256 0.0106,-0.05312 0.0236,-0.06115 0.013,-0.008 0.0237,-0.03218 0.0237,-0.05365 0,-0.04621 0.10079,-0.312911 0.11808,-0.31246 0.0143,3.63e-4 0.12372,0.229479 0.18044,0.377933 0.0224,0.05851 0.0651,0.136147 0.0951,0.172529 0.0299,0.03638 0.0722,0.10352 0.0939,0.149197 0.0695,0.146587 0.22514,0.287104 0.46999,0.424495 0.13002,0.07296 0.27161,0.138521 0.31464,0.1457 0.0975,0.01627 0.0661,0.05726 -0.051,0.06655 -0.0988,0.0078 -0.411,0.210029 -0.54276,0.351527 -0.14614,0.156935 -0.33896,0.46425 -0.38693,0.616684 -0.05,0.15871 -0.0794,0.180171 -0.11946,0.08697 z m 0.01,-0.29235 c -0.008,-0.01886 -0.0131,-0.01326 -0.0143,0.01428 -0.001,0.02492 0.005,0.03888 0.0124,0.03103 0.008,-0.0079 0.009,-0.02824 0.002,-0.04531 z"
         id="path48-9" />
      <path
         style="fill:#93a7ac;stroke-width:0.148132"
         d="m 112.41803,112.2246 c -0.0301,-0.0698 -0.11149,-0.27088 -0.18087,-0.44671 -0.0696,-0.17585 -0.14437,-0.30855 -0.16643,-0.2949 -0.022,0.014 -0.11549,-0.093 -0.20779,-0.23727 -0.0922,-0.14417 -0.18387,-0.26241 -0.20379,-0.26282 -0.02,-4.4e-4 -0.13213,-0.0854 -0.24944,-0.18888 -0.1173,-0.10347 -0.2278,-0.18849 -0.24549,-0.18889 -0.018,-4.4e-4 -0.11108,-0.0752 -0.20749,-0.16602 -0.1931,-0.18227 -0.40775,-0.25939 -0.73208,-0.26338 l -0.21331,-0.002 0.21331,-0.0995 c 0.1173,-0.0547 0.28796,-0.13234 0.37921,-0.17224 0.21131,-0.0926 0.7547,-0.50859 0.9181,-0.70279 0.1554,-0.18468 0.45658,-0.78666 0.45658,-0.91261 0,-0.0513 0.0213,-0.10647 0.0473,-0.12251 0.0261,-0.016 0.0475,-0.0646 0.0475,-0.10768 0,-0.0926 0.2021,-0.62743 0.23677,-0.62653 0.0287,7.4e-4 0.24808,0.46014 0.36181,0.75783 0.0449,0.1173 0.13053,0.27298 0.19069,0.34593 0.06,0.073 0.14477,0.20757 0.18828,0.29917 0.13936,0.29393 0.45144,0.5757 0.94241,0.85119 0.26071,0.14637 0.54462,0.27775 0.6309,0.29215 0.1955,0.0327 0.13254,0.11489 -0.10227,0.13334 -0.1981,0.016 -0.82411,0.42114 -1.08831,0.70485 -0.29304,0.31469 -0.67967,0.93089 -0.77586,1.23656 -0.10026,0.31824 -0.15921,0.36127 -0.23953,0.17445 z m 0.02,-0.58621 c -0.016,-0.0379 -0.0263,-0.0267 -0.0287,0.0287 -0.002,0.0499 0.01,0.078 0.0249,0.0622 0.016,-0.016 0.018,-0.0565 0.004,-0.0908 z"
         id="path48-9-7" />
      <path
         style="fill:#93a7ac;stroke-width:0.0738758"
         d="m 135.90038,52.093489 c 0.009,-0.01659 -0.021,-0.433664 -0.0393,-0.537816 -0.009,-0.05231 -0.0465,-0.229617 -0.0523,-0.248223 -0.002,-0.0065 -0.0119,-0.04677 -0.0219,-0.08949 -0.01,-0.04272 -0.0408,-0.08966 -0.0683,-0.104308 -0.0275,-0.01465 -0.0882,-0.05721 -0.13487,-0.09458 -0.099,-0.07931 -0.13518,-0.08544 -0.58481,-0.09897 -0.31576,-0.0095 -0.41207,-0.0231 -0.33258,-0.04694 0.0181,-0.0054 0.1845,-0.01997 0.36975,-0.0323 0.23743,-0.0158 0.34904,-0.03281 0.37825,-0.05763 0.0228,-0.01937 0.0811,-0.05333 0.12952,-0.07548 0.22026,-0.100685 0.32561,-0.404282 0.32561,-0.938358 0,-0.216891 0.008,-0.282788 0.0355,-0.305877 0.0311,-0.02583 0.0358,0.002 0.038,0.227599 0.001,0.141365 5.6e-4,0.285235 -0.001,0.319712 -0.0121,0.187164 0.15318,0.541349 0.29361,0.629265 0.0525,0.03288 0.099,0.06883 0.10337,0.07989 0.004,0.01106 0.0841,0.02054 0.1773,0.02108 0.0932,5.3e-4 0.24919,0.0207 0.34671,0.04482 l 0.1773,0.04385 -0.10638,0.0059 c -0.0585,0.0033 -0.1759,0.0091 -0.26086,0.01293 -0.16485,0.0075 -0.2043,0.01989 -0.38924,0.122478 -0.0978,0.05425 -0.13091,0.09105 -0.19183,0.213114 -0.088,0.176296 -0.12722,0.355402 -0.12757,0.582291 -2.8e-4,0.201884 -0.0217,0.344751 -0.0515,0.344751 -0.0121,0 -0.0174,-0.008 -0.0119,-0.01773 z"
         id="path45-0" />
      <path
         style="fill:#93a7ac;stroke-width:0.0738758"
         d="m 33.117065,63.40656 c 0.009,-0.01659 -0.021,-0.433664 -0.0393,-0.537816 -0.009,-0.05231 -0.0465,-0.229617 -0.0523,-0.248223 -0.002,-0.0065 -0.0119,-0.04677 -0.0219,-0.08949 -0.01,-0.04272 -0.0408,-0.08966 -0.0683,-0.104308 -0.0275,-0.01465 -0.0882,-0.05721 -0.13487,-0.09458 -0.099,-0.07931 -0.13518,-0.08544 -0.58481,-0.09897 -0.31576,-0.0095 -0.41207,-0.0231 -0.33258,-0.04694 0.0181,-0.0054 0.1845,-0.01997 0.36975,-0.0323 0.23743,-0.0158 0.34904,-0.03281 0.37825,-0.05763 0.0228,-0.01937 0.0811,-0.05333 0.12952,-0.07548 0.22026,-0.100685 0.32561,-0.404282 0.32561,-0.938358 0,-0.216891 0.008,-0.282788 0.0355,-0.305877 0.0311,-0.02583 0.0358,0.002 0.038,0.227599 10e-4,0.141365 5.6e-4,0.285235 -0.001,0.319712 -0.0121,0.187164 0.15318,0.541349 0.29361,0.629265 0.0525,0.03288 0.099,0.06883 0.10337,0.07989 0.004,0.01106 0.0841,0.02054 0.1773,0.02108 0.0932,5.3e-4 0.2492,0.0207 0.34672,0.04482 l 0.1773,0.04385 -0.10638,0.0059 c -0.0585,0.0033 -0.1759,0.0091 -0.26087,0.01293 -0.16485,0.0075 -0.2043,0.01989 -0.38924,0.122478 -0.0978,0.05425 -0.13091,0.09105 -0.19183,0.213114 -0.088,0.176296 -0.12722,0.355402 -0.12757,0.582291 -2.8e-4,0.201884 -0.0217,0.344751 -0.0515,0.344751 -0.0121,0 -0.0174,-0.008 -0.0119,-0.01773 z"
         id="path45-9" />
      <path
         style="fill:#93a7ac;stroke-width:0.0738758"
         d="m 171.88607,95.962475 c -0.008,-0.08451 -0.0216,-0.180257 -0.0306,-0.212762 -0.009,-0.03251 -0.0189,-0.170801 -0.0221,-0.307324 -0.009,-0.385413 -0.01,-0.396512 -0.0414,-0.430565 -0.0162,-0.01763 -0.0615,-0.09552 -0.10048,-0.173081 -0.039,-0.07756 -0.0948,-0.173941 -0.12411,-0.214175 -0.0293,-0.04023 -0.0532,-0.08093 -0.0532,-0.09043 0,-0.03186 -0.19768,-0.355108 -0.29906,-0.489017 -0.0552,-0.07288 -0.13546,-0.161324 -0.1784,-0.196539 -0.4126,-0.338337 -0.55514,-0.43926 -0.82275,-0.582527 -0.0585,-0.03132 -0.13175,-0.07573 -0.16276,-0.09868 -0.0378,-0.02799 -0.0992,-0.04173 -0.18638,-0.04173 -0.13545,0 -0.31279,-0.04143 -0.31279,-0.07307 0,-0.0339 0.1052,-0.05292 0.30732,-0.05556 0.11052,-0.0015 0.21158,-0.0093 0.22459,-0.01746 0.013,-0.0082 0.0842,-0.02604 0.15831,-0.03972 0.17898,-0.03307 0.52524,-0.211079 0.42087,-0.216367 -0.0195,-9.77e-4 0.004,-0.02243 0.0513,-0.04764 0.0944,-0.04985 0.44449,-0.38762 0.55405,-0.53451 0.0375,-0.05022 0.0745,-0.09662 0.0824,-0.103123 0.008,-0.0065 0.0709,-0.09161 0.14002,-0.189122 0.0692,-0.09752 0.13812,-0.18794 0.15324,-0.200942 0.0352,-0.03024 0.1442,-0.283841 0.16505,-0.383884 0.009,-0.04211 0.0258,-0.08263 0.0378,-0.09005 0.012,-0.0074 0.0222,-0.03679 0.0228,-0.06528 5.6e-4,-0.02849 0.026,-0.109833 0.0566,-0.180768 0.0507,-0.117512 0.0547,-0.153532 0.0446,-0.405348 -0.008,-0.194654 -0.003,-0.281383 0.0164,-0.29331 0.0529,-0.03269 0.0702,0.02801 0.081,0.284838 0.0121,0.286326 0.029,0.380337 0.10584,0.590073 0.0286,0.07801 0.0781,0.230376 0.11009,0.338585 0.0319,0.108209 0.0794,0.238526 0.10546,0.289593 0.026,0.05107 0.0398,0.09285 0.0306,0.09285 -0.009,0 0.003,0.01437 0.0269,0.03193 0.024,0.01756 0.0454,0.05484 0.0474,0.08284 0.002,0.028 0.0243,0.06761 0.0495,0.08802 0.0252,0.02041 0.0326,0.03045 0.0165,0.02231 -0.0201,-0.01018 -0.0245,-0.0015 -0.014,0.0278 0.0226,0.06323 0.058,0.102758 0.0798,0.08923 0.0106,-0.0066 0.027,5.3e-4 0.0364,0.01573 0.0113,0.01828 0.007,0.02131 -0.0133,0.0089 -0.0204,-0.01258 -0.0265,-0.0079 -0.0184,0.01408 0.007,0.01806 0.0239,0.03018 0.0385,0.02693 0.0146,-0.0033 0.0239,0.0021 0.0207,0.01186 -0.0157,0.04706 0.4125,0.475375 0.56384,0.564072 0.0813,0.04766 0.10005,0.06867 0.0763,0.08567 -0.0228,0.01633 -0.0192,0.01854 0.013,0.008 0.0267,-0.0087 0.0845,0.009 0.14481,0.04432 0.0831,0.04871 0.16074,0.065 0.45199,0.09485 0.1934,0.01982 0.37601,0.04278 0.4058,0.05102 0.0834,0.02307 0.0473,0.06786 -0.0562,0.06973 -0.1536,0.0028 -0.48156,0.0368 -0.55342,0.05741 -0.0371,0.01064 -0.071,0.01581 -0.0753,0.01151 -0.0158,-0.0158 -0.38579,0.194251 -0.38579,0.219023 0,0.01408 -0.01,0.03446 -0.0215,0.04529 -0.0125,0.01145 -0.0144,0.0073 -0.005,-0.0099 0.0237,-0.04123 -0.015,-0.03688 -0.0699,0.0078 -0.0392,0.03193 -0.0398,0.03549 -0.005,0.02438 0.0638,-0.02007 0.05,-0.0013 -0.0569,0.0773 -0.18177,0.133674 -0.56244,0.501254 -0.59909,0.578485 -0.02,0.0421 -0.0681,0.111298 -0.10685,0.153762 -0.0388,0.04246 -0.0705,0.09121 -0.0705,0.108315 0,0.01711 -0.016,0.04435 -0.0355,0.06054 -0.0195,0.01619 -0.0355,0.05409 -0.0355,0.08424 0,0.03015 -0.0108,0.06151 -0.0241,0.0697 -0.032,0.01978 -0.1303,0.218186 -0.1514,0.305604 -0.009,0.03821 -0.0382,0.0995 -0.0643,0.136184 -0.0339,0.04761 -0.0502,0.115705 -0.057,0.237845 -0.0288,0.520915 -0.0396,0.660349 -0.0558,0.719942 -0.0146,0.05401 -0.0204,0.03822 -0.0321,-0.08782 z m -0.002,-0.336874 c -0.007,-0.01625 -0.0119,-0.003 -0.0119,0.02955 0,0.03251 0.005,0.0458 0.0119,0.02955 0.007,-0.01625 0.007,-0.04285 0,-0.0591 z m -0.48846,-1.444303 c 0,-0.0045 -0.0228,-0.02842 -0.0507,-0.05319 -0.0504,-0.04479 -0.0506,-0.04475 -0.0228,0.0082 0.023,0.04391 0.0735,0.07483 0.0735,0.04503 z m -1.00472,-0.937455 c -0.008,-0.013 -0.0252,-0.02364 -0.0383,-0.02364 -0.013,0 -0.0171,0.01064 -0.009,0.02364 0.008,0.013 0.0252,0.02364 0.0383,0.02364 0.013,0 0.0171,-0.01064 0.009,-0.02364 z"
         id="path44-94" />
      <path
         style="fill:#93a7ac;stroke-width:0.0503867"
         d="m 92.067831,58.070374 c -0.0055,-0.05764 -0.01473,-0.122943 -0.02087,-0.145113 -0.0061,-0.02217 -0.01289,-0.116494 -0.01507,-0.209609 -0.0061,-0.26287 -0.0068,-0.27044 -0.02824,-0.293666 -0.01105,-0.01202 -0.04195,-0.06515 -0.06853,-0.118049 -0.0266,-0.0529 -0.06466,-0.118636 -0.08465,-0.146077 -0.01998,-0.02744 -0.03629,-0.0552 -0.03629,-0.06168 0,-0.02173 -0.134827,-0.2422 -0.203972,-0.333532 -0.03765,-0.04971 -0.09239,-0.11003 -0.121678,-0.134049 -0.281412,-0.230761 -0.378631,-0.299595 -0.561153,-0.39731 -0.0399,-0.02136 -0.08986,-0.05165 -0.11101,-0.0673 -0.02578,-0.01909 -0.06766,-0.02846 -0.12712,-0.02846 -0.09238,0 -0.213337,-0.02826 -0.213337,-0.04984 0,-0.02312 0.07175,-0.03609 0.209606,-0.03789 0.07538,-10e-4 0.144308,-0.0063 0.153181,-0.01191 0.0089,-0.0056 0.05743,-0.01776 0.107975,-0.02709 0.122073,-0.02256 0.358238,-0.143966 0.287053,-0.147572 -0.0133,-6.67e-4 0.0027,-0.0153 0.03499,-0.03249 0.06439,-0.034 0.303163,-0.264375 0.377888,-0.364561 0.02558,-0.03425 0.05081,-0.0659 0.0562,-0.07033 0.0055,-0.0044 0.04836,-0.06248 0.0955,-0.12899 0.0472,-0.06651 0.0942,-0.128184 0.104517,-0.137052 0.02401,-0.02063 0.09835,-0.193593 0.112572,-0.261827 0.0061,-0.02872 0.0176,-0.05636 0.02578,-0.06142 0.0082,-0.005 0.01514,-0.02509 0.01555,-0.04452 3.82e-4,-0.01943 0.01773,-0.07491 0.0386,-0.123292 0.03458,-0.08015 0.03731,-0.104716 0.03042,-0.276466 -0.0055,-0.132763 -0.002,-0.191916 0.01119,-0.200051 0.03608,-0.0223 0.04788,0.0191 0.05525,0.194272 0.0083,0.195288 0.01978,0.259408 0.07219,0.402458 0.01951,0.05321 0.05327,0.157127 0.07509,0.23093 0.02176,0.0738 0.05416,0.162686 0.07193,0.197516 0.01773,0.03483 0.02715,0.06333 0.02087,0.06333 -0.0061,0 0.002,0.0098 0.01835,0.02178 0.01637,0.01198 0.03096,0.0374 0.03233,0.0565 0.0014,0.0191 0.01657,0.04611 0.03376,0.06003 0.01719,0.01392 0.02223,0.02077 0.01125,0.01522 -0.01371,-0.0069 -0.01671,-0.001 -0.0095,0.01896 0.01541,0.04313 0.03956,0.07008 0.05443,0.06086 0.0072,-0.0045 0.01842,3.61e-4 0.02483,0.01073 0.0077,0.01247 0.0048,0.01454 -0.0091,0.0061 -0.01391,-0.0086 -0.01808,-0.0054 -0.01255,0.0096 0.0048,0.01232 0.0163,0.02058 0.02626,0.01837 0.01,-0.0023 0.0163,0.0014 0.01412,0.0081 -0.01071,0.0321 0.281344,0.324228 0.384565,0.384723 0.05545,0.03251 0.06824,0.04684 0.05204,0.05843 -0.01555,0.01114 -0.0131,0.01264 0.0089,0.0055 0.01821,-0.0059 0.05763,0.0061 0.09877,0.03023 0.05668,0.03322 0.109632,0.04433 0.308278,0.06469 0.131908,0.01352 0.256456,0.02918 0.276774,0.0348 0.05688,0.01573 0.03226,0.04628 -0.03833,0.04756 -0.104762,0.0019 -0.328446,0.0251 -0.377458,0.03916 -0.0253,0.0073 -0.04842,0.01078 -0.05136,0.0079 -0.01078,-0.01078 -0.263126,0.132488 -0.263126,0.149384 0,0.0096 -0.0068,0.0235 -0.01466,0.03089 -0.0085,0.0078 -0.0098,0.005 -0.0034,-0.0068 0.01617,-0.02812 -0.01023,-0.02515 -0.04767,0.0053 -0.02674,0.02178 -0.02714,0.02421 -0.0034,0.01663 0.04351,-0.01369 0.0341,-8.86e-4 -0.03881,0.05272 -0.123976,0.09117 -0.38361,0.341878 -0.408607,0.394553 -0.01364,0.02871 -0.04645,0.07591 -0.07288,0.104873 -0.02646,0.02896 -0.04808,0.06221 -0.04808,0.07388 0,0.01167 -0.01091,0.03025 -0.02421,0.04129 -0.0133,0.01104 -0.02421,0.03689 -0.02421,0.05745 0,0.02056 -0.0074,0.04195 -0.01644,0.04754 -0.02183,0.01349 -0.08887,0.148813 -0.103262,0.208436 -0.0061,0.02606 -0.02605,0.06786 -0.04386,0.09288 -0.02312,0.03247 -0.03424,0.07892 -0.03888,0.162221 -0.01964,0.355288 -0.02701,0.450389 -0.03806,0.491034 -0.01,0.03684 -0.01391,0.02607 -0.02189,-0.0599 z m -0.0014,-0.229763 c -0.0048,-0.01108 -0.0081,-0.002 -0.0081,0.02015 0,0.02217 0.0034,0.03124 0.0081,0.02016 0.0048,-0.01108 0.0048,-0.02923 0,-0.04031 z m -0.333152,-0.985082 c 0,-0.0031 -0.01555,-0.01938 -0.03458,-0.03628 -0.03437,-0.03055 -0.03451,-0.03052 -0.01555,0.0056 0.01569,0.02995 0.05013,0.05104 0.05013,0.03071 z M 91.04805,56.216141 c -0.0055,-0.0089 -0.01719,-0.01612 -0.02612,-0.01612 -0.0089,0 -0.01166,0.0073 -0.0061,0.01612 0.0055,0.0089 0.01719,0.01612 0.02612,0.01612 0.0089,0 0.01166,-0.0073 0.0061,-0.01612 z"
         id="path44-9" />
      <path
         style="fill:#93a7ac;stroke-width:0.0738758"
         d="m 57.218927,91.679265 c -8.4e-4,-0.04226 -0.0108,-0.07683 -0.0221,-0.07683 -0.0113,0 -0.0277,-0.05362 -0.0364,-0.119153 -0.0164,-0.123283 -0.0568,-0.235451 -0.0849,-0.235451 -0.009,0 -0.0293,-0.04521 -0.0455,-0.100472 -0.0418,-0.142783 -0.12252,-0.270882 -0.25955,-0.41199 -0.0654,-0.06732 -0.1076,-0.126148 -0.0939,-0.130733 0.0826,-0.02752 -0.64166,-0.59933 -0.89532,-0.706901 -0.0423,-0.01792 -0.0769,-0.03796 -0.0769,-0.04454 -7e-5,-0.0066 -0.0432,-0.01442 -0.0958,-0.01742 -0.0526,-0.003 -0.11079,-0.02057 -0.12926,-0.03904 -0.029,-0.02901 -0.0111,-0.03583 0.13126,-0.05013 0.11017,-0.01106 0.16484,-0.02666 0.16484,-0.04701 0,-0.01675 0.0452,-0.0522 0.10047,-0.07877 0.12087,-0.05813 0.26526,-0.164716 0.57117,-0.421659 0.20237,-0.169968 0.23964,-0.213537 0.31345,-0.366424 0.20941,-0.433756 0.36241,-0.906292 0.36241,-1.119279 0,-0.04389 0.01,-0.08569 0.0212,-0.09288 0.0256,-0.01581 0.0498,0.04102 0.0498,0.116969 0,0.05273 0.0654,0.278727 0.17094,0.590709 0.0928,0.274237 0.20982,0.481799 0.38411,0.681159 0.0947,0.108289 0.2133,0.229146 0.26362,0.26857 0.2211,0.173237 0.55693,0.38464 0.63398,0.399097 0.0462,0.0087 0.084,0.02521 0.084,0.03676 0,0.01156 0.0532,0.02101 0.1182,0.02101 0.12102,0 0.17067,0.04582 0.0532,0.04909 -0.0357,0.001 -0.081,0.0058 -0.10047,0.01058 -0.0195,0.0048 -0.0674,0.01495 -0.10638,0.0225 -0.039,0.0076 -0.15761,0.04033 -0.26356,0.07284 -0.15414,0.0473 -0.19529,0.06968 -0.2059,0.111954 -0.007,0.02906 -0.0692,0.09524 -0.13751,0.147071 -0.27793,0.210794 -0.4916,0.442677 -0.59874,0.64978 -0.071,0.137168 -0.1976,0.558797 -0.21496,0.715722 -0.0202,0.182264 -0.0531,0.280354 -0.0553,0.164879 z m 0.0675,-0.632377 c 0.046,-0.138781 0.17926,-0.418267 0.22546,-0.472805 0.022,-0.026 0.0331,-0.03132 0.0247,-0.01182 -0.008,0.0195 0.006,0.01138 0.0318,-0.01804 0.1402,-0.158876 0.35911,-0.40493 0.44999,-0.505806 0.14027,-0.155674 0.32124,-0.28482 0.40503,-0.289034 0.0843,-0.0042 0.15609,-0.06181 0.077,-0.06181 -0.0277,0 -0.0644,-0.0138 -0.0816,-0.03067 -0.0172,-0.01687 -0.0844,-0.06641 -0.14944,-0.11008 -0.065,-0.04367 -0.164,-0.116165 -0.21997,-0.161092 -0.056,-0.04493 -0.107,-0.07645 -0.1134,-0.07005 -0.006,0.0064 0.0447,0.05199 0.11358,0.10131 0.22111,0.158335 0.19564,0.164768 -0.0604,0.01527 -0.10715,-0.06255 -0.17117,-0.125872 -0.28368,-0.280563 -0.19733,-0.27132 -0.41482,-0.692422 -0.45503,-0.881045 -0.0178,-0.08369 -0.0441,-0.16348 -0.0584,-0.177302 -0.0187,-0.01803 -0.0241,-0.01178 -0.0193,0.02215 0.009,0.05974 -0.0479,0.228779 -0.0867,0.260043 -0.0162,0.013 -0.0538,0.09811 -0.0835,0.189122 -0.0579,0.176966 -0.22615,0.457203 -0.40931,0.681776 -0.15365,0.188388 -0.24263,0.266679 -0.37287,0.328071 -0.0608,0.02867 -0.10549,0.0604 -0.0992,0.07051 0.006,0.0101 -0.004,0.01245 -0.0229,0.0052 -0.0189,-0.0072 -0.0413,-0.0018 -0.0499,0.01209 -0.009,0.01389 -0.002,0.02559 0.0153,0.026 0.0475,0.0011 -0.0537,0.07017 -0.10285,0.07017 -0.0276,0 -0.0374,0.01214 -0.0284,0.03546 0.01,0.02517 -0.003,0.03583 -0.0421,0.03675 -0.0396,9.22e-4 -0.0215,0.01514 0.0622,0.0491 0.0649,0.0263 0.12337,0.05571 0.13002,0.06535 0.007,0.0096 0.0653,0.04267 0.13029,0.07338 0.065,0.03071 0.12579,0.06721 0.13507,0.08111 0.009,0.0139 0.0226,0.02261 0.0296,0.01936 0.041,-0.01911 0.0866,0.0061 0.19175,0.106381 0.11274,0.107419 0.40618,0.517304 0.49504,0.691478 0.0797,0.156156 0.15734,0.265459 0.17413,0.245029 0.009,-0.01125 0.0309,-0.063 0.0481,-0.115007 z m -0.8491,-0.825075 c 0,-0.0052 -0.0399,-0.03202 -0.0887,-0.05956 l -0.0887,-0.05008 0.0709,0.05945 c 0.0651,0.05453 0.10638,0.07403 0.10638,0.05019 z m -0.65601,-0.455336 c -0.0162,-0.0066 -0.0428,-0.0066 -0.0591,0 -0.0163,0.0066 -0.003,0.01192 0.0295,0.01192 0.0325,0 0.0458,-0.0054 0.0296,-0.01192 z m 0.70631,-0.49852 c 0.0294,-0.0375 0.0286,-0.03833 -0.009,-0.0089 -0.0228,0.01784 -0.0414,0.03646 -0.0414,0.04137 0,0.01946 0.0194,0.0069 0.0503,-0.03244 z m 1.4154,0.03367 c 0,-0.0042 -0.0293,-0.03349 -0.065,-0.06501 l -0.065,-0.05731 0.0573,0.06501 c 0.0536,0.06076 0.0727,0.07585 0.0727,0.05731 z"
         id="path1-5-2" />
      <path
         style="fill:#93a7ac;stroke-width:0.0738758"
         d="m 108.72926,69.192791 c -0.0489,-0.108411 -0.23176,-0.304184 -0.28414,-0.304184 -0.0682,0 -0.0151,-0.08851 0.0856,-0.14235 0.0625,-0.03345 0.18607,-0.219458 0.20342,-0.306191 0.008,-0.03989 0.0219,-0.07713 0.031,-0.08276 0.009,-0.0056 0.0529,0.06513 0.0974,0.157242 0.0498,0.103172 0.11905,0.20112 0.18032,0.255114 l 0.0994,0.08764 -0.10445,0.07362 c -0.072,0.05074 -0.12688,0.118069 -0.17662,0.216593 -0.0397,0.07863 -0.0757,0.14297 -0.0801,0.14297 -0.004,0 -0.0277,-0.04397 -0.0519,-0.0977 z"
         id="path53-8" />
      <path
         style="fill:#93a7ac;stroke-width:0.0738758"
         d="m 167.11811,58.590119 c -0.007,-0.09427 -0.0217,-0.315006 -0.0324,-0.490536 -0.0175,-0.286637 -0.0271,-0.335397 -0.0943,-0.478715 -0.0577,-0.123251 -0.0862,-0.159572 -0.12485,-0.159572 -0.0275,0 -0.0693,-0.01029 -0.0928,-0.02286 -0.0262,-0.01402 -0.0712,-0.01469 -0.11633,-0.0017 -0.0434,0.01243 -0.079,0.0124 -0.0867,-7.4e-5 -0.007,-0.01166 0.0139,-0.02799 0.047,-0.03628 0.033,-0.0083 0.0601,-0.02282 0.0601,-0.03228 0,-0.0095 0.043,-0.01889 0.0956,-0.02095 0.21279,-0.0083 0.30529,-0.246328 0.32772,-0.843236 l 0.0151,-0.401885 0.0179,0.283684 c 0.0324,0.512276 0.0418,0.589371 0.0906,0.739229 0.0557,0.171196 0.11815,0.218202 0.28974,0.218202 0.12771,0 0.16358,0.03747 0.056,0.05847 -0.15119,0.02951 -0.25342,0.0916 -0.28284,0.171783 -0.0197,0.0538 -0.0342,0.06787 -0.0486,0.04728 -0.0131,-0.01879 -0.0156,-0.01163 -0.007,0.01994 0.008,0.02709 -0.003,0.09491 -0.0221,0.150724 -0.027,0.07651 -0.0358,0.208323 -0.0358,0.535847 0,0.437947 -0.0318,0.58683 -0.0561,0.262981 z"
         id="path57-1" />
    </g>
    <path
       d="m 47.405911,113.05725 c 0.0166,1.17868 0.0332,1.90913 -1.344693,2.05854 -0.547838,0.0664 -0.597641,0.0664 -0.597641,0.31543 0,0.0332 0.0166,0.19921 0.199213,0.19921 0.13281,0 0.597642,-0.0332 1.095676,-0.083 0.481434,-0.0332 1.012671,-0.0664 1.245087,-0.0664 0.381826,0 0.879861,0.0332 1.311491,0.0664 0.43163,0.0498 0.780254,0.083 0.846659,0.083 0.14941,0 0.166011,-0.13281 0.166011,-0.23242 0,-0.19921 -0.0332,-0.19921 -0.448231,-0.26561 -0.730451,-0.0996 -1.245086,-0.29883 -1.361294,-0.81346 -0.0332,-0.13281 -0.0332,-2.25776 -0.0332,-3.10442 v -4.81433 c 0,-1.57711 0.0332,-1.74312 1.776324,-1.74312 1.660115,0 2.324161,0.18261 2.60638,1.92573 0.0498,0.29882 0.0498,0.34863 0.215815,0.34863 0.08301,0 0.265619,-0.0332 0.265619,-0.21582 0,-0.18261 -0.0332,-1.04587 -0.0332,-1.22848 0,-0.31543 0.0166,-0.83006 0.0498,-1.4443 -0.481433,-0.0166 -0.564439,-0.0166 -1.593711,0 -0.514635,0.0166 -3.03801,0.1162 -3.60245,0.1162 -0.14941,0 -1.062473,-0.0332 -2.02534,-0.0664 -0.962867,-0.0166 -1.975536,-0.0498 -2.390565,-0.0498 -0.514636,0 -0.929665,0.0332 -1.29489,0.0332 0,0.13281 0.0166,0.73045 0.0166,0.86326 0,0.24902 -0.08301,1.4941 -0.08301,1.77632 0,0.13281 0.182613,0.18261 0.28222,0.18261 0.14941,0 0.166011,-0.0498 0.249017,-0.59764 0.232416,-1.39449 1.045873,-1.66011 3.054611,-1.66011 1.394497,0 1.394497,0.29882 1.394497,1.85933 z"
       id="text11"
       style="font-weight:300;font-size:64px;line-height:1;font-family:'Horley Old Style MT Std';-inkscape-font-specification:'Horley Old Style MT Std Light';letter-spacing:0.9px;word-spacing:0px;white-space:pre;fill:#ffffff;stroke-width:0.177264"
       aria-label="T" />
    <path
       d="m 58.436321,109.77022 1.460901,3.43644 c 0.315422,0.74705 0.415029,0.96287 0.415029,1.26169 0,0.46483 -0.664046,0.54784 -1.079075,0.59764 -0.498034,0.0498 -0.547838,0.0664 -0.547838,0.21582 0,0.29882 0.166012,0.29882 0.265619,0.29882 0.0664,0 0.979468,-0.0664 1.145479,-0.0664 0.664046,-0.0332 1.162081,-0.0332 1.411098,-0.0332 0.265618,0 1.01267,0.0332 1.145479,0.0332 0.08301,0 0.199214,-0.0166 0.199214,-0.24902 0,-0.23241 -0.08301,-0.23241 -0.265618,-0.26561 -0.564439,-0.0664 -0.946266,-0.48144 -1.178682,-0.99607 l -4.050681,-9.62867 c -0.132809,-0.31542 -0.249017,-0.44823 -0.498035,-0.44823 -0.249017,0 -0.381826,0.13281 -0.514635,0.46483 l -2.390566,6.00962 c -0.398428,1.01267 -1.01267,2.53997 -1.361295,3.45304 -0.182612,0.44823 -0.398427,0.87986 -0.929664,1.11227 -0.448231,0.18262 -0.464832,0.19922 -0.464832,0.29882 0,0.0332 0,0.31543 0.182612,0.31543 0.0166,0 0.332023,-0.0332 0.664046,-0.0498 0.332023,-0.0332 0.680648,-0.0498 0.796856,-0.0498 0.232416,0 0.630843,0.0166 0.979468,0.0498 0.348624,0.0166 0.647445,0.0498 0.664046,0.0498 0.116208,0 0.215815,-0.0166 0.215815,-0.26562 0,-0.18261 -0.0498,-0.19922 -0.581041,-0.26562 -0.249017,-0.0332 -1.178681,-0.14941 -1.178681,-0.66405 0,-0.26561 0.14941,-0.64744 0.199213,-0.76365 l 1.527306,-3.81826 z m -3.60245,-0.39842 1.660115,-4.2167 1.759722,4.2167 z"
       id="text10"
       style="font-weight:300;font-size:64px;line-height:1;font-family:'Horley Old Style MT Std';-inkscape-font-specification:'Horley Old Style MT Std Light';letter-spacing:0.9px;word-spacing:0px;white-space:pre;fill:#ffffff;stroke-width:0.177264"
       aria-label="A" />
    <path
       d="m 66.246117,110.55048 -2.257756,-3.90127 c -0.514636,-0.89647 -0.697249,-1.26169 -0.697249,-1.54391 0,-0.34862 0.547838,-0.49804 0.830058,-0.53124 0.464832,-0.0664 0.514636,-0.0664 0.514636,-0.26562 0,-0.0498 0,-0.28222 -0.182613,-0.28222 -0.08301,0 -0.365226,0.0332 -0.697249,0.0664 -0.348624,0.0332 -0.73045,0.0664 -1.01267,0.0664 -0.381826,0 -0.86326,-0.0332 -1.245086,-0.0664 -0.381827,-0.0332 -0.680647,-0.0664 -0.747052,-0.0664 -0.132809,0 -0.132809,0.0664 -0.132809,0.23242 0,0.24902 0.0498,0.26562 0.232416,0.29882 0.514636,0.11621 0.879861,0.39843 1.377895,1.24509 l 3.187422,5.34557 v 1.95893 c 0,1.52731 -0.166012,1.92574 -1.245087,2.02535 -0.531237,0.0332 -0.58104,0.0498 -0.58104,0.23241 0,0.19922 0.0498,0.24902 0.166011,0.24902 0.116209,0 0.43163,-0.0332 0.86326,-0.0664 0.43163,-0.0332 0.996069,-0.0664 1.57711,-0.0664 0.448231,0 0.946265,0.0332 1.344693,0.0664 0.398428,0.0332 0.697248,0.0664 0.71385,0.0664 0.09961,0 0.166011,-0.11621 0.166011,-0.26562 0,-0.0498 0,-0.14941 -0.0498,-0.18261 -0.0166,-0.0166 -0.381827,-0.0498 -0.43163,-0.0498 -1.427699,-0.14941 -1.427699,-0.66404 -1.427699,-1.57711 v -2.60638 l 2.871999,-4.93054 c 0.498035,-0.89646 0.86326,-1.19528 1.377896,-1.4111 0.315421,-0.1162 0.348624,-0.13281 0.348624,-0.23241 0,-0.0664 -0.0166,-0.33203 -0.199214,-0.33203 -0.0664,0.0166 -0.946266,0.13281 -1.510705,0.13281 -0.398428,0 -0.730451,-0.0332 -0.979468,-0.0664 -0.249017,-0.0332 -0.415029,-0.0664 -0.498034,-0.0664 -0.166012,0 -0.199214,0.19922 -0.199214,0.29883 0,0.16601 0.0498,0.18261 0.381826,0.23241 0.365226,0.0498 1.062474,0.28222 1.062474,0.71385 0,0.29882 -0.132809,0.51464 -0.813456,1.67672 z"
       id="text9"
       style="font-weight:300;font-size:64px;line-height:1;font-family:'Horley Old Style MT Std';-inkscape-font-specification:'Horley Old Style MT Std Light';letter-spacing:0.9px;word-spacing:0px;white-space:pre;fill:#ffffff;stroke-width:0.177264"
       aria-label="Y" />
    <path
       d="m 73.701072,112.72523 c 0.0166,1.67671 0.0166,2.22455 -1.145479,2.34076 -0.464833,0.0498 -0.581041,0.0664 -0.581041,0.29882 0,0.14941 0.08301,0.28222 0.265619,0.28222 0.116208,0 0.199214,-0.0166 0.365225,-0.0332 0.830058,-0.083 1.776323,-0.13281 2.025341,-0.13281 0.166011,0 1.195283,0.0332 2.224554,0.0664 1.029271,0.0332 2.075144,0.0664 2.241155,0.0664 0.730451,0 1.593711,-0.083 1.958936,-0.13281 0.448232,-1.26169 0.813457,-1.97554 0.846659,-2.07514 0.09961,-0.16602 0.249017,-0.46484 0.249017,-0.51464 0,-0.13281 -0.199213,-0.13281 -0.282219,-0.13281 -0.166012,0 -0.182613,0.0498 -0.398428,0.36523 -1.079075,1.66011 -2.656184,1.90913 -4.515513,1.90913 -1.195283,0 -1.759722,-0.16601 -1.958936,-0.58104 -0.166012,-0.31542 -0.166012,-0.84666 -0.166012,-1.89253 v -5.7606 c 0,-0.26562 0,-1.26169 0.06641,-1.49411 0.199214,-0.59764 0.747052,-0.71385 1.344693,-0.78025 0.43163,-0.0332 0.481434,-0.0332 0.481434,-0.21582 0,-0.0664 0,-0.28222 -0.182613,-0.28222 -0.0166,0 -0.398428,0.0332 -0.86326,0.0664 -0.464832,0.0332 -1.029271,0.0664 -1.411098,0.0664 -0.265618,0 -0.763653,-0.0332 -1.228485,-0.0664 -0.448231,-0.0332 -0.86326,-0.0664 -0.929665,-0.0664 -0.09961,0 -0.182612,0.0664 -0.182612,0.28222 0,0.19922 0.0166,0.19922 0.547838,0.26562 0.647445,0.0996 1.16208,0.19922 1.228485,1.02927 0.0166,0.16602 0,1.06248 0,1.26169 z"
       id="text8"
       style="font-weight:300;font-size:64px;line-height:1;font-family:'Horley Old Style MT Std';-inkscape-font-specification:'Horley Old Style MT Std Light';letter-spacing:0.9px;word-spacing:0px;white-space:pre;fill:#ffffff;stroke-width:0.177264"
       aria-label="L" />
    <path
       d="m 82.154168,109.88643 c 0,3.08782 2.241156,5.92661 5.943213,5.92661 3.253826,0 5.993016,-2.42377 5.993016,-5.8436 0,-3.00481 -2.357364,-6.09263 -5.893409,-6.09263 -3.353433,0 -6.04282,2.72259 -6.04282,6.00962 z m 10.574934,0.0332 c 0,3.32023 -1.809525,5.51159 -4.598519,5.51159 -2.373965,0 -4.61512,-1.89254 -4.61512,-5.6444 0,-3.18742 1.709919,-5.52818 4.648322,-5.52818 2.523376,0 4.565317,2.25776 4.565317,5.66099 z"
       id="text7"
       style="font-weight:300;font-size:64px;line-height:1;font-family:'Horley Old Style MT Std';-inkscape-font-specification:'Horley Old Style MT Std Light';letter-spacing:0.9px;word-spacing:0px;white-space:pre;fill:#ffffff;stroke-width:0.177264"
       aria-label="O" />
    <path
       d="m 322.64098,217.84834 c 3.136,-0.128 3.392,-0.128 5.824,0 l 11.328,15.296 c 1.216,1.728 3.456,4.096 5.056,5.44 0.384,0.32 1.216,0.896 2.624,0.896 0.384,0 1.152,-0.128 2.688,-0.128 0.768,0 1.856,0.128 2.24,0.128 0.64,0 0.768,-0.512 0.768,-1.088 0,-0.384 -0.32,-0.64 -1.856,-0.96 -3.776,-0.832 -4.032,-1.216 -11.072,-10.624 l -7.04,-9.408 c 1.152,-0.128 3.712,-0.448 5.888,-1.664 3.84,-2.048 5.888,-5.824 5.888,-9.472 0,-3.264 -2.048,-11.008 -14.72,-11.008 -0.384,0 -1.472,0 -2.432,0.064 -4.032,0.256 -4.672,0.384 -7.552,0.384 -0.512,0 -2.112,-0.064 -3.712,-0.192 -1.6,-0.064 -3.2,-0.128 -3.84,-0.128 -0.704,0 -0.96,0.064 -0.96,0.96 0,0.704 0.128,0.704 1.728,0.896 4.672,0.512 4.992,1.92 4.992,5.888 v 28.032 c -0.064,5.952 -1.6,6.464 -5.376,6.784 -1.408,0.128 -1.472,0.128 -1.472,0.768 0,0.384 0.192,1.152 0.832,1.152 0.128,0 1.024,-0.128 2.56,-0.256 1.536,-0.128 3.648,-0.256 6.016,-0.256 1.856,0 3.84,0.128 5.44,0.256 1.6,0.128 2.816,0.256 3.072,0.256 0.64,0 0.768,-0.576 0.768,-0.896 0,-1.024 -0.256,-1.024 -2.944,-1.344 -2.24,-0.256 -4.736,-0.576 -4.736,-5.696 z m 0,-15.424 c 0,-1.6 0.064,-2.496 0.64,-3.264 1.152,-1.536 4.032,-2.496 6.592,-2.496 8.384,0 10.24,6.72 10.24,10.304 0,8 -6.528,8.768 -10.624,9.024 -4.16,0.256 -5.184,0.256 -6.848,0.128 z"
       id="text6"
       style="font-weight:300;font-size:64px;line-height:1;font-family:'Horley Old Style MT Std';-inkscape-font-specification:'Horley Old Style MT Std Light';letter-spacing:0.9px;word-spacing:0px;white-space:pre;fill:#ffffff;stroke-width:0.68338"
       transform="matrix(0.259393,0,0,0.259393,13.079618,53.394698)"
       aria-label="R" />
    <path
       d="m 111.93295,230.00834 c 0.064,4.544 0.128,7.36 -5.184,7.936 -2.112,0.256 -2.304,0.256 -2.304,1.216 0,0.128 0.064,0.768 0.768,0.768 0.512,0 2.304,-0.128 4.224,-0.32 1.856,-0.128 3.904,-0.256 4.8,-0.256 1.472,0 3.392,0.128 5.056,0.256 1.664,0.192 3.008,0.32 3.264,0.32 0.576,0 0.64,-0.512 0.64,-0.896 0,-0.768 -0.128,-0.768 -1.728,-1.024 -2.816,-0.384 -4.8,-1.152 -5.248,-3.136 -0.128,-0.512 -0.128,-8.704 -0.128,-11.968 v -18.56 c 0,-6.08 0.128,-6.72 6.848,-6.72 6.4,0 8.96,0.704 10.048,7.424 0.192,1.152 0.192,1.344 0.832,1.344 0.32,0 1.024,-0.128 1.024,-0.832 0,-0.704 -0.128,-4.032 -0.128,-4.736 0,-1.216 0.064,-3.2 0.192,-5.568 -1.856,-0.064 -2.176,-0.064 -6.144,0 -1.984,0.064 -11.712,0.448 -13.888,0.448 -0.576,0 -4.096,-0.128 -7.808,-0.256 -3.712,-0.064 -7.615997,-0.192 -9.215997,-0.192 -1.984,0 -3.584,0.128 -4.992,0.128 0,0.512 0.064,2.816 0.064,3.328 0,0.96 -0.32,5.76 -0.32,6.848 0,0.512 0.704,0.704 1.088,0.704 0.576,0 0.64,-0.192 0.96,-2.304 0.896,-5.376 4.032,-6.4 11.775997,-6.4 5.376,0 5.376,1.152 5.376,7.168 z"
       id="text5"
       style="font-weight:300;font-size:64px;line-height:1;font-family:'Horley Old Style MT Std';-inkscape-font-specification:'Horley Old Style MT Std Light';letter-spacing:0.9px;word-spacing:0px;white-space:pre;fill:#ffffff;stroke-width:0.68338"
       transform="matrix(0.259393,0,0,0.259393,36.539799,73.128336)"
       aria-label="T" />
    <path
       d="m 160.83295,220.34434 -8.704,-15.04 c -1.984,-3.456 -2.688,-4.864 -2.688,-5.952 0,-1.344 2.112,-1.92 3.2,-2.048 1.792,-0.256 1.984,-0.256 1.984,-1.024 0,-0.192 0,-1.088 -0.704,-1.088 -0.32,0 -1.408,0.128 -2.688,0.256 -1.344,0.128 -2.816,0.256 -3.904,0.256 -1.472,0 -3.328,-0.128 -4.8,-0.256 -1.472,-0.128 -2.624,-0.256 -2.88,-0.256 -0.512,0 -0.512,0.256 -0.512,0.896 0,0.96 0.192,1.024 0.896,1.152 1.984,0.448 3.392,1.536 5.312,4.8 l 12.288,20.608 v 7.552 c 0,5.888 -0.64,7.424 -4.8,7.808 -2.048,0.128 -2.24,0.192 -2.24,0.896 0,0.768 0.192,0.96 0.64,0.96 0.448,0 1.664,-0.128 3.328,-0.256 1.664,-0.128 3.84,-0.256 6.08,-0.256 1.728,0 3.648,0.128 5.184,0.256 1.536,0.128 2.688,0.256 2.752,0.256 0.384,0 0.64,-0.448 0.64,-1.024 0,-0.192 0,-0.576 -0.192,-0.704 -0.064,-0.064 -1.472,-0.192 -1.664,-0.192 -5.504,-0.576 -5.504,-2.56 -5.504,-6.08 v -10.048 l 11.072,-19.008 c 1.92,-3.456 3.328,-4.608 5.312,-5.44 1.216,-0.448 1.344,-0.512 1.344,-0.896 0,-0.256 -0.064,-1.28 -0.768,-1.28 -0.256,0.064 -3.648,0.512 -5.824,0.512 -1.536,0 -2.816,-0.128 -3.776,-0.256 -0.96,-0.128 -1.6,-0.256 -1.92,-0.256 -0.64,0 -0.768,0.768 -0.768,1.152 0,0.64 0.192,0.704 1.472,0.896 1.408,0.192 4.096,1.088 4.096,2.752 0,1.152 -0.512,1.984 -3.136,6.464 z"
       id="text4"
       style="font-weight:300;font-size:64px;line-height:1;font-family:'Horley Old Style MT Std';-inkscape-font-specification:'Horley Old Style MT Std Light';letter-spacing:0.9px;word-spacing:0px;white-space:pre;fill:#ffffff;stroke-width:0.68338"
       transform="matrix(0.259393,0,0,0.259393,36.539799,73.128336)"
       aria-label="Y" />
    <path
       d="m 189.57295,228.72834 c 0.064,6.464 0.064,8.576 -4.416,9.024 -1.792,0.192 -2.24,0.256 -2.24,1.152 0,0.576 0.32,1.088 1.024,1.088 0.448,0 0.768,-0.064 1.408,-0.128 3.2,-0.32 6.848,-0.512 7.808,-0.512 0.64,0 4.608,0.128 8.576,0.256 3.968,0.128 8,0.256 8.64,0.256 2.816,0 6.144,-0.32 7.552,-0.512 1.728,-4.864 3.136,-7.616 3.264,-8 0.384,-0.64 0.96,-1.792 0.96,-1.984 0,-0.512 -0.768,-0.512 -1.088,-0.512 -0.64,0 -0.704,0.192 -1.536,1.408 -4.16,6.4 -10.24,7.36 -17.408,7.36 -4.608,0 -6.784,-0.64 -7.552,-2.24 -0.64,-1.216 -0.64,-3.264 -0.64,-7.296 v -22.208 c 0,-1.024 0,-4.864 0.256,-5.76 0.768,-2.304 2.88,-2.752 5.184,-3.008 1.664,-0.128 1.856,-0.128 1.856,-0.832 0,-0.256 0,-1.088 -0.704,-1.088 -0.064,0 -1.536,0.128 -3.328,0.256 -1.792,0.128 -3.968,0.256 -5.44,0.256 -1.024,0 -2.944,-0.128 -4.736,-0.256 -1.728,-0.128 -3.328,-0.256 -3.584,-0.256 -0.384,0 -0.704,0.256 -0.704,1.088 0,0.768 0.064,0.768 2.112,1.024 2.496,0.384 4.48,0.768 4.736,3.968 0.064,0.64 0,4.096 0,4.864 z"
       id="text3"
       style="font-weight:300;font-size:64px;line-height:1;font-family:'Horley Old Style MT Std';-inkscape-font-specification:'Horley Old Style MT Std Light';letter-spacing:0.9px;word-spacing:0px;white-space:pre;fill:#ffffff;stroke-width:0.68338"
       transform="matrix(0.259393,0,0,0.259393,36.539799,73.128336)"
       aria-label="L" />
    <path
       d="m 233.48095,215.54434 c 1.664,-0.192 2.048,-0.192 3.648,-0.192 6.272,0 9.024,0 9.408,5.952 0.128,1.856 0.128,2.048 0.832,2.048 0.704,0 1.152,-0.192 1.152,-0.704 0,-1.088 -0.512,-6.272 -0.512,-7.488 0,-2.112 0.256,-3.968 0.512,-6.528 0.064,-0.128 0.128,-1.28 0.128,-1.472 0,-0.704 -0.192,-0.896 -1.088,-0.896 -0.512,0 -0.64,0.192 -0.64,0.704 -0.192,2.304 -0.512,4.608 -1.536,5.568 -1.664,1.536 -11.136,1.216 -11.904,1.152 v -8.768 c 0,-0.96 0.064,-5.248 0.192,-5.696 0.64,-1.984 1.856,-2.112 7.04,-2.112 7.744,0 8.32,0.384 9.344,1.216 1.792,1.472 2.816,5.248 3.008,6.08 0.448,1.536 0.448,1.728 1.024,1.728 0.192,0 1.152,0 1.152,-0.576 0,-0.128 -0.064,-0.64 -0.064,-0.768 -0.128,-1.28 -0.192,-2.624 -0.192,-3.904 0,-0.832 0.256,-4.736 0.256,-5.568 -1.216,-0.128 -2.496,-0.32 -5.888,-0.32 -2.432,0.064 -5.056,0.064 -7.552,0.256 -3.2,0.192 -7.872,0.448 -9.472,0.448 -0.576,0 -2.304,-0.128 -4.032,-0.256 -1.728,-0.128 -3.456,-0.256 -4.096,-0.256 -0.512,0 -0.832,0.576 -0.832,1.152 0,0.704 0.512,0.704 0.96,0.768 2.368,0.32 3.136,0.64 3.648,1.024 1.216,0.832 1.216,1.408 1.216,6.528 v 21.824 c 0,10.112 0,10.624 -4.544,11.2 -2.176,0.32 -2.24,0.32 -2.24,1.088 0,0.256 0.064,1.088 1.088,1.088 0.32,0 1.92,-0.192 2.304,-0.192 2.24,-0.192 3.776,-0.32 4.992,-0.32 1.664,0 3.648,0.128 6.4,0.256 2.752,0.064 5.504,0.192 6.528,0.192 5.824,0 9.536,-0.256 11.584,-0.384 0.832,-2.112 2.048,-5.504 2.816,-7.616 0.128,-0.32 0.832,-2.112 0.832,-2.304 0,-0.384 -0.448,-0.64 -0.896,-0.64 -0.512,0 -0.64,0.192 -1.728,1.728 -4.992,7.168 -12.032,7.168 -14.912,7.168 -7.936,0 -7.936,-0.64 -7.936,-7.872 z"
       id="text2"
       style="font-weight:300;font-size:64px;line-height:1;font-family:'Horley Old Style MT Std';-inkscape-font-specification:'Horley Old Style MT Std Light';letter-spacing:0.9px;word-spacing:0px;white-space:pre;fill:#ffffff;stroke-width:0.68338"
       transform="matrix(0.259393,0,0,0.259393,36.539799,73.128336)"
       aria-label="E" />
    <path
       d="m 272.65297,217.84834 c 3.136,-0.128 3.392,-0.128 5.824,0 l 11.328,15.296 c 1.216,1.728 3.456,4.096 5.056,5.44 0.384,0.32 1.216,0.896 2.624,0.896 0.384,0 1.152,-0.128 2.688,-0.128 0.768,0 1.856,0.128 2.24,0.128 0.64,0 0.768,-0.512 0.768,-1.088 0,-0.384 -0.32,-0.64 -1.856,-0.96 -3.776,-0.832 -4.032,-1.216 -11.072,-10.624 l -7.04,-9.408 c 1.152,-0.128 3.712,-0.448 5.888,-1.664 3.84,-2.048 5.888,-5.824 5.888,-9.472 0,-3.264 -2.048,-11.008 -14.72,-11.008 -0.384,0 -1.472,0 -2.432,0.064 -4.032,0.256 -4.672,0.384 -7.552,0.384 -0.512,0 -2.112,-0.064 -3.712,-0.192 -1.6,-0.064 -3.2,-0.128 -3.84,-0.128 -0.704,0 -0.96,0.064 -0.96,0.96 0,0.704 0.128,0.704 1.728,0.896 4.672,0.512 4.992,1.92 4.992,5.888 v 28.032 c -0.064,5.952 -1.6,6.464 -5.376,6.784 -1.408,0.128 -1.472,0.128 -1.472,0.768 0,0.384 0.192,1.152 0.832,1.152 0.128,0 1.024,-0.128 2.56,-0.256 1.536,-0.128 3.648,-0.256 6.016,-0.256 1.856,0 3.84,0.128 5.44,0.256 1.6,0.128 2.816,0.256 3.072,0.256 0.64,0 0.768,-0.576 0.768,-0.896 0,-1.024 -0.256,-1.024 -2.944,-1.344 -2.24,-0.256 -4.736,-0.576 -4.736,-5.696 z m 0,-15.424 c 0,-1.6 0.064,-2.496 0.64,-3.264 1.152,-1.536 4.032,-2.496 6.592,-2.496 8.384,0 10.24,6.72 10.24,10.304 0,8 -6.528,8.768 -10.624,9.024 -4.16,0.256 -5.184,0.256 -6.848,0.128 z"
       id="text1"
       style="font-weight:300;font-size:64px;line-height:1;font-family:'Horley Old Style MT Std';-inkscape-font-specification:'Horley Old Style MT Std Light';letter-spacing:0.9px;word-spacing:0px;white-space:pre;fill:#ffffff;stroke-width:0.68338"
       transform="matrix(0.259393,0,0,0.259393,36.539799,73.128336)"
       aria-label="R" />
    <path
       style="display:inline;fill:#f2df93;fill-opacity:1;stroke:none;stroke-width:0.107934"
       d="m 127.06193,139.52487 c -0.27086,0.33388 -0.21649,0.77383 -0.29983,1.17431 -0.0253,0.12124 -0.0874,0.43231 0.15395,0.3838 0.14531,-0.0292 0.1359,-0.31038 0.14461,-0.42154 0.0258,-0.32934 0.27831,-0.86721 0.002,-1.13657 z"
       id="path93" />
    <path
       style="display:inline;fill:#f2df93;fill-opacity:1;stroke:none;stroke-width:0.107934"
       d="m 136.21509,139.35184 c -0.19901,0.0667 -0.0921,0.32182 -0.0594,0.48389 0.0762,0.36948 0.1729,0.73526 0.24258,1.10518 0.0311,0.16547 0.0573,0.35635 0.23113,0.41433 z"
       id="path92" />
    <path
       style="display:inline;fill:#f2df93;fill-opacity:1;stroke:none;stroke-width:0.107934"
       d="m 118.98003,138.10841 c -0.45608,0.20117 -0.65323,0.77932 -0.90756,1.17431 -0.0809,0.12556 -0.29609,0.40011 -0.0827,0.51526 0.16954,0.0916 0.32672,-0.23433 0.39102,-0.34223 0.20758,-0.34834 0.72186,-0.91643 0.59924,-1.34734 z"
       id="path91" />
    <path
       style="display:inline;fill:#f2df93;fill-opacity:1;stroke:none;stroke-width:0.107934"
       d="m 127.70104,137.33401 v 4.3e-4 c -0.12138,0.002 -0.18102,0.19816 -0.20018,0.2905 -0.0697,0.33616 -0.28565,0.77857 -0.1285,1.10518 0.30308,-0.10878 0.35856,-0.71159 0.3995,-1.00128 0.012,-0.0844 0.0859,-0.35349 -0.0309,-0.38889 -0.0139,-0.004 -0.0273,-0.006 -0.0399,-0.006 z"
       id="path90" />
    <path
       style="display:inline;fill:#f2df93;fill-opacity:1;stroke:none;stroke-width:0.107934"
       d="m 143.05314,136.89975 c 0.1922,0.51066 0.55503,0.9523 0.77778,1.45039 0.0763,0.17062 0.13458,0.44859 0.36175,0.41476 -0.13036,-0.50369 -0.41893,-0.87991 -0.70272,-1.31257 -0.12177,-0.18565 -0.24403,-0.43593 -0.43681,-0.55258 z"
       id="path89" />
    <path
       style="display:inline;fill:#f2df93;fill-opacity:1;stroke:none;stroke-width:0.107934"
       d="m 135.31602,136.48541 c 0.004,0.51153 0.14496,1.21966 0.34563,1.69212 0.17508,-0.14632 0.0922,-0.27912 0.0649,-0.47753 -0.0564,-0.40086 -0.18486,-0.87475 -0.41052,-1.21459 z"
       id="path88" />
    <path
       style="display:inline;fill:#f2df93;fill-opacity:1;stroke:none;stroke-width:0.107934"
       d="m 112.30017,136.03629 c -0.66319,0.53462 -1.32705,1.06862 -1.98644,1.60688 -0.42096,0.34364 -0.8298,0.7488 -1.28246,1.04921 -0.26287,0.17445 -0.65549,0.32381 -0.59542,0.72774 0.0473,0.31823 0.4425,0.0341 0.49322,-0.1374 0.28382,-0.0383 0.64507,-0.49389 0.86344,-0.68831 0.64515,-0.57441 1.30503,-1.17342 2.00383,-1.67728 0.22025,-0.15882 0.77188,-0.50037 0.8554,-0.77948 -0.13204,-0.0239 -0.24915,-0.0584 -0.35157,-0.10136 z"
       id="path87" />
    <path
       style="display:inline;fill:#f2df93;fill-opacity:1;stroke:none;stroke-width:0.107934"
       d="m 120.39522,135.93239 c -0.2225,0.36056 -0.49146,0.6789 -0.76888,0.99577 -0.0719,0.0821 -0.27068,0.27207 -0.19296,0.39949 0.10972,0.17988 0.3407,-0.11206 0.40034,-0.18745 0.27758,-0.35091 0.43783,-0.80245 0.63063,-1.20781 z"
       id="path86" />
    <path
       style="display:inline;fill:#f2df93;fill-opacity:1;stroke:none;stroke-width:0.107934"
       d="m 113.16531,135.40567 c -0.01,0.0104 -0.0193,0.021 -0.028,0.0323 v 4.2e-4 c -0.007,0.0103 -0.0249,0.0404 -0.0259,0.045 v 4.2e-4 h 4.2e-4 c 2.4e-4,-2.1e-4 8.3e-4,-8.2e-4 0.002,-0.002 0.023,-0.0254 0.0394,-0.0506 0.0518,-0.0763 z"
       id="path85" />
    <path
       style="display:inline;fill:#f2df93;fill-opacity:1;stroke:none;stroke-width:0.107934"
       d="m 141.43226,134.4099 c -0.0119,-1e-5 -0.0245,8.2e-4 -0.0373,0.003 0.13748,0.40307 0.4124,0.73462 0.61026,1.10518 0.11536,0.21604 0.23728,0.53753 0.46057,0.65649 0.13752,-0.3726 -0.49262,-1.09615 -0.68916,-1.41647 -0.0889,-0.14497 -0.16562,-0.34801 -0.34436,-0.34818 z"
       id="path84" />
    <path
       style="display:inline;fill:#f2df93;fill-opacity:1;stroke:none;stroke-width:0.107934"
       d="m 145.53958,132.37511 c 0.10011,0.28795 0.43747,0.50203 0.65353,0.70527 0.45238,0.42555 0.93238,0.83461 1.36557,1.27949 0.20957,0.21524 0.50261,0.54301 0.81341,0.57125 -0.0659,-0.27489 -0.38375,-0.49692 -0.58609,-0.6811 -0.49437,-0.45 -0.98445,-0.90452 -1.48517,-1.34776 -0.22816,-0.20196 -0.43597,-0.51658 -0.76125,-0.52715 z"
       id="path83" />
    <path
       style="display:inline;fill:#f2df93;fill-opacity:1;stroke:none;stroke-width:0.107934"
       d="m 110.52577,132.11303 c -0.002,8e-5 -0.004,2.3e-4 -0.007,4.2e-4 -0.0161,0.001 -0.0317,0.007 -0.0492,0.0119 0.0339,0.002 0.0676,0.002 0.10136,-4.2e-4 -0.0147,-0.008 -0.0275,-0.0113 -0.0399,-0.0119 -0.002,-1e-4 -0.004,-9e-5 -0.006,0 z"
       id="path82" />
    <path
       style="display:inline;fill:#f2df93;fill-opacity:1;stroke:none;stroke-width:0.107934"
       d="m 131.83338,131.24109 c -0.028,-6e-5 -0.0605,0.011 -0.098,0.0352 -0.22629,0.1463 -0.0884,0.77574 -0.0933,0.99492 -0.0222,1.00395 0.0668,2.05063 8.2e-4,3.03946 -0.0233,0.34983 -0.11215,0.72611 -0.11663,1.07126 -0.002,0.22209 0.13505,0.4366 0.15734,0.65607 0.0618,0.60754 0.006,1.25605 0.005,1.86515 -7.4e-4,0.70268 -0.0922,1.37541 -0.12426,2.07211 -0.0611,1.32642 -0.0193,2.65124 -0.0411,3.97204 -0.0139,0.83819 0.0187,1.68216 0.004,2.52292 -0.006,0.26515 0.12311,0.66732 -0.0102,0.89653 h 0.002 c 0.15997,0.38001 -0.0658,0.80022 0.0106,1.17515 0.0343,0.16834 0.21672,0.22 0.36854,0.17727 0.28948,-0.0815 0.18292,-0.67715 0.14758,-0.90331 -0.0536,-0.34272 0.0244,-0.78715 0.039,-1.13996 0.0195,-0.46966 -0.0341,-0.94148 -0.0131,-1.41605 0.038,-0.86259 -0.0102,-1.72687 -0.0127,-2.59034 -0.002,-0.91905 0.057,-1.84507 0.007,-2.76338 -0.0149,-0.30082 -0.11061,-0.59864 -0.13104,-0.89781 -0.0675,-0.99024 -0.0727,-2.06504 -0.006,-3.0543 0.0102,-0.15742 0.14755,-0.24894 0.15904,-0.40034 0.0364,-0.47961 -0.11787,-0.9641 -0.0789,-1.44996 0.0786,-0.98615 -0.0153,-2.0107 -0.0127,-3.00215 3.7e-4,-0.13498 0.0657,-0.85996 -0.162,-0.86048 z"
       id="path81" />
    <path
       style="display:inline;fill:#f2df93;fill-opacity:1;stroke:none;stroke-width:0.107934"
       d="m 128.72013,131.16603 -0.31934,1.48516 -0.0607,0.75997 -0.12468,0.37998 -0.16582,1.10519 -0.0204,0.48346 v 0.0348 l -0.1726,0.69084 0.13825,0.13783 h 0.10347 c 0.23238,-0.42368 0.25229,-1.04339 0.31511,-1.51825 0.10488,-0.7929 0.25453,-1.59739 0.40119,-2.38466 0.052,-0.27924 0.29885,-1.14391 -0.0946,-1.17431 z"
       id="path80" />
    <path
       style="display:inline;fill:#f2df93;fill-opacity:1;stroke:none;stroke-width:0.107934"
       d="m 148.68889,131.05067 c -0.0259,0.002 -0.0509,0.006 -0.0742,0.0119 0.0841,0.17616 0.25214,0.27324 0.41476,0.37447 0.38511,0.23971 1.2853,0.9408 1.7269,0.69636 v -0.0348 c -0.29182,-0.31689 -0.69348,-0.45074 -1.07083,-0.63699 -0.15965,-0.0787 -0.30107,-0.19307 -0.48346,-0.19169 -0.099,-0.13948 -0.33155,-0.23173 -0.51315,-0.21925 z"
       id="path79" />
    <path
       style="display:inline;fill:#f2df93;fill-opacity:1;stroke:none;stroke-width:0.107934"
       d="m 133.90125,130.99342 c 0.003,1.01727 0.47471,2.08806 0.69763,3.07382 0.0676,0.29875 0.1177,0.92013 0.40755,1.07083 -1e-4,-1.02694 -0.4292,-2.15132 -0.68533,-3.14294 -0.0744,-0.28837 -0.0904,-0.90478 -0.41985,-1.00171 z"
       id="path78" />
    <path
       style="display:inline;fill:#f2df93;fill-opacity:1;stroke:none;stroke-width:0.107934"
       d="m 126.29942,130.62065 c -0.0955,0.005 -0.16394,0.11086 -0.20145,0.1989 -0.14116,0.33124 -0.28858,0.66315 -0.40925,1.00297 -0.32165,0.90591 -0.6213,1.84808 -0.99576,2.73115 -0.1726,0.40703 -0.59244,1.11303 -0.49746,1.55133 -0.20531,0.11315 -0.42045,0.81586 -0.37999,1.03647 -0.20617,0.12849 -0.28941,0.53333 -0.34351,0.75997 -0.128,0.53616 -0.31401,1.06677 -0.50127,1.58865 -0.0669,0.18637 -0.35602,0.64914 -0.0526,0.7252 0.35454,0.0888 0.45129,-0.58973 0.53775,-0.82741 0.28399,-0.78059 0.69532,-1.53158 0.88168,-2.34988 0.0482,-0.21152 0.20476,-0.39909 0.16879,-0.62214 0.15919,-0.10772 0.16605,-0.2945 0.22265,-0.46353 0.11574,-0.34573 0.26453,-0.6683 0.34012,-1.02164 0.0622,-0.29086 0.2463,-0.54716 0.34055,-0.82868 0.23559,-0.7038 0.44408,-1.4095 0.6743,-2.10688 0.11031,-0.33415 0.21985,-0.66709 0.32825,-1.00171 0.0327,-0.10075 0.0934,-0.28354 -0.0263,-0.35029 -0.0309,-0.0171 -0.0597,-0.0238 -0.0865,-0.0225 z"
       id="path77" />
    <path
       style="display:inline;fill:#f2df93;fill-opacity:1;stroke:none;stroke-width:0.107934"
       d="m 112.69118,130.48282 c -0.0865,0.004 -0.19837,0.0509 -0.23622,0.0751 -0.10422,0.0663 -0.2414,0.14856 -0.37744,0.2413 0.12477,0.0541 0.26137,0.10997 0.39271,0.16794 0.15832,-0.1165 0.31318,-0.25023 0.32994,-0.38337 0.0102,-0.0808 -0.0418,-0.10385 -0.10899,-0.10094 z"
       id="path76" />
    <path
       style="display:inline;fill:#f2df93;fill-opacity:1;stroke:none;stroke-width:0.107934"
       d="m 135.82959,130.46288 c -0.007,3.5e-4 -0.0148,0.002 -0.0225,0.004 -0.21082,0.0605 0.0373,0.42704 0.0878,0.5263 0.25875,0.50968 0.47718,1.04018 0.72986,1.55472 0.81683,1.66334 1.56317,3.36015 2.40969,5.00809 0.19322,0.37612 0.36179,0.7619 0.55514,1.13995 0.0861,0.16843 0.12353,0.37372 0.28668,0.48346 0.007,0.12849 0.21399,0.68036 0.41349,0.42791 0.12331,-0.15602 -0.095,-0.3333 -0.14716,-0.46395 -0.17746,-0.44433 -0.36211,-0.89009 -0.59882,-1.31087 -0.95707,-1.70126 -1.698,-3.54658 -2.59628,-5.28459 -0.27483,-0.53173 -0.55142,-1.0781 -0.79729,-1.62342 -0.046,-0.10191 -0.16315,-0.45632 -0.31298,-0.46141 -0.002,-9e-5 -0.005,-1.2e-4 -0.007,0 z"
       id="path75" />
    <path
       style="display:inline;fill:#f2df93;fill-opacity:1;stroke:none;stroke-width:0.107934"
       d="m 123.90415,129.91962 c -0.0889,-0.002 -0.16906,0.14265 -0.20951,0.2006 -0.19861,0.28437 -0.39921,0.57593 -0.57803,0.8732 -0.55926,0.92974 -1.15927,1.84171 -1.68152,2.7918 -0.19524,0.35517 -0.59925,0.7183 -0.55556,1.14547 0.38325,-0.0609 0.56212,-0.60054 0.75276,-0.8978 0.60474,-0.94295 1.20507,-1.90292 1.77058,-2.86686 0.17404,-0.29666 0.37937,-0.59577 0.53012,-0.9012 0.0396,-0.0801 0.11946,-0.24168 0.0339,-0.31764 -0.021,-0.0188 -0.0423,-0.0272 -0.0628,-0.0276 z"
       id="path74" />
    <path
       style="display:inline;fill:#f2df93;fill-opacity:1;stroke:none;stroke-width:0.107934"
       d="m 146.57691,129.54261 c -0.14632,0.31164 0.59463,0.78709 0.89568,0.74131 0.27855,-0.0424 -0.0922,-0.35819 -0.17048,-0.40246 -0.10075,-0.057 -0.20843,-0.0974 -0.31086,-0.15056 -0.14025,-0.0729 -0.25899,-0.15096 -0.41434,-0.18829 z"
       id="path73" />
    <path
       style="display:inline;fill:#f2df93;fill-opacity:1;stroke:none;stroke-width:0.107934"
       d="m 138.11459,129.33523 c 0.12925,0.5172 0.51559,0.9724 0.79305,1.41688 0.29735,0.47638 0.55361,0.97869 0.86642,1.44997 0.1447,0.218 0.50863,1.07062 0.79305,0.62172 -0.23708,-0.22521 -0.35659,-0.58707 -0.52926,-0.86345 -0.36982,-0.59204 -0.76596,-1.16707 -1.12215,-1.76464 -0.19264,-0.32321 -0.36947,-0.84766 -0.80111,-0.86048 z"
       id="path72" />
    <path
       style="display:inline;fill:#f2df93;fill-opacity:1;stroke:none;stroke-width:0.107934"
       d="m 115.28365,129.01334 c -0.2971,0.0224 -0.64273,0.30415 -0.89738,0.44572 -0.0898,0.0499 -0.22064,0.0694 -0.29602,0.13868 -0.14457,0.13267 0.0248,0.36212 0.19212,0.35624 0.12367,-0.004 0.2388,-0.12221 0.34266,-0.17897 0.26132,-0.14273 0.59414,-0.23746 0.81172,-0.44784 0.1275,-0.12333 0.0184,-0.3268 -0.1531,-0.31383 z"
       id="path71" />
    <path
       style="display:inline;fill:#f2df93;fill-opacity:1;stroke:none;stroke-width:0.107934"
       d="m 121.67088,128.43149 c -0.17816,0.008 -0.59159,0.3309 -0.65012,0.37617 -0.50339,0.38944 -0.97305,0.83344 -1.46355,1.24004 -0.19362,0.16051 -0.53486,0.31497 -0.61196,0.56574 -0.36761,0.0583 -0.73973,0.51183 -1.00467,0.75276 -0.51318,0.46671 -1.07952,0.88109 -1.60603,1.33674 -0.48352,0.4184 -0.97295,0.83134 -1.46608,1.24089 0.0751,0.0818 0.14116,0.1734 0.19889,0.27735 1.55659,-1.28335 3.05674,-2.6581 4.67221,-3.85287 0.53835,-0.39814 1.09782,-0.86063 1.58908,-1.31086 0.13642,-0.125 0.42408,-0.33661 0.42366,-0.54581 -8e-5,-0.0601 -0.0315,-0.0824 -0.0814,-0.0802 z"
       id="path70" />
    <path
       style="display:inline;fill:#f2df93;fill-opacity:1;stroke:none;stroke-width:0.107934"
       d="m 139.80163,128.22156 c -0.0213,6.9e-4 -0.0427,0.003 -0.0636,0.008 0.1671,0.36041 0.57676,0.66933 0.86217,0.93851 0.4226,0.39856 0.80316,0.84454 1.23283,1.23623 0.25797,0.23516 0.64925,0.52039 0.8062,0.83037 0.34212,0.10452 0.76704,0.68776 1.01697,0.95378 0.66687,0.70979 1.4887,1.29555 2.11537,2.03606 0.22356,0.26417 0.74217,0.51419 0.8397,0.84395 0.17822,0.0529 0.28047,0.23311 0.42027,0.35114 0.34684,0.29283 0.65704,0.63649 0.97796,0.96141 1.05112,1.06435 2.21975,2.01022 3.23921,3.09841 0.3307,0.35301 0.69881,0.70798 1.06743,1.02037 0.20752,0.17582 0.37619,0.31852 0.61578,0.12935 -0.27334,-0.42838 -0.72253,-0.78415 -1.08948,-1.12936 -0.54732,-0.51491 -1.11407,-1.0251 -1.65693,-1.54835 -1.84851,-1.78181 -3.67115,-3.58897 -5.52803,-5.3584 -0.5345,-0.50933 -1.13936,-0.98023 -1.65226,-1.50679 -0.74319,-0.76302 -1.54819,-1.46457 -2.31978,-2.20316 -0.20564,-0.19684 -0.56388,-0.67229 -0.8838,-0.662 z"
       id="path69" />
    <path
       style="display:inline;fill:#f2df93;fill-opacity:1;stroke:none;stroke-width:0.107934"
       d="m 140.8784,127.86999 c -0.0254,9e-4 -0.0478,0.0118 -0.0636,0.0373 -0.0564,0.0903 0.0827,0.21498 0.13826,0.26802 0.23703,0.22634 0.47967,0.44901 0.72052,0.67091 0.8046,0.74128 1.62493,1.51534 2.48009,2.19892 0.26482,0.21166 0.52651,0.65391 0.90332,0.60433 -0.068,-0.37501 -0.56233,-0.66404 -0.83462,-0.90756 -0.7836,-0.70083 -1.59113,-1.37513 -2.35285,-2.09586 -0.24175,-0.22873 -0.5111,-0.45011 -0.76973,-0.66073 -0.0405,-0.033 -0.145,-0.11799 -0.22137,-0.11535 z"
       id="path68" />
    <path
       style="display:inline;fill:#f2df93;fill-opacity:1;stroke:none;stroke-width:0.107934"
       d="m 141.38052,126.32164 c -0.0309,0.002 -0.0582,0.017 -0.0767,0.0543 -0.054,0.10828 0.0901,0.19032 0.16158,0.23834 0.24172,0.1623 0.47111,0.33712 0.72477,0.48177 0.7019,0.40027 1.50145,0.85657 2.14166,1.34776 0.29442,0.22588 0.77329,0.62887 1.13996,0.4771 -0.0846,-0.31714 -0.62152,-0.55571 -0.8978,-0.70484 -0.76455,-0.41265 -1.47541,-0.94025 -2.23962,-1.36006 -0.25659,-0.14095 -0.51731,-0.30159 -0.76592,-0.45801 -0.0432,-0.0271 -0.11361,-0.0732 -0.1743,-0.0763 -0.005,-2.4e-4 -0.009,-2.7e-4 -0.0135,0 z"
       id="path67" />
    <path
       style="display:inline;fill:#f2df93;fill-opacity:1;stroke:none;stroke-width:0.107934"
       d="m 119.96816,126.06549 c -0.1375,0.002 -0.30943,0.10043 -0.43511,0.17218 -0.50656,0.28906 -0.99099,0.62389 -1.4856,0.93385 -0.19789,0.12402 -0.50744,0.19416 -0.58737,0.43681 -0.19647,0.007 -0.49712,0.15449 -0.61408,0.31849 -0.0722,0.10131 -0.13803,0.29941 0.0292,0.34776 0.22135,0.0637 0.60636,-0.31051 0.7922,-0.41052 0.85859,-0.46212 1.64048,-1.16446 2.52122,-1.56787 -0.0276,-0.17457 -0.11358,-0.23204 -0.22052,-0.2307 z"
       id="path66" />
    <path
       style="display:inline;fill:#f2df93;fill-opacity:1;stroke:none;stroke-width:0.107934"
       d="m 102.33657,125.86659 c -0.0965,8e-4 -0.19866,0.0187 -0.31552,0.0496 0.005,0.44342 0.61253,0.44438 0.79432,0.10348 -0.17281,-0.10891 -0.31798,-0.15443 -0.4788,-0.1531 z"
       id="path65" />
    <path
       style="display:inline;fill:#f2df93;fill-opacity:1;stroke:none;stroke-width:0.107934"
       d="m 142.74652,124.15962 c -0.0578,0.003 -0.11241,0.0161 -0.16073,0.0458 -0.38531,0.23647 0.34894,0.61854 0.57167,0.6056 0.083,0.13551 0.23737,0.18758 0.37999,0.25191 0.32939,0.14858 0.88171,0.47968 1.24343,0.43851 0.10034,0.1763 0.29378,0.18402 0.46354,0.26591 0.44503,0.21467 0.91211,0.36733 1.36684,0.56022 1.74223,0.73905 3.51717,1.3627 5.25025,2.12894 0.53448,0.23629 1.0908,0.39525 1.623,0.63953 0.17451,0.0801 0.43291,0.19356 0.50763,-0.0721 0.10827,-0.38481 -0.25276,-0.44696 -0.54198,-0.55216 -0.7145,-0.2599 -1.35677,-0.5997 -2.07254,-0.88338 -1.535,-0.60842 -3.03049,-1.21086 -4.55897,-1.84989 -0.70021,-0.29273 -1.37596,-0.66122 -2.10689,-0.88932 -0.4881,-0.15231 -0.96359,-0.39088 -1.45082,-0.5581 -0.14058,-0.0483 -0.34121,-0.13914 -0.51442,-0.13147 z"
       id="path64" />
    <path
       style="display:inline;fill:#f2df93;fill-opacity:1;stroke:none;stroke-width:0.107934"
       d="m 118.68146,123.73171 c -0.0153,-5.7e-4 -0.0307,7.9e-4 -0.0462,0.003 -0.33491,0.052 -0.75063,0.24984 -1.07083,0.37574 -0.94865,0.37301 -1.87749,0.80023 -2.8219,1.18619 -0.0264,0.0674 -0.0596,0.1374 -0.10009,0.2095 -0.008,0.0139 -0.0136,0.0312 -0.0178,0.0505 0.15553,-0.0153 0.31162,-0.0279 0.46735,-0.0407 0.10283,-0.008 0.19995,-0.009 0.29092,-0.005 0.15457,0.008 0.29196,0.0342 0.4118,0.0742 0.41117,-0.17318 0.83031,-0.45115 1.25191,-0.54368 0.49974,-0.10968 1.05394,-0.39901 1.49959,-0.64547 0.21231,-0.11734 0.43829,-0.1797 0.36557,-0.48177 -0.0252,-0.10462 -0.12311,-0.17878 -0.23029,-0.18278 z"
       id="path63" />
    <path
       style="display:inline;fill:#f2df93;fill-opacity:1;stroke:none;stroke-width:0.107934"
       d="m 151.4446,123.33051 c -0.10392,-4.1e-4 -0.19358,0.02 -0.23579,0.0848 -0.17383,0.26691 0.53707,0.30357 0.65013,0.33207 0.49671,0.12528 1.04619,0.1532 1.55726,0.23706 0.24583,0.0404 0.55697,0.1243 0.79433,0.0318 -0.0694,-0.35066 -0.28198,-0.32574 -0.58694,-0.36387 l -1.20909,-0.15352 c -0.16544,-0.0212 -0.31473,-0.0933 -0.48346,-0.10305 -0.10035,-0.006 -0.31324,-0.0646 -0.48644,-0.0653 z"
       id="path62" />
    <path
       style="display:inline;fill:#f2df93;fill-opacity:1;stroke:none;stroke-width:0.107934"
       d="m 148.49463,122.61974 c -0.0688,-0.002 -0.13245,0.005 -0.17897,0.0314 -0.35383,0.19628 0.19589,0.3376 0.29983,0.36387 0.114,0.0288 0.22851,0.0397 0.34521,0.0539 0.16732,0.0203 0.35388,0.0167 0.51824,-0.0195 v -4.2e-4 l 0.17261,0.0691 c 0.0743,-0.52371 -0.46753,-0.42286 -0.8291,-0.45844 -0.0852,-0.009 -0.21327,-0.0369 -0.32782,-0.0399 z"
       id="path61" />
    <path
       style="display:inline;fill:#f2df93;fill-opacity:1;stroke:none;stroke-width:0.107934"
       d="m 117.86295,121.68801 c -0.32677,0.006 -0.73983,0.15285 -0.98941,0.21798 -0.93284,0.2433 -1.91775,0.36756 -2.83208,0.6777 -0.21049,0.0714 -0.64717,0.0928 -0.90416,0.22095 0.0867,0.0912 0.14329,0.20042 0.16709,0.31807 1.18245,-0.33374 2.42118,-0.51439 3.60393,-0.84946 0.3811,-0.108 1.09238,-0.0939 1.24343,-0.5369 -0.0806,-0.0371 -0.17988,-0.0505 -0.2888,-0.0483 z"
       id="path43" />
    <path
       style="display:inline;fill:#f2df93;fill-opacity:1;stroke:none;stroke-width:0.107934"
       d="m 142.92165,121.61337 c -0.1577,-0.002 -0.28565,0.0293 -0.31595,0.1268 -0.0906,0.29103 0.7635,0.35074 0.93257,0.37914 0.71661,0.1204 1.42495,0.29037 2.14124,0.41985 0.37803,0.0683 0.73209,0.17502 1.10518,0.12977 v -4.2e-4 l 0.0691,-0.37999 c -1.04345,-0.27673 -2.17214,-0.26735 -3.21208,-0.54708 -0.112,-0.0301 -0.45729,-0.12486 -0.7201,-0.12807 z"
       id="path42" />
    <path
       style="display:inline;fill:#f2df93;fill-opacity:1;stroke:none;stroke-width:0.210297"
       d="m 74.86952,119.36992 c -1.186314,-0.006 -2.51335,0.061 -3.496758,0.0492 -5.077916,-0.0609 -10.12175,0.0308 -15.208982,-0.0255 -0.918856,-0.01 -2.854298,-0.0631 -3.65938,0.0428 -0.509867,0.067 -1.107339,0.28254 -0.716418,0.42919 0.528746,0.19837 2.510608,0.10228 3.326126,0.0984 3.182414,-0.0152 6.388379,0.004 9.583908,-0.005 6.77014,-0.0219 13.573397,0.0214 20.312445,0.0157 2.306643,-0.001 4.644689,0.006 6.948462,-0.0157 0.863464,-0.008 1.753042,-0.0682 2.622546,-0.0433 3.574955,0.10242 7.875141,0.14962 11.406351,10e-4 0.92612,-0.039 2.08427,0.11389 2.88499,-0.0458 v -8.2e-4 h 0.13209 c 0.57399,0.11455 1.40916,0.0621 2.09773,0.064 1.85185,0.006 3.78761,0.0111 5.63797,-0.0356 0.55167,-0.0139 2.19561,-0.10344 1.35071,-0.35327 -0.36284,-0.1073 -1.62048,-0.0643 -2.13797,-0.0797 -2.29527,-0.0687 -4.76797,-0.0539 -7.08046,-0.0394 -4.22879,0.0262 -8.4848,-0.0492 -12.718439,-0.0237 -3.618327,0.0218 -7.230102,0.0699 -10.82677,0.017 -2.106291,-0.0309 -4.244111,-0.007 -6.349561,0.008 -0.812466,0.006 -1.541251,-0.10023 -2.228134,0.0636 -0.50644,-0.0881 -1.168587,-0.11747 -1.880394,-0.12087 z"
       id="path41" />
    <path
       style="display:inline;fill:#f2df93;fill-opacity:1;stroke:none;stroke-width:0.107934"
       d="m 159.84797,118.98315 c -0.13798,-0.006 -0.3029,0.0233 -0.42197,0.0233 -0.45052,2e-5 -0.90104,7.5e-4 -1.34692,0.003 -1.64356,0.007 -3.26649,0.16297 -4.90461,0.15098 -0.59579,-0.004 -1.19437,-0.0321 -1.79009,0.0157 -0.23404,0.0188 -0.40632,-0.0479 -0.62765,0.0721 -0.1053,-0.14448 -0.42208,-0.0854 -0.58694,-0.0708 -0.53601,0.0477 -1.08525,-0.003 -1.62343,0.008 -1.13769,0.0216 -2.27648,0.009 -3.41944,0.0492 -0.62265,0.0225 -1.20017,0.0635 -1.77186,-0.0106 -0.006,0.007 -0.0107,0.0141 -0.0161,0.0212 -0.0216,0.0474 -0.0496,0.096 -0.0844,0.14546 0.0518,0.0849 0.10598,0.16787 0.16158,0.25022 0.58961,-0.0895 1.23533,0.003 1.81426,0.003 0.98791,0 1.98176,-0.0587 2.97033,-0.0233 0.48318,0.0173 0.96896,0.0103 1.45082,-0.001 0.19788,-0.004 0.45037,0.0567 0.62172,-0.0589 h 0.0344 c 0.15397,0.11664 0.33864,0.0488 0.51824,0.0488 0.44492,0 0.90195,-0.009 1.34692,0.006 0.94596,0.033 1.88451,-0.0322 2.8325,0.008 0.97567,0.0418 1.99856,0.14044 2.97033,0.0305 0.51499,-0.0583 1.08812,-0.0372 1.60858,-0.0212 0.2093,0.007 0.50585,0.0782 0.57041,-0.21671 0.0267,-0.12152 -0.0534,-0.3699 -0.18025,-0.41179 -0.0373,-0.0123 -0.0803,-0.0183 -0.12637,-0.0204 z"
       id="path40" />
    <path
       style="display:inline;fill:#f2df93;fill-opacity:1;stroke:none;stroke-width:0.107934"
       d="m 147.20454,116.6057 c -0.4598,-0.0207 -0.9569,0.1256 -1.39271,0.16031 -0.75323,0.0601 -1.79117,-0.006 -2.48093,0.34054 v 4.2e-4 c 0.10881,0.28444 0.70976,0.15041 0.96692,0.13911 0.83874,-0.0368 1.68596,-0.12191 2.52165,-0.20272 0.29649,-0.0287 0.72485,10e-4 0.82867,-0.35115 -0.14131,-0.0544 -0.29033,-0.0796 -0.4436,-0.0865 z"
       id="path39" />
    <path
       style="display:inline;fill:#f2df93;fill-opacity:1;stroke:none;stroke-width:0.107934"
       d="m 149.95562,116.31095 c -0.0409,0.002 -0.0843,0.0102 -0.1285,0.0263 -0.19236,0.07 -0.98542,0.14979 -1.03309,0.39228 -0.0276,0.14029 0.18302,0.13878 0.27015,0.14165 0.26836,0.008 0.75382,-0.034 1.00128,-0.13529 0.35056,-0.14359 0.17626,-0.43939 -0.10984,-0.42494 z"
       id="path38" />
    <path
       style="display:inline;fill:#f2df93;fill-opacity:1;stroke:none;stroke-width:0.107934"
       d="m 153.48363,116.18627 c -0.0125,3.4e-4 -0.0234,0.001 -0.0327,0.003 -0.44251,0.058 -0.89084,0.0395 -1.33249,0.10051 -0.10392,0.0143 -0.37278,0.0514 -0.37278,0.19465 0,0.1669 0.39223,0.13752 0.49619,0.13529 0.3079,-0.007 0.62628,-0.0555 0.93257,-0.0445 0.21671,0.008 0.53385,0.0712 0.72011,-0.0755 0.2703,-0.21299 -0.15847,-0.3057 -0.36938,-0.31255 -0.015,-4.9e-4 -0.0294,-7.7e-4 -0.0415,-4.2e-4 z"
       id="path37" />
    <path
       style="display:inline;fill:#f2df93;fill-opacity:1;stroke:none;stroke-width:0.107934"
       d="m 111.8786,114.81476 c -0.0634,-2.6e-4 -0.12221,0.0108 -0.16328,0.0424 -0.15387,0.11873 0.007,0.34017 0.1056,0.43639 0.18911,0.18592 0.68756,0.23852 0.94275,0.32485 1.08549,0.36727 2.21561,0.72408 3.33039,0.97244 0.32667,0.0727 0.68498,0.34657 1.02121,0.27439 0.18413,0.25888 0.93827,0.41596 0.89823,-0.0691 -0.34323,-0.022 -0.66975,-0.24072 -1.00171,-0.3274 -1.24976,-0.32634 -2.45356,-0.83224 -3.69552,-1.21078 -0.38279,-0.11664 -0.75541,-0.26989 -1.13996,-0.38804 -0.0728,-0.0224 -0.19194,-0.0547 -0.29771,-0.0551 z"
       id="path36" />
    <path
       style="display:inline;fill:#f2df93;fill-opacity:1;stroke:none;stroke-width:0.107934"
       d="m 109.14911,113.95725 c -0.0341,7.7e-4 -0.0665,0.0114 -0.095,0.0373 -0.1553,0.14118 0.10203,0.34398 0.22137,0.38719 0.36526,0.13225 0.86248,0.36451 1.24301,0.20399 l -0.0691,-0.20696 c -0.35011,-0.0729 -0.67684,-0.25193 -1.0263,-0.338 -0.0753,-0.0185 -0.17208,-0.0784 -0.25912,-0.0831 -0.005,-2.7e-4 -0.01,-5.3e-4 -0.0148,-4.2e-4 z"
       id="path35" />
    <path
       style="display:inline;fill:#f2df93;fill-opacity:1;stroke:none;stroke-width:0.107934"
       d="m 106.1211,113.0815 c -0.0288,-4.9e-4 -0.057,0.005 -0.0848,0.0208 -0.20379,0.11427 -0.0295,0.27808 0.0958,0.34861 0.29592,0.16661 0.64326,0.29242 0.96692,0.39355 0.093,0.029 0.27146,0.0892 0.35752,0.0153 0.13778,-0.11831 -0.15724,-0.26222 -0.22943,-0.30832 -0.26218,-0.16743 -0.56219,-0.27583 -0.85328,-0.38125 -0.0775,-0.028 -0.16639,-0.0871 -0.25276,-0.0886 z"
       id="path34" />
    <path
       style="display:inline;fill:#f2df93;fill-opacity:1;stroke:none;stroke-width:0.107934"
       d="m 108.33358,112.93095 c -0.16791,0.004 -0.22698,0.12852 -0.0882,0.28626 0.20559,0.23373 0.51702,0.22917 0.78838,0.30789 0.37092,0.10759 0.76098,0.30075 1.13953,0.43003 1.50447,0.51376 3.04096,0.96584 4.52463,1.52291 0.48897,0.18359 0.99581,0.32775 1.48516,0.514 0.11321,0.043 0.42459,0.17119 0.5157,0.0305 0.10682,-0.16494 -0.16522,-0.2905 -0.27947,-0.32867 -0.42343,-0.14146 -0.85761,-0.28103 -1.27228,-0.44445 -1.18096,-0.46527 -2.40306,-0.81802 -3.59247,-1.25107 -0.39987,-0.14557 -0.80582,-0.26696 -1.20909,-0.39779 -0.22278,-0.0723 -0.37577,-0.18152 -0.62129,-0.15437 -0.15318,-0.22632 -0.43124,-0.18353 -0.65607,-0.26252 -0.22155,-0.0779 -0.4149,-0.20769 -0.65606,-0.24682 -0.0281,-0.005 -0.0545,-0.006 -0.0785,-0.006 z"
       id="path33" />
    <path
       style="display:inline;fill:#f2df93;fill-opacity:1;stroke:none;stroke-width:0.107934"
       d="m 152.52809,111.19176 c -0.13931,0.003 -0.31532,0.10604 -0.42366,0.14589 -0.43634,0.16044 -0.87434,0.35438 -1.31257,0.50085 -1.97198,0.6591 -3.95928,1.33114 -5.90292,2.08568 -0.50126,0.19461 -1.01444,0.36972 -1.52291,0.55175 -0.2556,0.0915 -0.54221,0.14286 -0.5526,0.45462 l 2.34735,-0.75827 1.9716,-0.66964 1.10221,-0.37744 0.37999,-0.19721 c 0.31766,0.0438 0.77622,-0.21423 1.07083,-0.32697 0.75979,-0.29079 1.54731,-0.50132 2.31427,-0.77015 0.17399,-0.061 0.50361,-0.12004 0.62256,-0.26379 0.0792,-0.0957 0.1394,-0.29155 -0.005,-0.35878 -0.0269,-0.0122 -0.0569,-0.0171 -0.0891,-0.0165 z m -9.71466,3.73879 -0.002,4.3e-4 h 0.002 z"
       id="path32" />
    <path
       style="display:inline;fill:#f2df93;fill-opacity:1;stroke:none;stroke-width:0.107934"
       d="m 146.05689,110.48481 c -0.15271,-0.006 -0.4168,0.14828 -0.48135,0.18957 -0.40962,0.26232 -0.82445,0.52342 -1.24301,0.77227 -0.16744,0.0995 -0.45597,0.22016 -0.51866,0.41009 -0.35868,0.0545 -0.99427,0.51245 -1.2727,0.75022 -0.11714,0.10005 -0.14652,0.39215 0.0657,0.40331 0.2278,0.0125 0.61824,-0.35866 0.81256,-0.4788 0.69168,-0.4276 1.39052,-0.84533 2.08696,-1.26761 0.19925,-0.12082 0.75042,-0.39287 0.65479,-0.70865 -0.0146,-0.0481 -0.0534,-0.0682 -0.10432,-0.0704 z"
       id="path31" />
    <path
       style="display:inline;fill:#f2df93;fill-opacity:1;stroke:none;stroke-width:0.107934"
       d="m 147.84825,109.5446 c -0.32679,0.0164 -0.85981,0.50107 -0.9258,0.72307 0.45275,0.10647 0.77144,-0.36558 1.17431,-0.48346 -0.0244,-0.18071 -0.12064,-0.24605 -0.24851,-0.23961 z"
       id="path30" />
    <path
       style="display:inline;fill:#f2df93;fill-opacity:1;stroke:none;stroke-width:0.107934"
       d="m 109.17116,108.99157 c -0.0936,0.005 -0.1747,0.0597 -0.22264,0.20696 -0.12293,0.37747 0.18202,0.40501 0.4296,0.57888 0.5212,0.36603 1.16281,0.56889 1.70231,0.8995 1.68483,1.03247 3.52929,1.80232 5.24007,2.79688 0.31101,0.18081 0.64992,0.29005 0.96141,0.46014 0.34211,0.18678 0.62888,0.39902 1.00298,0.51357 0.17978,0.055 0.27031,0.26461 0.48812,0.26379 0.27009,-9.9e-4 0.40332,-0.23664 0.18533,-0.42537 -0.33207,-0.2875 -0.80226,-0.44019 -1.18407,-0.64758 -0.17864,-0.097 -0.30432,-0.23756 -0.5212,-0.19297 -0.20737,-0.4672 -1.12414,-0.72827 -1.5509,-0.97625 -0.74547,-0.43317 -1.54483,-0.79348 -2.29433,-1.21248 -0.77909,-0.43553 -1.55059,-0.97487 -2.37152,-1.35412 -0.50106,-0.23149 -1.0039,-0.50845 -1.48559,-0.77651 -0.11837,-0.0658 -0.25922,-0.14103 -0.37957,-0.13444 z"
       id="path26" />
    <path
       style="display:inline;fill:#f2df93;fill-opacity:1;stroke:none;stroke-width:0.107934"
       d="m 115.01726,108.58995 c -0.0549,2.5e-4 -0.10664,0.0202 -0.14631,0.0738 -0.0831,0.11218 -0.0212,0.28271 0.0734,0.3626 0.29259,0.2473 0.71057,0.43343 1.03393,0.6391 1.00565,0.6396 2.0343,1.26451 3.0085,1.95252 0.33969,0.2399 0.9813,0.81164 1.40969,0.79135 l 0.20695,0.0691 c -0.10867,-0.3861 -0.7878,-0.73306 -1.10518,-0.94997 -1.0612,-0.72527 -2.15819,-1.41898 -3.22691,-2.14293 -0.33197,-0.22486 -0.65334,-0.48093 -0.99152,-0.69678 -0.0703,-0.0449 -0.17094,-0.0992 -0.26252,-0.0988 z"
       id="path25" />
    <path
       style="display:inline;fill:#f2df93;fill-opacity:1;stroke:none;stroke-width:0.107934"
       d="m 150.49588,108.19725 c -0.0893,-7e-5 -0.19809,0.0409 -0.25785,0.0734 -0.34618,0.18829 -0.91812,0.39834 -1.07041,0.78796 l 0.31086,0.10391 c 0.20882,-0.21655 0.60639,-0.3472 0.86345,-0.52163 0.10066,-0.0683 0.27617,-0.13301 0.29517,-0.271 0.018,-0.13119 -0.052,-0.17255 -0.14122,-0.1726 z"
       id="path24" />
    <path
       style="display:inline;fill:#f2df93;fill-opacity:1;stroke:none;stroke-width:0.107934"
       d="m 112.3035,106.82319 c -0.0542,4e-4 -0.1083,0.008 -0.162,0.025 0.19659,0.53616 0.93744,0.79789 1.38126,1.10518 0.27774,-0.21708 -0.014,-0.35829 -0.18702,-0.52036 -0.26667,-0.24979 -0.65226,-0.61266 -1.03224,-0.60984 z"
       id="path23" />
    <path
       style="display:inline;fill:#f2df93;fill-opacity:1;stroke:none;stroke-width:0.107934"
       d="m 141.71507,105.66161 c -0.0131,-4.6e-4 -0.0272,3.2e-4 -0.0424,8.2e-4 h -4.3e-4 c -0.3111,0.0198 -0.54219,0.51836 -0.7095,0.73664 -0.60763,0.7927 -1.13449,1.62211 -1.73453,2.41775 -0.15339,0.20337 -0.32918,0.42849 -0.44318,0.65649 -0.0552,0.11051 -0.0735,0.25953 0.0908,0.26718 0.27545,0.0125 0.56139,-0.5514 0.7112,-0.74513 0.64297,-0.83153 1.22902,-1.69684 1.8766,-2.52716 0.0872,-0.11178 0.65836,-0.79237 0.25148,-0.80662 z"
       id="path22" />
    <path
       style="display:inline;fill:#f2df93;fill-opacity:1;stroke:none;stroke-width:0.107934"
       d="m 108.37684,104.31088 c -0.0677,-0.004 -0.14574,0.01 -0.24215,0.0505 0.14883,0.33724 0.58163,0.50919 0.88338,0.69466 0.71781,0.44119 1.45904,1.07603 2.29433,1.27397 -0.07,-0.2298 -0.33214,-0.36961 -0.50891,-0.51867 -0.34768,-0.29317 -0.75883,-0.48862 -1.13445,-0.73876 -0.2435,-0.16217 -0.46424,-0.36367 -0.73664,-0.47541 -0.24101,-0.0989 -0.35235,-0.27379 -0.55556,-0.28626 z"
       id="path21" />
    <path
       style="display:inline;fill:#f2df93;fill-opacity:1;stroke:none;stroke-width:0.107934"
       d="m 142.95045,103.87788 c -0.081,0.1415 -0.18119,0.27244 -0.28457,0.39864 -0.0632,0.0772 -0.14035,0.14153 -0.19466,0.22604 -0.0595,0.0927 -0.17852,0.47186 0.0662,0.37532 0.29499,-0.1162 0.90638,-0.84074 0.41306,-1 z"
       id="path20" />
    <path
       style="display:inline;fill:#f2df93;fill-opacity:1;stroke:none;stroke-width:0.107934"
       d="m 135.09332,103.79518 c -0.0875,-0.003 -0.17184,0.0116 -0.22435,0.0946 -0.0818,0.12946 -0.033,0.35636 -0.07,0.50594 -0.16232,0.65568 -0.16707,1.34324 -0.29899,2.00341 -0.0475,0.23761 -0.10015,0.48403 -0.11831,0.7252 -0.005,0.0653 -0.0421,0.19169 0.025,0.23749 0.13716,0.0935 0.20104,-0.15869 0.22095,-0.23749 0.0829,-0.328 0.15264,-0.66821 0.21459,-1.00128 0.0574,-0.30889 0.11304,-0.62778 0.18448,-0.93258 0.10711,-0.45699 0.21094,-0.91434 0.22137,-1.38169 -0.0487,-0.004 -0.10232,-0.0117 -0.15478,-0.0136 z"
       id="path19" />
    <path
       style="display:inline;fill:#f2df93;fill-opacity:1;stroke:none;stroke-width:0.107934"
       d="m 121.14071,103.42452 c -0.0176,2.4e-4 -0.0357,0.002 -0.0538,0.004 0.0172,0.54207 0.50323,1.15027 0.7604,1.60179 0.20668,0.36288 0.34081,0.78842 0.54538,1.16159 0.41109,0.74981 0.91968,1.52676 1.25022,2.31384 0.4199,-0.0139 0.0634,-0.50444 -0.0259,-0.72519 -0.21129,-0.52233 -0.53027,-0.99636 -0.76083,-1.50977 -0.10977,-0.24443 -0.18488,-0.58679 -0.42197,-0.73537 0.002,-0.21195 -0.1658,-0.43646 -0.26293,-0.62172 -0.21264,-0.40558 -0.48487,-1.49668 -1.03054,-1.48941 z"
       id="path18" />
    <path
       style="display:inline;fill:#f2df93;fill-opacity:1;stroke:none;stroke-width:0.107934"
       d="m 128.10768,102.99746 c -0.0402,10e-4 -0.0855,0.018 -0.13613,0.0526 -0.17521,0.11957 0.046,0.88165 0.0899,1.06956 0.21122,0.90226 0.2581,1.82802 0.4771,2.7286 0.0605,0.24854 0.0755,0.77914 0.35411,0.86345 0.0521,-0.29119 -0.0206,-0.57561 -0.0479,-0.86345 -0.0677,-0.71433 -0.16664,-1.43024 -0.27354,-2.14123 -0.0426,-0.28352 -0.13681,-0.54249 -0.1391,-0.8291 -0.002,-0.1793 -0.0428,-0.8907 -0.32444,-0.88041 z"
       id="path17" />
    <path
       style="display:inline;fill:#f2df93;fill-opacity:1;stroke:none;stroke-width:0.107934"
       d="m 144.74308,101.8838 c -0.0427,-4.9e-4 -0.0838,0.006 -0.11917,0.0255 -0.12123,0.0676 -0.20059,0.23583 -0.27735,0.34521 -0.19963,0.28448 -0.56791,0.63747 -0.53266,1.0017 0.44821,-0.0248 1.01578,-0.9455 1.13953,-1.34691 -0.0635,-0.005 -0.13924,-0.0246 -0.21035,-0.0255 z"
       id="path16" />
    <path
       style="display:inline;fill:#f2df93;fill-opacity:1;stroke:none;stroke-width:0.107934"
       d="m 135.55473,101.51187 c -0.32902,0.0171 -0.48546,0.69625 -0.35497,0.97457 0.11855,0.25283 0.30792,-0.0761 0.33842,-0.19721 0.0261,-0.10354 0.0368,-0.20773 0.0666,-0.31086 0.0428,-0.14851 0.0356,-0.29752 0.0577,-0.44911 -0.0376,-0.0136 -0.0737,-0.0191 -0.10771,-0.0174 z"
       id="path15" />
    <path
       style="display:inline;fill:#f2df93;fill-opacity:1;stroke:none;stroke-width:0.107934"
       d="m 115.29631,101.01357 c -0.0409,0.002 -0.0748,0.0206 -0.0844,0.0721 -0.0307,0.1648 0.18461,0.41407 0.27906,0.52715 0.28588,0.34228 0.67654,0.68934 0.91518,1.05514 0.471,0.72197 1.11026,1.34625 1.66244,2.00552 0.9056,1.08126 1.77952,2.20077 2.72181,3.25151 0.36132,0.40292 0.69411,0.83507 1.05005,1.24344 0.22753,0.26101 0.40112,0.48663 0.76592,0.37404 -0.0286,-0.36617 -0.40706,-0.67062 -0.64208,-0.91858 -0.34062,-0.35934 -0.65444,-0.81068 -0.97372,-1.19848 -0.15517,-0.18848 -0.37616,-0.34151 -0.45631,-0.57719 -0.23703,-0.0686 -0.38099,-0.40012 -0.53097,-0.58694 -0.36146,-0.45026 -0.77445,-0.85436 -1.14378,-1.2939 -0.17057,-0.20301 -0.29333,-0.49079 -0.57039,-0.57125 0.007,-0.30281 -0.45788,-0.66918 -0.6548,-0.87829 -0.5934,-0.63014 -1.23511,-1.32089 -1.74344,-2.02037 -0.11129,-0.15314 -0.27137,-0.34849 -0.43978,-0.44021 -0.0382,-0.0208 -0.10229,-0.0462 -0.1548,-0.0437 z"
       id="path14" />
    <path
       style="display:inline;fill:#f2df93;fill-opacity:1;stroke:none;stroke-width:0.107934"
       d="m 119.53256,99.974967 c -0.10719,0.03763 -0.2405,0.07808 -0.25954,0.208653 -0.0224,0.15399 0.11411,0.27976 0.1637,0.41434 0.13305,0.36114 0.40718,1.24995 0.78669,1.38041 0.0524,-0.4175 -0.19914,-0.80163 -0.36854,-1.1743 -0.12159,-0.26751 -0.19575,-0.55796 -0.32231,-0.829103 z"
       id="path13" />
    <path
       style="display:inline;fill:#f2df93;fill-opacity:1;stroke:none;stroke-width:0.107934"
       d="m 127.55848,99.525854 c -0.004,6.2e-5 -0.009,8.21e-4 -0.0131,8.21e-4 -0.13458,0.01254 -0.22057,0.152121 -0.21501,0.27566 0.016,0.355425 0.15148,0.758075 0.23156,1.105185 0.0216,0.0935 0.0749,0.3727 0.2167,0.34817 0.11832,-0.0205 0.0531,-0.30076 0.0577,-0.38253 0.0186,-0.33344 -0.0474,-0.73881 -0.10305,-1.070825 -0.017,-0.101654 -0.0398,-0.278405 -0.17473,-0.276508 z"
       id="path12" />
    <path
       style="display:inline;fill:#f2df93;fill-opacity:1;stroke:none;stroke-width:0.107934"
       d="m 136.0085,98.800659 c -0.22388,0.504048 -0.43676,1.347351 -0.34563,1.899501 0.32814,-0.185 0.39497,-0.93738 0.49491,-1.277783 0.0365,-0.124305 0.13171,-0.314755 0.0988,-0.445721 -0.0289,-0.114968 -0.14804,-0.152126 -0.24809,-0.175997 z"
       id="path11" />
    <path
       style="display:inline;fill:#f2df93;fill-opacity:1;stroke:none;stroke-width:0.107934"
       d="m 110.18432,98.746798 c -0.15648,0.0036 -0.29812,0.139706 -0.25997,0.32443 0.0542,0.262672 0.41729,0.475841 0.58949,0.659038 0.55529,0.590784 1.16102,1.121754 1.71587,1.711204 1.278,1.35773 2.64103,2.66952 4.00469,3.94023 0.91663,0.85417 1.72784,1.82891 2.67687,2.64973 0.71406,0.6176 1.34105,1.36079 2.03266,2.00764 0.13657,0.12779 0.53797,0.65017 0.75361,0.50382 0.2009,-0.13629 -0.22892,-0.49189 -0.31976,-0.58609 -0.52259,-0.54189 -1.03897,-1.09025 -1.57423,-1.61791 -0.90229,-0.8895 -1.74303,-1.83552 -2.64378,-2.7269 -0.7155,-0.70804 -1.49436,-1.3824 -2.1599,-2.12428 -0.48115,-0.53633 -0.98517,-1.05979 -1.50933,-1.55811 -0.18946,-0.1801 -0.35029,-0.46168 -0.62342,-0.50382 -0.0538,-0.33897 -0.51188,-0.59721 -0.74725,-0.81552 -0.46398,-0.43036 -0.86445,-0.924105 -1.32486,-1.363882 -0.15252,-0.145695 -0.27498,-0.341348 -0.45547,-0.455898 -0.0492,-0.03125 -0.10306,-0.0449 -0.15522,-0.04368 z"
       id="path10" />
    <path
       style="display:inline;fill:#f2df93;fill-opacity:1;stroke:none;stroke-width:0.107934"
       d="m 153.51202,98.010576 c -0.20455,0.01112 -0.48502,0.302409 -0.56066,0.388467 -0.55406,0.630609 -1.26857,1.147601 -1.78627,1.811297 -0.14725,0.18878 -0.43649,0.3066 -0.47752,0.55895 -0.21217,0.0631 -0.34466,0.26278 -0.49958,0.41052 -0.37207,0.35487 -0.72314,0.72959 -1.08525,1.09458 -1.30941,1.31983 -2.64532,2.62047 -3.91224,3.98349 -0.33124,0.35637 -0.67794,0.722 -1.03987,1.04962 -0.18061,0.16347 -0.50425,0.39667 -0.54369,0.64589 -0.26581,0.0746 -0.46232,0.37856 -0.65606,0.56701 -0.51447,0.50041 -1.02914,1.01116 -1.50553,1.54836 -0.14885,0.16785 -0.35778,0.30021 -0.48431,0.48516 -0.0785,0.11469 -0.0244,0.23709 0.12383,0.2218 0.24101,-0.0248 0.49695,-0.43956 0.67261,-0.59754 0.62341,-0.56066 1.18636,-1.18751 1.80493,-1.75277 2.55585,-2.33568 4.88088,-4.9262 7.3512,-7.32491 0.74044,-0.71897 1.51216,-1.380139 2.20994,-2.146745 0.18781,-0.206343 0.70699,-0.438957 0.57676,-0.798564 -0.04,-0.11042 -0.10825,-0.148965 -0.18829,-0.144615 z"
       id="path9" />
    <path
       style="display:inline;fill:#f2df93;fill-opacity:1;stroke:none;stroke-width:0.107934"
       d="m 117.97869,97.62635 c 5e-5,0.420879 0.32299,1.224315 0.72519,1.41604 0.1367,-0.466798 -0.36113,-0.940045 -0.44868,-1.381689 z"
       id="path8" />
    <path
       style="display:inline;fill:#f2df93;fill-opacity:1;stroke:none;stroke-width:0.107934"
       d="m 141.65061,96.269258 c -0.007,-2.24e-4 -0.0123,1e-6 -0.0186,4.24e-4 h -4.2e-4 c -0.22727,0.01528 -0.43506,0.452708 -0.47753,0.596696 -0.23135,0.784361 -0.56305,1.578161 -0.86175,2.347345 -0.10561,0.271952 -0.36812,0.676827 -0.31171,0.968627 h -8.2e-4 c -0.16649,0.0971 -0.20632,0.27707 -0.27565,0.44911 -0.15601,0.38707 -0.27634,0.78851 -0.42833,1.17473 -0.61063,1.55175 -1.17914,3.14063 -1.85752,4.66246 -0.20544,0.46082 -0.31833,0.9653 -0.53181,1.41604 -0.0495,0.10437 -0.18507,0.39768 -0.0382,0.47583 0.14862,0.0792 0.26538,-0.12628 0.31425,-0.2341 0.16654,-0.3676 0.33365,-0.75732 0.47159,-1.13656 0.42705,-1.17414 0.89599,-2.35304 1.38593,-3.49154 0.18732,-0.43531 0.66868,-1.18215 0.57973,-1.6582 0.28396,-0.14312 0.4612,-0.879 0.56574,-1.17431 0.361,-1.019912 0.75809,-2.087387 1.27142,-3.03946 0.15228,-0.282405 0.25541,-0.628197 0.36006,-0.932577 0.0358,-0.103821 0.0883,-0.268152 -0.007,-0.358357 -0.0458,-0.04371 -0.0937,-0.064 -0.13953,-0.06615 z"
       id="path7" />
    <path
       style="display:inline;fill:#f2df93;fill-opacity:1;stroke:none;stroke-width:0.107934"
       d="m 122.48635,96.217096 c -0.0741,0.0042 -0.14579,0.03255 -0.18956,0.08779 -0.13318,0.167603 0.0869,0.597707 0.14207,0.768878 0.22905,0.711114 0.42513,1.442529 0.68788,2.14166 1.05148,2.797816 1.86656,5.692556 2.93385,8.496236 h 0.10348 c 0.11543,-0.48481 -0.14714,-1.03099 -0.29559,-1.48516 -0.27664,-0.84649 -0.5146,-1.70815 -0.77863,-2.556 -0.0977,-0.31373 -0.17338,-1.05298 -0.44529,-1.24344 0.0909,-0.43618 -0.31089,-1.20234 -0.45802,-1.62342 -0.39266,-1.123699 -0.73282,-2.281733 -1.06702,-3.419442 -0.0994,-0.338314 -0.19459,-0.774101 -0.39229,-1.067861 -0.0468,-0.06953 -0.14562,-0.104581 -0.24088,-0.09924 z"
       id="path6" />
    <path
       style="display:inline;fill:#f2df93;fill-opacity:1;stroke:none;stroke-width:0.107934"
       d="m 126.42277,95.125062 c -0.0392,0.0015 -0.0798,0.0073 -0.12044,0.01442 0.007,0.317349 0.0502,0.659476 0.12892,0.966928 0.0558,0.218216 0.0735,0.434758 0.10984,0.656069 0.0372,0.226828 0.0641,0.468343 0.13444,0.687451 0.0215,0.06704 0.0744,0.189882 0.16751,0.136133 0.15674,-0.09044 0.0569,-0.537567 0.0395,-0.684906 -0.0451,-0.381736 -0.0886,-0.758739 -0.12553,-1.139958 -0.0157,-0.162126 0.008,-0.366476 -0.0806,-0.511877 -0.0546,-0.08964 -0.13035,-0.120188 -0.21502,-0.124259 -0.0127,-6.16e-4 -0.0255,-4.95e-4 -0.0386,0 z"
       id="path4" />
    <path
       style="display:inline;fill:#f2df93;fill-opacity:1;stroke:none;stroke-width:0.107934"
       d="m 131.34477,91.660661 c -0.28876,0.0053 -0.20474,0.533579 -0.20696,0.715866 -0.009,0.784347 0.0578,1.566787 0.014,2.348192 -0.0656,1.175838 0.002,2.374696 0.0186,3.557277 0.0201,1.506429 -0.072,3.018634 0.003,4.525054 0.0325,0.64194 0.0222,1.29048 0.0335,1.93385 0.003,0.17874 -0.082,0.54655 0.0687,0.6565 l 4.3e-4,10e-4 v 0.0344 c -0.10264,0.12877 -0.0426,0.2604 -0.0577,0.41476 -0.0408,0.41531 0.007,0.82982 -0.01,1.24641 -8.2e-4,0.0322 -0.003,0.0644 -0.005,0.0967 0.0219,-0.01 0.0448,-0.0188 0.0687,-0.0276 0.13546,-0.0497 0.27067,-0.10041 0.40458,-0.15436 -0.13634,-1.09154 0.0278,-2.21557 -0.008,-3.3041 -0.0825,-2.59271 0.0273,-5.207097 0.0148,-7.80582 -0.005,-1.086775 0.005,-2.170504 0.005,-3.246842 1e-5,-0.299294 0.14651,-0.9976 -0.34351,-0.991525 z"
       id="path3" />
    <path
       style="display:inline;fill:#f2df93;fill-opacity:1;stroke:none;stroke-width:0.107934"
       d="m 131.42069,87.577087 c -0.0744,-4.6e-4 -0.15486,0.05255 -0.19424,0.140799 -0.084,0.187893 -0.0364,0.486166 -0.0297,0.687451 0.0171,0.513886 0.006,1.008072 0.0149,1.519519 0.004,0.245613 0.006,0.530147 0.3062,0.553015 v -4.24e-4 c 0.002,-0.364889 0.0785,-0.741157 0.0466,-1.105182 -0.0224,-0.25559 8.2e-4,-0.536125 0.0157,-0.794323 0.0144,-0.258517 0.0511,-0.611321 -0.01,-0.863025 -0.0231,-0.09552 -0.0841,-0.137424 -0.1497,-0.13783 z"
       id="path1" />
  </g>
</svg>
