<!-- <?xml version="1.0" encoding="UTF-8" standalone="no"?> -->
<!-- Created with Inkscape (http://www.inkscape.org/) -->

<svg
   width="3.5012791mm"
   height="4.1111283mm"
   viewBox="0 0 3.5012791 4.1111283"
   version="1.1"
   id="svg1"
   inkscape:version="1.4.2 (ebf0e940d0, 2025-05-08)"
   sodipodi:docname="star_4.svg"
   xmlns:inkscape="http://www.inkscape.org/namespaces/inkscape"
   xmlns:sodipodi="http://sodipodi.sourceforge.net/DTD/sodipodi-0.dtd"
   xmlns="http://www.w3.org/2000/svg"
   xmlns:svg="http://www.w3.org/2000/svg">
  <sodipodi:namedview
     id="namedview1"
     pagecolor="#ffffff"
     bordercolor="#000000"
     borderopacity="0.25"
     inkscape:showpageshadow="2"
     inkscape:pageopacity="0.0"
     inkscape:pagecheckerboard="0"
     inkscape:deskcolor="#d1d1d1"
     inkscape:document-units="mm"
     inkscape:zoom="0.80087682"
     inkscape:cx="73.669256"
     inkscape:cy="23.099682"
     inkscape:window-width="2700"
     inkscape:window-height="1128"
     inkscape:window-x="0"
     inkscape:window-y="0"
     inkscape:window-maximized="1"
     inkscape:current-layer="layer1" />
  <defs
     id="defs1" />
  <g
     inkscape:label="Layer 1"
     inkscape:groupmode="layer"
     id="layer1"
     transform="translate(-85.725,-142.34596)">
    <path
       style="display:inline;fill:#FFFFFF;stroke-width:0.0738758"
       d="m 87.47638,146.40717 c -8.4e-4,-0.0423 -0.0108,-0.0768 -0.0221,-0.0768 -0.0113,0 -0.0277,-0.0536 -0.0364,-0.11915 -0.0164,-0.12328 -0.0568,-0.23545 -0.0849,-0.23545 -0.009,0 -0.0293,-0.0452 -0.0455,-0.10047 -0.0418,-0.14279 -0.12252,-0.27088 -0.25955,-0.41199 -0.0654,-0.0673 -0.1076,-0.12615 -0.0939,-0.13074 0.0826,-0.0275 -0.64166,-0.59933 -0.89532,-0.7069 -0.0423,-0.0179 -0.0769,-0.038 -0.0769,-0.0445 -7e-5,-0.007 -0.0432,-0.0144 -0.0958,-0.0174 -0.0526,-0.003 -0.11079,-0.0206 -0.12926,-0.039 -0.029,-0.029 -0.0111,-0.0358 0.13126,-0.0501 0.11017,-0.0111 0.16484,-0.0267 0.16484,-0.047 0,-0.0168 0.0452,-0.0522 0.10047,-0.0788 0.12087,-0.0581 0.26526,-0.16471 0.57117,-0.42166 0.20237,-0.16996 0.23964,-0.21353 0.31345,-0.36642 0.20941,-0.43376 0.36241,-0.90629 0.36241,-1.11928 0,-0.0439 0.01,-0.0857 0.0212,-0.0929 0.0256,-0.0158 0.0498,0.041 0.0498,0.11697 0,0.0527 0.0654,0.27873 0.17094,0.59071 0.0928,0.27424 0.20982,0.4818 0.38411,0.68116 0.0947,0.10829 0.2133,0.22914 0.26362,0.26857 0.2211,0.17324 0.55693,0.38464 0.63398,0.3991 0.0462,0.009 0.084,0.0252 0.084,0.0368 0,0.0116 0.0532,0.021 0.1182,0.021 0.12102,0 0.17067,0.0458 0.0532,0.0491 -0.0357,0.001 -0.081,0.006 -0.10047,0.0106 -0.0195,0.005 -0.0674,0.0149 -0.10638,0.0225 -0.039,0.008 -0.15761,0.0403 -0.26356,0.0728 -0.15414,0.0473 -0.19529,0.0697 -0.2059,0.11195 -0.007,0.0291 -0.0692,0.0952 -0.13751,0.14707 -0.27793,0.2108 -0.4916,0.44268 -0.59874,0.64978 -0.071,0.13717 -0.1976,0.5588 -0.21496,0.71572 -0.0202,0.18227 -0.0531,0.28036 -0.0553,0.16488 z m 0.0675,-0.63237 c 0.046,-0.13878 0.17926,-0.41827 0.22546,-0.47281 0.022,-0.026 0.0331,-0.0313 0.0247,-0.0118 -0.008,0.0195 0.006,0.0114 0.0318,-0.018 0.1402,-0.15887 0.35911,-0.40493 0.44999,-0.5058 0.14027,-0.15568 0.32124,-0.28482 0.40503,-0.28904 0.0843,-0.004 0.15609,-0.0618 0.077,-0.0618 -0.0277,0 -0.0644,-0.0138 -0.0816,-0.0307 -0.0172,-0.0169 -0.0844,-0.0664 -0.14944,-0.11008 -0.065,-0.0437 -0.164,-0.11616 -0.21997,-0.16109 -0.056,-0.0449 -0.107,-0.0764 -0.1134,-0.0701 -0.006,0.006 0.0447,0.052 0.11358,0.10131 0.22111,0.15833 0.19564,0.16477 -0.0604,0.0153 -0.10715,-0.0625 -0.17117,-0.12587 -0.28368,-0.28056 -0.19733,-0.27132 -0.41482,-0.69243 -0.45503,-0.88105 -0.0178,-0.0837 -0.0441,-0.16348 -0.0584,-0.1773 -0.0187,-0.018 -0.0241,-0.0118 -0.0193,0.0222 0.009,0.0597 -0.0479,0.22878 -0.0867,0.26004 -0.0162,0.013 -0.0538,0.0981 -0.0835,0.18912 -0.0579,0.17697 -0.22615,0.45721 -0.40931,0.68178 -0.15365,0.18839 -0.24263,0.26668 -0.37287,0.32807 -0.0608,0.0287 -0.10549,0.0604 -0.0992,0.0705 0.006,0.0101 -0.004,0.0125 -0.0229,0.005 -0.0189,-0.007 -0.0413,-0.002 -0.0499,0.0121 -0.009,0.0139 -0.002,0.0256 0.0153,0.026 0.0475,0.001 -0.0537,0.0702 -0.10285,0.0702 -0.0276,0 -0.0374,0.0121 -0.0284,0.0355 0.01,0.0252 -0.003,0.0358 -0.0421,0.0368 -0.0396,9.2e-4 -0.0215,0.0151 0.0622,0.0491 0.0649,0.0263 0.12337,0.0557 0.13002,0.0653 0.007,0.01 0.0653,0.0427 0.13029,0.0734 0.065,0.0307 0.12579,0.0672 0.13507,0.0811 0.009,0.0139 0.0226,0.0226 0.0296,0.0194 0.041,-0.0191 0.0866,0.006 0.19175,0.10638 0.11274,0.10742 0.40618,0.51731 0.49504,0.69148 0.0797,0.15616 0.15734,0.26546 0.17413,0.24503 0.009,-0.0113 0.0309,-0.063 0.0481,-0.11501 z m -0.8491,-0.82508 c 0,-0.005 -0.0399,-0.032 -0.0887,-0.0596 l -0.0887,-0.0501 0.0709,0.0594 c 0.0651,0.0545 0.10638,0.074 0.10638,0.0502 z m -0.65601,-0.45533 c -0.0162,-0.007 -0.0428,-0.007 -0.0591,0 -0.0163,0.007 -0.003,0.0119 0.0295,0.0119 0.0325,0 0.0458,-0.005 0.0296,-0.0119 z m 0.70631,-0.49852 c 0.0294,-0.0375 0.0286,-0.0383 -0.009,-0.009 -0.0228,0.0178 -0.0414,0.0365 -0.0414,0.0414 0,0.0195 0.0194,0.007 0.0503,-0.0324 z m 1.4154,0.0337 c 0,-0.004 -0.0293,-0.0335 -0.065,-0.065 l -0.065,-0.0573 0.0573,0.065 c 0.0536,0.0608 0.0727,0.0759 0.0727,0.0573 z"
       id="path1-5" />
  </g>
</svg>
