<?xml version="1.0" encoding="UTF-8" standalone="no"?>
<!-- Created with Inkscape (http://www.inkscape.org/) -->

<svg
   width="1.0646601mm"
   height="2.6627774mm"
   viewBox="0 0 1.0646601 2.6627774"
   version="1.1"
   id="svg1"
   inkscape:version="1.4.2 (ebf0e940d0, 2025-05-08)"
   sodipodi:docname="star_8.svg"
   xmlns:inkscape="http://www.inkscape.org/namespaces/inkscape"
   xmlns:sodipodi="http://sodipodi.sourceforge.net/DTD/sodipodi-0.dtd"
   xmlns="http://www.w3.org/2000/svg"
   xmlns:svg="http://www.w3.org/2000/svg">
  <sodipodi:namedview
     id="namedview1"
     pagecolor="#ffffff"
     bordercolor="#000000"
     borderopacity="0.25"
     inkscape:showpageshadow="2"
     inkscape:pageopacity="0.0"
     inkscape:pagecheckerboard="0"
     inkscape:deskcolor="#d1d1d1"
     inkscape:document-units="mm"
     inkscape:zoom="0.80087682"
     inkscape:cx="-87.404202"
     inkscape:cy="19.353788"
     inkscape:window-width="2700"
     inkscape:window-height="1128"
     inkscape:window-x="0"
     inkscape:window-y="0"
     inkscape:window-maximized="1"
     inkscape:current-layer="layer1" />
  <defs
     id="defs1" />
  <g
     inkscape:label="Layer 1"
     inkscape:groupmode="layer"
     id="layer1"
     transform="translate(-128.32292,-143.40383)">
    <path
       style="display:inline;fill:#FFFFFF;stroke-width:0.0738758"
       d="m 128.87165,145.89225 c -0.007,-0.0943 -0.0217,-0.315 -0.0324,-0.49053 -0.0175,-0.28664 -0.0271,-0.3354 -0.0943,-0.47872 -0.0577,-0.12325 -0.0862,-0.15957 -0.12485,-0.15957 -0.0275,0 -0.0693,-0.0103 -0.0928,-0.0229 -0.0262,-0.014 -0.0712,-0.0147 -0.11633,-0.002 -0.0434,0.0124 -0.079,0.0124 -0.0867,-7e-5 -0.007,-0.0117 0.0139,-0.028 0.047,-0.0363 0.033,-0.008 0.0601,-0.0228 0.0601,-0.0323 0,-0.01 0.043,-0.0189 0.0956,-0.0209 0.21279,-0.008 0.30529,-0.24633 0.32772,-0.84324 l 0.0151,-0.40189 0.0179,0.28369 c 0.0324,0.51228 0.0418,0.58937 0.0906,0.73923 0.0557,0.17119 0.11815,0.2182 0.28974,0.2182 0.12771,0 0.16358,0.0375 0.056,0.0585 -0.15119,0.0295 -0.25342,0.0916 -0.28284,0.17178 -0.0197,0.0538 -0.0342,0.0679 -0.0486,0.0473 -0.0131,-0.0188 -0.0156,-0.0116 -0.007,0.0199 0.008,0.0271 -0.003,0.0949 -0.0221,0.15073 -0.027,0.0765 -0.0358,0.20832 -0.0358,0.53584 0,0.43795 -0.0318,0.58683 -0.0561,0.26298 z"
       id="path57" />
  </g>
</svg>
