<?xml version="1.0" encoding="UTF-8" standalone="no"?>
<!-- Created with Inkscape (http://www.inkscape.org/) -->

<svg
   width="4.1128435mm"
   height="3.9913175mm"
   viewBox="0 0 4.1128435 3.9913175"
   version="1.1"
   id="svg1"
   inkscape:version="1.4.2 (ebf0e940d0, 2025-05-08)"
   sodipodi:docname="star_9.svg"
   xmlns:inkscape="http://www.inkscape.org/namespaces/inkscape"
   xmlns:sodipodi="http://sodipodi.sourceforge.net/DTD/sodipodi-0.dtd"
   xmlns="http://www.w3.org/2000/svg"
   xmlns:svg="http://www.w3.org/2000/svg">
  <sodipodi:namedview
     id="namedview1"
     pagecolor="#ffffff"
     bordercolor="#000000"
     borderopacity="0.25"
     inkscape:showpageshadow="2"
     inkscape:pageopacity="0.0"
     inkscape:pagecheckerboard="0"
     inkscape:deskcolor="#d1d1d1"
     inkscape:document-units="mm"
     inkscape:zoom="0.80087682"
     inkscape:cx="83.658308"
     inkscape:cy="38.08326"
     inkscape:window-width="2700"
     inkscape:window-height="1128"
     inkscape:window-x="0"
     inkscape:window-y="0"
     inkscape:window-maximized="1"
     inkscape:current-layer="layer1" />
  <defs
     id="defs1" />
  <g
     inkscape:label="Layer 1"
     inkscape:groupmode="layer"
     id="layer1"
     transform="translate(-82.814586,-138.37705)">
    <path
       style="display:inline;fill:#FFFFFF;stroke-width:0.0738758"
       d="m 85.84706,142.36501 c -0.0997,-0.0105 -0.31766,-0.0767 -0.4018,-0.12206 -0.039,-0.021 -0.13424,-0.0999 -0.21173,-0.17544 -0.11399,-0.11107 -0.15151,-0.1346 -0.19659,-0.12329 -0.16401,0.0412 -0.45306,0.053 -0.6674,0.0274 -0.24284,-0.029 -0.66577,-0.20721 -0.85105,-0.35857 -0.12547,-0.1025 -0.38627,-0.39219 -0.43113,-0.4789 -0.0294,-0.0569 -0.0785,-0.15231 -0.10913,-0.21212 -0.2358,-0.4609 -0.21418,-1.17428 0.0481,-1.58828 0.0366,-0.0578 0.0666,-0.1166 0.0666,-0.13066 0,-0.0141 0.0319,-0.0605 0.0709,-0.10321 0.039,-0.0427 0.0709,-0.081 0.0709,-0.0851 0,-0.0198 0.19074,-0.20406 0.29674,-0.28665 0.10206,-0.0795 0.29458,-0.18056 0.47157,-0.24748 0.26644,-0.10075 0.28771,-0.10463 0.56736,-0.10346 0.15603,6.7e-4 0.32092,0.008 0.36643,0.0156 0.24385,0.0424 0.49973,0.15027 0.72896,0.3072 0.14358,0.0983 0.43211,0.39771 0.48784,0.50625 0.0256,0.0499 0.0695,0.12831 0.0975,0.17419 0.0423,0.0695 0.0924,0.22986 0.16582,0.53123 0.0149,0.0612 0.015,0.45708 1.5e-4,0.52502 -0.009,0.0401 0.007,0.0637 0.0687,0.10177 0.16897,0.10442 0.33358,0.33473 0.41279,0.57753 0.0644,0.19745 0.0175,0.53636 -0.10638,0.76849 -0.0338,0.0634 -0.17851,0.22116 -0.26583,0.2899 -0.15874,0.12497 -0.47102,0.21258 -0.67938,0.19062 z m 0.4228,-0.15214 c 0.10305,-0.0396 0.18758,-0.0974 0.29743,-0.20312 0.0844,-0.0813 0.14494,-0.14775 0.13454,-0.14775 -0.0104,0 -0.003,-0.0164 0.0177,-0.0366 0.0468,-0.0468 0.10391,-0.23901 0.12231,-0.41149 0.0149,-0.13945 -0.0171,-0.28977 -0.0994,-0.46708 -0.0365,-0.0786 -0.30312,-0.36144 -0.34072,-0.36144 -0.008,0 -0.0387,0.0805 -0.0689,0.17889 -0.0302,0.0984 -0.0673,0.19147 -0.0824,0.20685 -0.0151,0.0154 -0.0522,0.0792 -0.0824,0.14189 -0.0707,0.14675 -0.4522,0.52862 -0.60657,0.6071 -0.0639,0.0325 -0.12156,0.0654 -0.12806,0.0731 -0.007,0.008 -0.0624,0.0331 -0.12411,0.0564 -0.0618,0.0233 -0.11191,0.0489 -0.11144,0.0569 0.002,0.0365 0.11761,0.14362 0.24194,0.22448 0.24526,0.15949 0.55,0.18953 0.83012,0.0818 z m -1.38023,-0.33506 c 0.11356,-0.0223 0.15123,-0.0391 0.14433,-0.0644 -0.005,-0.0188 -0.0291,-0.1031 -0.0532,-0.18734 -0.0717,-0.25013 -0.0457,-0.49527 0.0779,-0.73666 0.0771,-0.1506 0.35218,-0.4056 0.46926,-0.43503 0.007,-0.002 0.0437,-0.0164 0.0827,-0.0327 0.12101,-0.0508 0.45917,-0.0595 0.58978,-0.0152 0.0627,0.0213 0.12047,0.032 0.12849,0.0239 0.008,-0.008 0.0132,-0.14474 0.0116,-0.30363 -0.002,-0.21574 -0.0127,-0.30768 -0.0414,-0.36312 -0.0211,-0.0408 -0.0384,-0.0944 -0.0384,-0.11895 0,-0.0579 -0.18024,-0.40081 -0.27186,-0.51726 -0.1526,-0.19395 -0.37309,-0.38439 -0.53191,-0.45941 -0.0585,-0.0276 -0.11216,-0.0594 -0.11923,-0.0706 -0.007,-0.0112 -0.0337,-0.0242 -0.0591,-0.029 -0.10142,-0.0192 -0.18961,-0.0474 -0.21822,-0.07 -0.0165,-0.0131 -0.036,-0.0179 -0.0431,-0.0107 -0.007,0.007 -0.0447,0.004 -0.0834,-0.007 -0.0871,-0.025 -0.45237,-0.0319 -0.56433,-0.0108 -0.0455,0.009 -0.0987,0.0184 -0.1182,0.0218 -0.0984,0.0171 -0.32618,0.0951 -0.37825,0.12965 -0.0325,0.0215 -0.091,0.0544 -0.13002,0.0731 -0.039,0.0187 -0.10864,0.0662 -0.15475,0.10553 -0.0461,0.0394 -0.11628,0.0982 -0.15595,0.13067 -0.12992,0.10647 -0.40138,0.50775 -0.42378,0.62647 -0.003,0.013 -0.0272,0.0998 -0.055,0.1929 -0.0495,0.16595 -0.0736,0.5854 -0.0405,0.70543 0.007,0.026 0.0243,0.0952 0.038,0.15366 0.0137,0.0585 0.0317,0.12234 0.04,0.14184 0.008,0.0195 0.0167,0.0408 0.0187,0.0473 0.002,0.007 0.0306,0.0703 0.0636,0.14184 0.14334,0.31098 0.49811,0.65445 0.82421,0.79797 0.33447,0.14719 0.69536,0.19806 0.99198,0.13981 z m 0.4793,-0.14903 c 0.16667,-0.0839 0.2017,-0.10695 0.39459,-0.26007 0.0984,-0.0781 0.29604,-0.32597 0.35559,-0.44594 0.0193,-0.039 0.0408,-0.0762 0.0477,-0.0827 0.0172,-0.0163 0.0883,-0.18928 0.10439,-0.25413 0.007,-0.0292 0.0192,-0.0745 0.0266,-0.10045 0.0143,-0.0505 -0.0466,-0.086 -0.19071,-0.11115 -0.3984,-0.0696 -0.79927,0.1322 -0.99568,0.50119 -0.0534,0.10039 -0.0646,0.15603 -0.0743,0.36915 -0.008,0.17147 -0.003,0.25613 0.0151,0.26735 0.0146,0.009 0.0266,0.0347 0.0266,0.057 0,0.0487 0.0643,0.1457 0.0965,0.1457 0.0126,0 0.0998,-0.0387 0.19369,-0.0859 z"
       id="path56" />
  </g>
</svg>
