<?xml version="1.0" encoding="UTF-8" standalone="no"?>
<!-- Created with Inkscape (http://www.inkscape.org/) -->

<svg
   width="4.8402476mm"
   height="5.8580389mm"
   viewBox="0 0 4.8402476 5.8580389"
   version="1.1"
   id="svg1"
   inkscape:version="1.4.2 (ebf0e940d0, 2025-05-08)"
   sodipodi:docname="star_1.svg"
   xmlns:inkscape="http://www.inkscape.org/namespaces/inkscape"
   xmlns:sodipodi="http://sodipodi.sourceforge.net/DTD/sodipodi-0.dtd"
   xmlns="http://www.w3.org/2000/svg"
   xmlns:svg="http://www.w3.org/2000/svg">
  <sodipodi:namedview
     id="namedview1"
     pagecolor="#ffffff"
     bordercolor="#000000"
     borderopacity="0.25"
     inkscape:showpageshadow="2"
     inkscape:pageopacity="0.0"
     inkscape:pagecheckerboard="0"
     inkscape:deskcolor="#d1d1d1"
     inkscape:document-units="mm"
     inkscape:zoom="9.0608869"
     inkscape:cx="16.554671"
     inkscape:cy="19.037871"
     inkscape:window-width="2700"
     inkscape:window-height="1128"
     inkscape:window-x="0"
     inkscape:window-y="0"
     inkscape:window-maximized="1"
     inkscape:current-layer="layer1" />
  <defs
     id="defs1" />
  <g
     inkscape:label="Layer 1"
     inkscape:groupmode="layer"
     id="layer1"
     transform="translate(-33.3375,-127.00002)">
    <path
       style="display:inline;fill:#FFFFFF;stroke-width:0.0738758"
       d="m 35.67153,132.74108 c -0.008,-0.0845 -0.0216,-0.18026 -0.0306,-0.21276 -0.009,-0.0325 -0.0189,-0.1708 -0.0221,-0.30733 -0.009,-0.38541 -0.01,-0.39651 -0.0414,-0.43056 -0.0162,-0.0176 -0.0615,-0.0955 -0.10048,-0.17308 -0.039,-0.0776 -0.0948,-0.17394 -0.12411,-0.21418 -0.0293,-0.0402 -0.0532,-0.0809 -0.0532,-0.0904 0,-0.0319 -0.19768,-0.35511 -0.29906,-0.48901 -0.0552,-0.0729 -0.13546,-0.16133 -0.1784,-0.19654 -0.4126,-0.33834 -0.55514,-0.43926 -0.82275,-0.58253 -0.0585,-0.0313 -0.13175,-0.0757 -0.16276,-0.0987 -0.0378,-0.028 -0.0992,-0.0417 -0.18638,-0.0417 -0.13545,0 -0.31279,-0.0414 -0.31279,-0.0731 0,-0.0339 0.1052,-0.0529 0.30732,-0.0556 0.11052,-0.001 0.21158,-0.009 0.22459,-0.0175 0.013,-0.008 0.0842,-0.026 0.15831,-0.0397 0.17898,-0.0331 0.52524,-0.21108 0.42087,-0.21637 -0.0195,-9.7e-4 0.004,-0.0224 0.0513,-0.0476 0.0944,-0.0498 0.44449,-0.38762 0.55405,-0.53451 0.0375,-0.0502 0.0745,-0.0966 0.0824,-0.10312 0.008,-0.006 0.0709,-0.0916 0.14002,-0.18912 0.0692,-0.0975 0.13812,-0.18794 0.15324,-0.20094 0.0352,-0.0302 0.1442,-0.28385 0.16505,-0.38389 0.009,-0.0421 0.0258,-0.0826 0.0378,-0.09 0.012,-0.007 0.0222,-0.0368 0.0228,-0.0653 5.6e-4,-0.0285 0.026,-0.10983 0.0566,-0.18077 0.0507,-0.11751 0.0547,-0.15353 0.0446,-0.40534 -0.008,-0.19466 -0.003,-0.28139 0.0164,-0.29331 0.0529,-0.0327 0.0702,0.028 0.081,0.28483 0.0121,0.28633 0.029,0.38034 0.10584,0.59008 0.0286,0.078 0.0781,0.23037 0.11009,0.33858 0.0319,0.10821 0.0794,0.23853 0.10546,0.28959 0.026,0.0511 0.0398,0.0928 0.0306,0.0928 -0.009,0 0.003,0.0144 0.0269,0.0319 0.024,0.0176 0.0454,0.0548 0.0474,0.0828 0.002,0.028 0.0243,0.0676 0.0495,0.088 0.0252,0.0204 0.0326,0.0305 0.0165,0.0223 -0.0201,-0.0102 -0.0245,-0.001 -0.014,0.0278 0.0226,0.0632 0.058,0.10276 0.0798,0.0892 0.0106,-0.007 0.027,5.3e-4 0.0364,0.0157 0.0113,0.0183 0.007,0.0213 -0.0133,0.009 -0.0204,-0.0126 -0.0265,-0.008 -0.0184,0.0141 0.007,0.0181 0.0239,0.0302 0.0385,0.0269 0.0146,-0.003 0.0239,0.002 0.0207,0.0119 -0.0157,0.0471 0.4125,0.47538 0.56384,0.56408 0.0813,0.0477 0.10005,0.0687 0.0763,0.0857 -0.0228,0.0163 -0.0192,0.0185 0.013,0.008 0.0267,-0.009 0.0845,0.009 0.14481,0.0443 0.0831,0.0487 0.16074,0.065 0.45199,0.0949 0.1934,0.0198 0.37601,0.0428 0.4058,0.051 0.0834,0.0231 0.0473,0.0679 -0.0562,0.0697 -0.1536,0.003 -0.48156,0.0368 -0.55342,0.0574 -0.0371,0.0106 -0.071,0.0158 -0.0753,0.0115 -0.0158,-0.0158 -0.38579,0.19425 -0.38579,0.21902 0,0.0141 -0.01,0.0345 -0.0215,0.0453 -0.0125,0.0114 -0.0144,0.007 -0.005,-0.01 0.0237,-0.0412 -0.015,-0.0369 -0.0699,0.008 -0.0392,0.0319 -0.0398,0.0355 -0.005,0.0244 0.0638,-0.0201 0.05,-0.001 -0.0569,0.0773 -0.18177,0.13367 -0.56244,0.50125 -0.59909,0.57848 -0.02,0.0421 -0.0681,0.1113 -0.10685,0.15377 -0.0388,0.0425 -0.0705,0.0912 -0.0705,0.10831 0,0.0171 -0.016,0.0444 -0.0355,0.0605 -0.0195,0.0162 -0.0355,0.0541 -0.0355,0.0842 0,0.0302 -0.0108,0.0615 -0.0241,0.0697 -0.032,0.0198 -0.1303,0.21819 -0.1514,0.30561 -0.009,0.0382 -0.0382,0.0995 -0.0643,0.13618 -0.0339,0.0476 -0.0502,0.1157 -0.057,0.23784 -0.0288,0.52092 -0.0396,0.66035 -0.0558,0.71995 -0.0146,0.054 -0.0204,0.0382 -0.0321,-0.0878 z m -0.002,-0.33687 c -0.007,-0.0163 -0.0119,-0.003 -0.0119,0.0296 0,0.0325 0.005,0.0458 0.0119,0.0296 0.007,-0.0163 0.007,-0.0429 0,-0.0591 z m -0.48846,-1.44431 c 0,-0.005 -0.0228,-0.0284 -0.0507,-0.0532 -0.0504,-0.0448 -0.0506,-0.0447 -0.0228,0.008 0.023,0.0439 0.0735,0.0748 0.0735,0.045 z m -1.00472,-0.93745 c -0.008,-0.013 -0.0252,-0.0236 -0.0383,-0.0236 -0.013,0 -0.0171,0.0106 -0.009,0.0236 0.008,0.013 0.0252,0.0236 0.0383,0.0236 0.013,0 0.0171,-0.0106 0.009,-0.0236 z"
       id="path44" />
  </g>
</svg>
