<?xml version="1.0" encoding="UTF-8" standalone="no"?>
<!-- Created with Inkscape (http://www.inkscape.org/) -->

<svg
   width="0.72779083mm"
   height="0.93347359mm"
   viewBox="0 0 0.72779083 0.93347359"
   version="1.1"
   id="svg1"
   inkscape:version="1.4.2 (ebf0e940d0, 2025-05-08)"
   sodipodi:docname="star_6.svg"
   xmlns:inkscape="http://www.inkscape.org/namespaces/inkscape"
   xmlns:sodipodi="http://sodipodi.sourceforge.net/DTD/sodipodi-0.dtd"
   xmlns="http://www.w3.org/2000/svg"
   xmlns:svg="http://www.w3.org/2000/svg">
  <sodipodi:namedview
     id="namedview1"
     pagecolor="#ffffff"
     bordercolor="#000000"
     borderopacity="0.25"
     inkscape:showpageshadow="2"
     inkscape:pageopacity="0.0"
     inkscape:pagecheckerboard="0"
     inkscape:deskcolor="#d1d1d1"
     inkscape:document-units="mm"
     inkscape:zoom="0.80087682"
     inkscape:cx="-192.28925"
     inkscape:cy="26.845576"
     inkscape:window-width="2700"
     inkscape:window-height="1128"
     inkscape:window-x="0"
     inkscape:window-y="0"
     inkscape:window-maximized="1"
     inkscape:current-layer="layer1" />
  <defs
     id="defs1" />
  <g
     inkscape:label="Layer 1"
     inkscape:groupmode="layer"
     id="layer1"
     transform="translate(-155.83958,-141.552)">
    <path
       style="display:inline;fill:#FFFFFF;stroke-width:0.0738758"
       d="m 156.15437,142.38787 c -0.0489,-0.10841 -0.23176,-0.30418 -0.28414,-0.30418 -0.0682,0 -0.0151,-0.0885 0.0856,-0.14235 0.0625,-0.0334 0.18607,-0.21946 0.20342,-0.30619 0.008,-0.0399 0.0219,-0.0771 0.031,-0.0828 0.009,-0.006 0.0529,0.0651 0.0974,0.15724 0.0498,0.10317 0.11905,0.20112 0.18032,0.25512 l 0.0994,0.0876 -0.10445,0.0736 c -0.072,0.0507 -0.12688,0.11806 -0.17662,0.21659 -0.0397,0.0786 -0.0757,0.14297 -0.0801,0.14297 -0.004,0 -0.0277,-0.044 -0.0519,-0.0977 z"
       id="path53" />
  </g>
</svg>
