<?xml version="1.0" encoding="UTF-8" standalone="no"?>
<!-- Created with Inkscape (http://www.inkscape.org/) -->

<svg
   width="45.354332"
   height="45.354332"
   viewBox="0 0 12 12"
   version="1.1"
   id="svg1"
   inkscape:version="1.4.2 (ebf0e940d0, 2025-05-08)"
   sodipodi:docname="star_cards.svg"
   xmlns:inkscape="http://www.inkscape.org/namespaces/inkscape"
   xmlns:sodipodi="http://sodipodi.sourceforge.net/DTD/sodipodi-0.dtd"
   xmlns="http://www.w3.org/2000/svg"
   xmlns:svg="http://www.w3.org/2000/svg">
  <sodipodi:namedview
     id="namedview1"
     pagecolor="#ffffff"
     bordercolor="#000000"
     borderopacity="0.25"
     inkscape:showpageshadow="2"
     inkscape:pageopacity="0.0"
     inkscape:pagecheckerboard="0"
     inkscape:deskcolor="#d1d1d1"
     inkscape:document-units="mm"
     inkscape:zoom="12.814029"
     inkscape:cx="19.119669"
     inkscape:cy="20.173202"
     inkscape:window-width="2700"
     inkscape:window-height="1128"
     inkscape:window-x="0"
     inkscape:window-y="0"
     inkscape:window-maximized="1"
     inkscape:current-layer="layer1"
     showguides="true">
    <sodipodi:guide
       position="6.0265373,7.155799"
       orientation="1,0"
       id="guide1"
       inkscape:locked="false" />
  </sodipodi:namedview>
  <defs
     id="defs1">
    <inkscape:path-effect
       effect="fill_between_many"
       method="originald"
       linkedpaths="#path51-3,0,1"
       id="path-effect1"
       is_visible="true"
       lpeversion="0"
       join="true"
       close="true"
       autoreverse="true" />
  </defs>
  <g
     inkscape:label="Layer 1"
     inkscape:groupmode="layer"
     id="layer1"
     transform="translate(-81.321776,-132.91286)">
    <g
       id="g1"
       transform="matrix(3.9939516,0,0,3.9939516,-218.55582,-399.88914)">
      <path
         inkscape:original-d="M 0,0"
         inkscape:path-effect="#path-effect1"
         d="m 76.582017,133.40449 c -0.01237,0.002 -0.05534,0.0111 -0.06445,0.0137 -0.03192,0.0129 -0.04615,0.0265 -0.05664,0.0352 -0.06664,0.0557 -0.08193,0.12664 -0.08984,0.1875 -0.0079,0.0609 -0.0098,0.13189 -0.0098,0.23828 v 0.12305 l 0.05469,-0.01 h 0.0039 c -0.193211,0.0314 -0.383581,0.13523 -0.515625,0.2793 -0.159336,0.17382 -0.222588,0.31255 -0.253907,0.52539 -0.0331,0.003 -0.0645,0.006 -0.105468,0.008 a 0.17106373,0.17106373 0 0 0 -0.002,0 c -0.06575,0.003 -0.126204,0.007 -0.175782,0.0137 -0.02479,0.003 -0.0462,0.007 -0.06836,0.0117 -0.01108,0.003 -0.02082,0.006 -0.03711,0.0117 -0.0081,0.003 -0.0191,0.007 -0.0332,0.0156 -0.0071,0.004 -0.02498,0.0172 -0.02539,0.0176 -4.12e-4,3.6e-4 -0.03299,0.0407 -0.0332,0.041 a 0.17106373,0.17106373 0 0 0 -0.002,0 c -4.32e-4,7e-4 -0.01935,0.0462 -0.01953,0.0469 -1.86e-4,6.9e-4 -0.0059,0.0579 -0.0059,0.0586 4.8e-5,6.7e-4 0.0134,0.056 0.01367,0.0566 2.73e-4,6.6e-4 0.01524,0.0283 0.02344,0.0391 0.0328,0.0431 0.05971,0.052 0.08008,0.0606 0.04073,0.0172 0.06757,0.0197 0.09961,0.0215 0.03731,0.002 0.09481,0.006 0.11914,0.008 0.0437,0.004 0.12724,0.01 0.205079,0.0117 0.0071,2.2e-4 -4.65e-4,-5e-4 0.0059,0 0.01717,0.0538 0.02757,0.11225 0.05664,0.16407 0.04872,0.0868 0.107362,0.17211 0.179687,0.24023 0.129803,0.12227 0.287648,0.20852 0.453125,0.24023 0.0012,0.0181 0.0076,0.0574 0.01172,0.17969 0.0019,0.0573 0.0071,0.10854 0.01172,0.15039 0.0023,0.0209 0.0035,0.0385 0.0078,0.0586 0.0021,0.0101 0.004,0.0197 0.01172,0.0391 0.0019,0.005 0.0042,0.0106 0.0078,0.0176 0.0036,0.007 0.01732,0.027 0.01758,0.0273 2.57e-4,3.4e-4 0.04076,0.0389 0.04102,0.0391 1.27e-4,9e-5 0.04089,0.0195 0.04102,0.0195 1.26e-4,5e-5 0.05456,0.01 0.05469,0.01 7.28e-4,0 0.06959,-0.0153 0.07031,-0.0156 7.23e-4,-3.1e-4 0.03559,-0.0195 0.04687,-0.0293 0.02257,-0.0195 0.03147,-0.0358 0.03906,-0.0488 0.01518,-0.0261 0.02055,-0.0419 0.02539,-0.0586 0.0097,-0.0334 0.01473,-0.0663 0.01953,-0.10352 0.0096,-0.0744 0.01548,-0.16614 0.01563,-0.26562 v -0.0352 c 0.06931,-0.0181 0.139067,-0.0305 0.207031,-0.0664 0.102716,-0.0543 0.202159,-0.12023 0.279297,-0.20117 0.06958,-0.073 0.124648,-0.16132 0.167969,-0.25391 0.02881,-0.0616 0.03923,-0.12574 0.05273,-0.18945 0.04166,-0.005 0.09454,-0.0125 0.121094,-0.0137 l -0.002,0.002 c 0.02009,-6.8e-4 0.02862,0.002 0.06836,-0.008 0.005,-0.001 0.01223,-0.003 0.01953,-0.006 0.0073,-0.003 0.02693,-0.0115 0.02734,-0.0117 4.1e-4,-2.2e-4 0.0447,-0.0349 0.04492,-0.0351 1.13e-4,-1.3e-4 0.02532,-0.037 0.02539,-0.0371 6.7e-5,-1.3e-4 0.01756,-0.0546 0.01758,-0.0547 2.1e-5,-1.4e-4 2.6e-5,-0.0565 0,-0.0566 -2.6e-5,-1.4e-4 -0.01555,-0.0448 -0.01563,-0.0449 -1.46e-4,-3e-4 -0.03677,-0.0485 -0.03711,-0.0488 -3.36e-4,-3.2e-4 -0.01859,-0.0151 -0.02539,-0.0195 -0.0068,-0.004 -0.01088,-0.009 -0.01563,-0.0117 -0.03792,-0.0198 -0.04807,-0.0173 -0.07031,-0.0234 -0.02175,-0.006 -0.04939,-0.0136 -0.08203,-0.0215 h -0.002 l -0.06836,-0.0176 -0.02734,-0.082 c -0.06045,-0.17989 -0.119927,-0.27682 -0.251953,-0.40821 -0.07568,-0.0753 -0.167947,-0.1239 -0.263672,-0.16992 -0.04786,-0.023 -0.09515,-0.042 -0.140625,-0.0566 -0.01635,-0.005 -0.03349,-0.008 -0.05078,-0.0117 3.62e-4,-0.0534 9.96e-4,-0.11903 0,-0.18945 -0.0013,-0.11361 -0.002,-0.17109 -0.01172,-0.23242 -0.0024,-0.0153 -0.0039,-0.0325 -0.01367,-0.0566 -0.0049,-0.0121 -0.01095,-0.0262 -0.02344,-0.043 -0.0062,-0.008 -0.01566,-0.0185 -0.02539,-0.0274 -0.0097,-0.009 -0.03456,-0.0231 -0.03516,-0.0234 -0.0012,-6.5e-4 -0.08654,-0.0235 -0.08789,-0.0234 z"
         id="path1"
         style="fill:#121a2e;fill-opacity:1" />
      <path
         id="path51-3"
         style="display:inline;fill:#121a2e;fill-opacity:1;stroke:none;stroke-width:0.074;stroke-dasharray:none"
         sodipodi:type="inkscape:offset"
         inkscape:radius="0.17104663"
         inkscape:original="M 78.935547 133.64258 C 78.908047 133.66555 78.898438 133.73001 78.898438 133.9375 L 78.898438 134.20312 L 78.8125 134.21875 C 78.685 134.23944 78.485484 134.34821 78.396484 134.44531 C 78.235674 134.62074 78.205534 134.68465 78.177734 134.90625 C 78.171334 134.95738 78.160297 135.00377 78.154297 135.00977 C 78.148377 135.01567 78.042199 135.0272 77.917969 135.0332 C 77.793739 135.0397 77.686688 135.05325 77.679688 135.06445 C 77.672787 135.07565 77.697875 135.08589 77.734375 135.08789 C 77.770885 135.08989 77.826875 135.0927 77.859375 135.0957 C 77.891885 135.0987 77.979888 135.10347 78.054688 135.10547 C 78.181617 135.10927 78.189453 135.11262 78.189453 135.16602 C 78.189453 135.25534 78.303623 135.45814 78.408203 135.55664 C 78.522663 135.66446 78.680098 135.74697 78.804688 135.76367 C 78.911738 135.77804 78.917434 135.79346 78.927734 136.0957 C 78.931334 136.20294 78.941219 136.29101 78.949219 136.29102 C 78.972519 136.29104 78.993861 136.12746 78.994141 135.94141 L 78.994141 135.76953 L 79.060547 135.76953 C 79.165627 135.76953 79.421337 135.63476 79.529297 135.52148 C 79.627307 135.41862 79.726562 135.20674 79.726562 135.09961 C 79.726562 135.05431 79.741553 135.0414 79.814453 135.0293 C 79.863213 135.0218 79.940828 135.01372 79.986328 135.01172 C 80.054098 135.00942 80.040003 135.0024 79.908203 134.9707 L 79.748047 134.93164 L 79.689453 134.75977 C 79.631213 134.58646 79.605246 134.54409 79.478516 134.41797 C 79.393086 134.33295 79.123659 134.2035 79.068359 134.2207 C 79.018059 134.2364 78.964703 134.20306 78.970703 134.16016 C 78.973543 134.14204 78.974656 134.01245 78.972656 133.87109 C 78.970156 133.64549 78.966647 133.61678 78.935547 133.64258 z "
         d="m 78.947266,133.46289 c -6.78e-4,1e-5 -0.0262,0.003 -0.03711,0.006 -0.01091,0.002 -0.01936,0.005 -0.02734,0.008 -0.03192,0.0129 -0.04615,0.0264 -0.05664,0.0352 -0.06664,0.0557 -0.08193,0.12665 -0.08984,0.1875 -0.0079,0.0609 -0.0098,0.13189 -0.0098,0.23828 v 0.12305 l 0.05469,-0.01 h 0.0039 c -0.193211,0.0314 -0.38358,0.13524 -0.515625,0.2793 -0.159335,0.17382 -0.222587,0.31255 -0.253906,0.52539 -0.0331,0.003 -0.0645,0.006 -0.105469,0.008 a 0.17106373,0.17106373 0 0 0 -0.002,0 c -0.06575,0.003 -0.126203,0.007 -0.175781,0.0137 -0.02479,0.003 -0.0462,0.007 -0.06836,0.0117 -0.01108,0.003 -0.02082,0.006 -0.03711,0.0117 -0.0081,0.003 -0.0191,0.007 -0.0332,0.0156 -0.0071,0.004 -0.02498,0.0172 -0.02539,0.0176 -4.11e-4,3.6e-4 -0.03298,0.0407 -0.0332,0.041 a 0.17106373,0.17106373 0 0 0 -0.002,0 c -4.31e-4,7e-4 -0.01935,0.0462 -0.01953,0.0469 -1.87e-4,7e-4 -0.0059,0.0579 -0.0059,0.0586 4.9e-5,6.8e-4 0.0134,0.056 0.01367,0.0566 2.74e-4,6.6e-4 0.01524,0.0283 0.02344,0.0391 0.0328,0.0431 0.05971,0.052 0.08008,0.0606 0.04073,0.0172 0.06757,0.0197 0.09961,0.0215 0.03731,0.002 0.09481,0.006 0.119141,0.008 0.0437,0.004 0.127239,0.01 0.205078,0.0117 0.0071,2.2e-4 -4.64e-4,-5e-4 0.0059,0 0.01717,0.0538 0.02757,0.11225 0.05664,0.16407 0.04873,0.0868 0.107362,0.17211 0.179688,0.24023 0.129802,0.12227 0.287647,0.20853 0.453125,0.24023 0.0012,0.0181 0.0076,0.0574 0.01172,0.17969 0.0019,0.0573 0.0071,0.10854 0.01172,0.15039 0.0023,0.0209 0.0035,0.0385 0.0078,0.0586 0.0021,0.0101 0.004,0.0196 0.01172,0.0391 0.0019,0.005 0.0042,0.0106 0.0078,0.0176 0.0036,0.007 0.01732,0.027 0.01758,0.0273 2.56e-4,3.4e-4 0.04076,0.0389 0.04102,0.0391 1.26e-4,9e-5 0.04089,0.0195 0.04102,0.0195 1.26e-4,5e-5 0.05456,0.01 0.05469,0.01 7.28e-4,0 0.06959,-0.0153 0.07031,-0.0156 7.24e-4,-3.2e-4 0.03559,-0.0195 0.04687,-0.0293 0.02257,-0.0195 0.03147,-0.0358 0.03906,-0.0488 0.01518,-0.0261 0.02055,-0.0419 0.02539,-0.0586 0.0097,-0.0334 0.01473,-0.0663 0.01953,-0.10352 0.0096,-0.0743 0.01547,-0.16613 0.01563,-0.26562 v -0.0352 c 0.06931,-0.0181 0.139067,-0.0305 0.207031,-0.0664 0.102715,-0.0543 0.202158,-0.12023 0.279297,-0.20117 0.06957,-0.073 0.124647,-0.16131 0.167968,-0.2539 0.02881,-0.0616 0.03923,-0.12575 0.05273,-0.18946 0.04166,-0.005 0.09454,-0.0125 0.121094,-0.0137 l -0.002,0.002 c 0.02009,-6.8e-4 0.02862,0.002 0.06836,-0.008 0.005,-0.001 0.01223,-0.003 0.01953,-0.006 0.0073,-0.003 0.02693,-0.0115 0.02734,-0.0117 4.09e-4,-2.2e-4 0.0447,-0.0349 0.04492,-0.0351 1.13e-4,-1.3e-4 0.02532,-0.037 0.02539,-0.0371 6.8e-5,-1.3e-4 0.01756,-0.0546 0.01758,-0.0547 2.1e-5,-1.4e-4 2.6e-5,-0.0565 0,-0.0566 -2.5e-5,-1.4e-4 -0.01555,-0.0448 -0.01563,-0.0449 -1.45e-4,-3e-4 -0.03677,-0.0485 -0.03711,-0.0488 -3.35e-4,-3.2e-4 -0.01859,-0.0151 -0.02539,-0.0195 -0.0068,-0.004 -0.01088,-0.009 -0.01563,-0.0117 -0.03792,-0.0198 -0.04807,-0.0173 -0.07031,-0.0234 -0.02175,-0.006 -0.04939,-0.0136 -0.08203,-0.0215 h -0.002 l -0.06836,-0.0176 -0.02734,-0.082 c -0.06045,-0.17988 -0.119927,-0.27681 -0.251953,-0.40821 -0.07568,-0.0753 -0.167947,-0.1239 -0.263672,-0.16992 -0.04786,-0.023 -0.09515,-0.042 -0.140625,-0.0566 -0.01635,-0.005 -0.03349,-0.008 -0.05078,-0.0117 3.62e-4,-0.0534 9.97e-4,-0.11903 0,-0.18945 -0.0013,-0.11361 -0.002,-0.17109 -0.01172,-0.23242 -0.0024,-0.0153 -0.0039,-0.0325 -0.01367,-0.0566 -0.0049,-0.0121 -0.01095,-0.0262 -0.02344,-0.043 -0.0062,-0.008 -0.01566,-0.0185 -0.02539,-0.0273 -0.0097,-0.009 -0.03456,-0.0231 -0.03516,-0.0234 -0.0012,-6.5e-4 -0.08653,-0.0235 -0.08789,-0.0234 z"
         transform="translate(-2.3652486,-0.0584012)" />
      <path
         style="display:inline;fill:#ffffff;stroke-width:0.0738758"
         d="m 76.573146,136.04337 c -0.0103,-0.30224 -0.0159,-0.31708 -0.12295,-0.33145 -0.12459,-0.0167 -0.28257,-0.099 -0.39703,-0.20682 -0.10458,-0.0985 -0.21801,-0.30222 -0.21801,-0.39154 0,-0.0534 -0.009,-0.0574 -0.13593,-0.0612 -0.0748,-0.002 -0.16252,-0.006 -0.19503,-0.009 -0.0325,-0.003 -0.089,-0.006 -0.12551,-0.008 -0.0365,-0.002 -0.0607,-0.0121 -0.0538,-0.0233 0.007,-0.0112 0.11425,-0.0257 0.23848,-0.0322 0.12423,-0.006 0.23073,-0.0167 0.23665,-0.0226 0.006,-0.006 0.016,-0.0526 0.0224,-0.10373 0.0278,-0.2216 0.0585,-0.28621 0.21931,-0.46164 0.089,-0.0971 0.2885,-0.20559 0.416,-0.22628 l 0.0866,-0.0141 v -0.26586 c 0,-0.20749 0.008,-0.27233 0.0355,-0.2953 0.0311,-0.0258 0.0358,0.002 0.0383,0.2276 0.002,0.14136 8.4e-4,0.27185 -0.002,0.28997 -0.006,0.0429 0.0474,0.0757 0.0977,0.06 0.0553,-0.0172 0.32412,0.11233 0.40955,0.19735 0.12673,0.12612 0.15346,0.16938 0.2117,0.34269 l 0.0574,0.17074 0.16097,0.0387 c 0.1318,0.0317 0.14597,0.0393 0.0782,0.0416 -0.0455,0.002 -0.12263,0.01 -0.17139,0.0175 -0.0729,0.0121 -0.0887,0.0245 -0.0887,0.0698 0,0.10713 -0.0991,0.31931 -0.19711,0.42217 -0.10796,0.11328 -0.36393,0.24937 -0.46901,0.24937 h -0.0667 l -2.8e-4,0.17139 c -2.8e-4,0.18605 -0.0209,0.34871 -0.0442,0.34869 -0.008,-1e-5 -0.0177,-0.0878 -0.0213,-0.19504 z m -0.0672,-0.50825 c -0.0186,-0.0618 -0.0332,-0.1123 -0.0326,-0.1123 5.5e-4,0 -0.006,-0.035 -0.0143,-0.0777 -0.009,-0.0437 -0.0374,-0.0893 -0.0656,-0.1043 -0.0275,-0.0146 -0.09,-0.0586 -0.13873,-0.0977 -0.0675,-0.0541 -0.11968,-0.0736 -0.21867,-0.0818 -0.14887,-0.0123 -0.15455,-0.002 -0.0846,0.15197 0.0552,0.12156 0.19477,0.27837 0.29359,0.32987 0.0673,0.0351 0.24026,0.0987 0.27921,0.10265 0.008,8.7e-4 2.2e-4,-0.049 -0.0184,-0.1107 z m 0.3162,0.0706 c 0.0423,-0.006 0.0768,-0.0203 0.0768,-0.0319 0,-0.0116 0.0137,-0.0211 0.0304,-0.0211 0.0488,0 0.24409,-0.19749 0.28242,-0.28565 0.10978,-0.2525 0.11304,-0.28172 0.0315,-0.28172 -0.0663,0 -0.12043,0.0214 -0.28522,0.11269 -0.0994,0.055 -0.1302,0.0899 -0.19346,0.21871 -0.0414,0.0843 -0.0828,0.19483 -0.092,0.24569 -0.0153,0.0846 -0.0129,0.0908 0.028,0.0732 0.0246,-0.0106 0.0793,-0.0241 0.12155,-0.03 z m -0.72694,-0.70169 c 0.0195,-0.0159 0.0747,-0.0468 0.12276,-0.0688 0.14316,-0.0654 0.25897,-0.25486 0.2925,-0.47845 l 0.0164,-0.10934 -0.0799,0.0173 c -0.29895,0.0648 -0.54141,0.34355 -0.541,0.62206 1.5e-4,0.0764 0.003,0.0782 0.077,0.0624 0.0423,-0.009 0.0928,-0.0293 0.11229,-0.0452 z m 1.17845,-0.11363 c -0.0131,-0.0423 -0.0302,-0.0981 -0.0378,-0.12411 -0.0187,-0.0634 -0.0988,-0.17686 -0.17135,-0.24258 -0.0588,-0.0533 -0.28368,-0.18105 -0.28368,-0.16118 0,0.006 -0.0332,8.7e-4 -0.0739,-0.0108 l -0.0739,-0.0212 0.0142,0.0879 c 0.0256,0.1578 0.15731,0.38291 0.26261,0.44884 0.0525,0.0329 0.099,0.0688 0.10337,0.0799 0.004,0.0111 0.0701,0.0201 0.1461,0.0201 h 0.13822 z"
         id="path51" />
    </g>
  </g>
</svg>
