<?xml version="1.0" encoding="UTF-8" standalone="no"?>
<!-- Created with Inkscape (http://www.inkscape.org/) -->

<svg
   width="2.3477392mm"
   height="2.6554825mm"
   viewBox="0 0 2.3477392 2.6554825"
   version="1.1"
   id="svg1"
   inkscape:version="1.4.2 (ebf0e940d0, 2025-05-08)"
   sodipodi:docname="star_5.svg"
   xmlns:inkscape="http://www.inkscape.org/namespaces/inkscape"
   xmlns:sodipodi="http://sodipodi.sourceforge.net/DTD/sodipodi-0.dtd"
   xmlns="http://www.w3.org/2000/svg"
   xmlns:svg="http://www.w3.org/2000/svg">
  <sodipodi:namedview
     id="namedview1"
     pagecolor="#ffffff"
     bordercolor="#000000"
     borderopacity="0.25"
     inkscape:showpageshadow="2"
     inkscape:pageopacity="0.0"
     inkscape:pagecheckerboard="0"
     inkscape:deskcolor="#d1d1d1"
     inkscape:document-units="mm"
     inkscape:zoom="0.80087682"
     inkscape:cx="88.652834"
     inkscape:cy="58.061363"
     inkscape:window-width="2700"
     inkscape:window-height="1128"
     inkscape:window-x="0"
     inkscape:window-y="0"
     inkscape:window-maximized="1"
     inkscape:current-layer="layer1" />
  <defs
     id="defs1" />
  <g
     inkscape:label="Layer 1"
     inkscape:groupmode="layer"
     id="layer1"
     transform="translate(-81.491665,-133.08512)">
    <path
       style="display:inline;fill:#FFFFFF;stroke-width:0.0738758"
       d="m 82.7411,135.54605 c -0.0103,-0.30224 -0.0159,-0.31708 -0.12295,-0.33145 -0.12459,-0.0167 -0.28257,-0.099 -0.39703,-0.20682 -0.10458,-0.0985 -0.21801,-0.30222 -0.21801,-0.39154 0,-0.0534 -0.009,-0.0574 -0.13593,-0.0612 -0.0748,-0.002 -0.16252,-0.006 -0.19503,-0.009 -0.0325,-0.003 -0.089,-0.006 -0.12551,-0.008 -0.0365,-0.002 -0.0607,-0.0121 -0.0538,-0.0233 0.007,-0.0112 0.11425,-0.0257 0.23848,-0.0322 0.12423,-0.006 0.23073,-0.0167 0.23665,-0.0226 0.006,-0.006 0.016,-0.0526 0.0224,-0.10373 0.0278,-0.2216 0.0585,-0.28621 0.21931,-0.46164 0.089,-0.0971 0.2885,-0.20559 0.416,-0.22628 l 0.0866,-0.0141 v -0.26586 c 0,-0.20749 0.008,-0.27233 0.0355,-0.2953 0.0311,-0.0258 0.0358,0.002 0.0383,0.2276 0.002,0.14136 8.4e-4,0.27185 -0.002,0.28997 -0.006,0.0429 0.0474,0.0757 0.0977,0.06 0.0553,-0.0172 0.32412,0.11233 0.40955,0.19735 0.12673,0.12612 0.15346,0.16938 0.2117,0.34269 l 0.0574,0.17074 0.16097,0.0387 c 0.1318,0.0317 0.14597,0.0393 0.0782,0.0416 -0.0455,0.002 -0.12263,0.01 -0.17139,0.0175 -0.0729,0.0121 -0.0887,0.0245 -0.0887,0.0698 0,0.10713 -0.0991,0.31931 -0.19711,0.42217 -0.10796,0.11328 -0.36393,0.24937 -0.46901,0.24937 h -0.0667 l -2.8e-4,0.17139 c -2.8e-4,0.18605 -0.0209,0.34871 -0.0442,0.34869 -0.008,-1e-5 -0.0177,-0.0878 -0.0213,-0.19504 z m -0.0672,-0.50825 c -0.0186,-0.0618 -0.0332,-0.1123 -0.0326,-0.1123 5.5e-4,0 -0.006,-0.035 -0.0143,-0.0777 -0.009,-0.0437 -0.0374,-0.0893 -0.0656,-0.1043 -0.0275,-0.0146 -0.09,-0.0586 -0.13873,-0.0977 -0.0675,-0.0541 -0.11968,-0.0736 -0.21867,-0.0818 -0.14887,-0.0123 -0.15455,-0.002 -0.0846,0.15197 0.0552,0.12156 0.19477,0.27837 0.29359,0.32987 0.0673,0.0351 0.24026,0.0987 0.27921,0.10265 0.008,8.7e-4 2.2e-4,-0.049 -0.0184,-0.1107 z m 0.3162,0.0706 c 0.0423,-0.006 0.0768,-0.0203 0.0768,-0.0319 0,-0.0116 0.0137,-0.0211 0.0304,-0.0211 0.0488,0 0.24409,-0.19749 0.28242,-0.28565 0.10978,-0.2525 0.11304,-0.28172 0.0315,-0.28172 -0.0663,0 -0.12043,0.0214 -0.28522,0.11269 -0.0994,0.055 -0.1302,0.0899 -0.19346,0.21871 -0.0414,0.0843 -0.0828,0.19483 -0.092,0.24569 -0.0153,0.0846 -0.0129,0.0908 0.028,0.0732 0.0246,-0.0106 0.0793,-0.0241 0.12155,-0.03 z m -0.72694,-0.70169 c 0.0195,-0.0159 0.0747,-0.0468 0.12276,-0.0688 0.14316,-0.0654 0.25897,-0.25486 0.2925,-0.47845 l 0.0164,-0.10934 -0.0799,0.0173 c -0.29895,0.0648 -0.54141,0.34355 -0.541,0.62206 1.5e-4,0.0764 0.003,0.0782 0.077,0.0624 0.0423,-0.009 0.0928,-0.0293 0.11229,-0.0452 z m 1.17845,-0.11363 c -0.0131,-0.0423 -0.0302,-0.0981 -0.0378,-0.12411 -0.0187,-0.0634 -0.0988,-0.17686 -0.17135,-0.24258 -0.0588,-0.0533 -0.28368,-0.18105 -0.28368,-0.16118 0,0.006 -0.0332,8.7e-4 -0.0739,-0.0108 l -0.0739,-0.0212 0.0142,0.0879 c 0.0256,0.1578 0.15731,0.38291 0.26261,0.44884 0.0525,0.0329 0.099,0.0688 0.10337,0.0799 0.004,0.0111 0.0701,0.0201 0.1461,0.0201 h 0.13822 z"
       id="path51" />
  </g>
</svg>
